<svg width="62" height="65" viewBox="0 0 62 65" fill="none" xmlns="http://www.w3.org/2000/svg">
<path d="M26.4538 11.1484C26.6089 11.1484 26.7662 11.1099 26.9111 11.0287L29.4434 9.61077C30.4675 9.0374 29.5977 7.37459 28.527 7.97409L25.9947 9.39205C25.1858 9.84511 25.5252 11.1484 26.4538 11.1484Z" fill="#135EAB"/>
<path d="M5.68754 21.8412C5.43456 21.3893 4.86308 21.228 4.41101 21.4811L1.87872 22.899C0.853666 23.4729 1.7269 25.1342 2.79509 24.5357L5.32739 23.1177C5.77933 22.8648 5.94052 22.2933 5.68754 21.8412Z" fill="#135EAB"/>
<path d="M8.77426 5.95808C9.3515 6.98201 11.0104 6.10502 10.4082 5.03683L8.98534 2.51328C8.40898 1.49086 6.74879 2.3656 7.35142 3.43454L8.77426 5.95808Z" fill="#135EAB"/>
<path d="M18.7504 5.27701C19.2087 5.40606 19.7772 5.09043 19.9073 4.62824L20.6918 1.84121C21.0097 0.71149 19.2188 0.151508 18.8862 1.333L18.1017 4.12003C17.9614 4.61873 18.2518 5.13657 18.7504 5.27701Z" fill="#135EAB"/>
<path d="M3.73953 13.8607C4.78683 13.8607 4.9953 12.2999 3.99163 12.0193L1.19497 11.2375C0.0642539 10.921 -0.491726 12.7136 0.689763 13.044L3.48642 13.8258C3.57096 13.8494 3.65599 13.8607 3.73953 13.8607Z" fill="#135EAB"/>
<path d="M27.3384 31.0699V32.992H26.4711C24.3568 32.992 22.6367 34.7121 22.6367 36.8263V53.5236C22.6835 55.659 24.3504 57.3151 26.4824 57.358H28.6403C30.2805 57.7052 29.9624 54.9168 28.4975 55.4822H26.4824C25.4161 55.4822 24.5125 54.5981 24.5125 53.5236V49.8612H38.606V53.5236C38.606 54.5941 37.7058 55.4822 36.6359 55.4822H34.1756C32.7108 54.9168 32.3926 57.7052 34.0328 57.358H36.6359C38.768 57.3117 40.4383 55.6589 40.4817 53.5236V36.8263C40.4817 34.7121 38.7616 32.992 36.6474 32.992H35.7799V31.0699C35.7799 29.78 34.7303 28.7305 33.4404 28.7305H29.6778C28.388 28.7305 27.3384 29.78 27.3384 31.0699ZM24.5126 47.9856V42.3646H38.6061V47.9856H24.5126ZM38.6061 36.8263V40.4887H24.5126V36.8263C24.5126 35.7464 25.3912 34.8678 26.4712 34.8678H36.6475C37.7275 34.8678 38.6061 35.7465 38.6061 36.8263ZM33.9043 31.0699V32.992H29.2142V31.0699C29.2142 30.8142 29.4222 30.6062 29.6779 30.6062H33.4406C33.6963 30.6062 33.9043 30.8142 33.9043 31.0699Z" fill="#135EAB"/>
<path d="M51.0696 17.2467H57.4007C57.7963 17.2467 58.1492 16.9986 58.2832 16.6264L61.9074 6.55923C62.1239 5.95761 61.6642 5.30371 61.0249 5.30371H45.729C45.3335 5.30371 44.9806 5.55181 44.8465 5.92397L41.2583 15.8915C41.0373 16.5051 41.5848 17.2467 42.2288 17.2467H49.1938V22.3353L43.799 19.0415C42.7969 18.4301 41.7741 20.0032 42.8216 20.6426L57.508 29.609C59.5057 30.8413 57.5852 33.9748 55.5343 32.7102L41.8921 24.3876L32.044 18.317C31.7424 18.1311 31.3613 18.1311 31.0597 18.317L21.212 24.3875L7.5656 32.7126C5.55489 33.9528 3.56645 30.8608 5.59203 29.6113L30.8748 14.1753C31.3508 13.9094 31.7527 13.9095 32.2289 14.1753L37.6558 17.4885C38.6576 18.1003 39.6806 16.5269 38.6332 15.8875L33.192 12.5656C33.1832 12.5602 33.1743 12.5551 33.1655 12.55C32.116 11.9558 30.9878 11.9556 29.9381 12.55C29.9292 12.5551 29.9204 12.5602 29.9116 12.5656L24.3456 15.9639C24.2983 14.5844 23.9219 13.2234 23.2361 12.0071C20.8875 7.84139 15.5765 6.35652 11.3976 8.69662C9.3696 9.83221 7.90799 11.6874 7.28161 13.9204C6.65673 16.1483 6.93884 18.4859 8.07594 20.5025C8.87852 21.9261 10.0434 23.0694 11.4452 23.8399L4.61088 28.0125C0.516933 30.5379 4.47907 36.8193 8.54638 34.3115L9.29494 33.8548V63.7379C9.29494 64.256 9.71474 64.6758 10.2328 64.6758H52.8709C53.389 64.6758 53.8088 64.256 53.8088 63.7379V33.8548L54.5536 34.3092C58.6447 36.8325 62.5632 30.5233 58.4891 28.0104L51.0639 23.4771C51.0675 23.4437 51.0696 23.4098 51.0696 23.3754V17.2467ZM49.3388 13.1461L51.4868 7.17949H54.5918L53.5155 10.1691L51.6427 15.3709H48.5378L49.3388 13.1461ZM56.7415 15.3709H53.6364L54.7127 12.3813L56.5855 7.17949H59.6904L56.7415 15.3709ZM46.3882 7.17949H49.4932L48.6923 9.40428L46.5442 15.3709H43.4393L46.3882 7.17949ZM9.70986 19.5813C8.81937 18.002 8.59828 16.1715 9.08761 14.427C9.57843 12.6774 10.7242 11.2235 12.3139 10.3333C15.5933 8.49703 19.7599 9.66114 21.602 12.9284C22.3237 14.2084 22.6088 15.6926 22.4171 17.1411L13.3811 22.6579C11.8209 22.1099 10.5266 21.0299 9.70986 19.5813ZM51.933 32.7807V62.8H11.1707V32.7807L22.209 25.9764L31.5518 20.2767L40.8952 25.9768L51.933 32.7807Z" fill="#135EAB"/>
</svg>
