<svg width="62" height="63" viewBox="0 0 62 63" fill="none" xmlns="http://www.w3.org/2000/svg">
<path d="M16 20.6758V22.7768C13.721 23.2418 12 25.2608 12 27.6758C12 30.4328 14.243 32.6758 17 32.6758C18.654 32.6758 20 34.0218 20 35.6758C20 37.3298 18.654 38.6758 17 38.6758H14V35.6758H12V40.6758H16V42.6758H18V40.5748C20.279 40.1098 22 38.0908 22 35.6758C22 32.9188 19.757 30.6758 17 30.6758C15.346 30.6758 14 29.3298 14 27.6758C14 26.0218 15.346 24.6758 17 24.6758H20V27.6758H22V22.6758H18V20.6758H16Z" fill="#135EAB"/>
<path d="M59.0004 36.6758C60.6544 36.6758 62.0004 35.3298 62.0004 33.6758C62.0004 32.3738 61.1614 31.2738 60.0004 30.8598V23.6758C60.0004 19.0508 56.4934 15.2338 52.0004 14.7348V4.67578C52.0004 2.46978 50.2064 0.675781 48.0004 0.675781H41.0004C38.7944 0.675781 37.0004 2.46978 37.0004 4.67578V14.6758C37.0004 15.7788 36.1034 16.6758 35.0004 16.6758C33.8974 16.6758 33.0004 15.7788 33.0004 14.6758V7.67578C33.0004 5.46978 31.2064 3.67578 29.0004 3.67578H20.0004C17.7944 3.67578 16.0004 5.46978 16.0004 7.67578V14.7118C7.4804 15.2078 0.479405 22.2118 0.0254054 30.7508C-0.201595 35.0098 1.15941 39.1618 3.85841 42.4438C4.4594 43.1738 4.99741 43.9488 5.48141 44.7518C4.63041 44.9828 4.00041 45.7538 4.00041 46.6758V48.6758C4.00041 49.7788 4.89741 50.6758 6.00041 50.6758V52.6758C6.00041 53.7788 6.89741 54.6758 8.00041 54.6758H8.05941C8.55941 59.1688 12.3764 62.6758 17.0004 62.6758C21.6244 62.6758 25.4424 59.1688 25.9414 54.6758H26.0004C27.1034 54.6758 28.0004 53.7788 28.0004 52.6758V50.6758C29.1034 50.6758 30.0004 49.7788 30.0004 48.6758V46.6758C30.0004 45.7308 29.3404 44.9418 28.4574 44.7338C28.8844 44.0388 29.3424 43.3758 29.8564 42.7838C32.5284 39.6998 34.0004 35.7558 34.0004 31.6758C34.0004 26.9848 32.1304 22.6158 28.7354 19.3758C25.7824 16.5568 22.0294 14.9378 18.0004 14.7068V7.67578C18.0004 6.57278 18.8974 5.67578 20.0004 5.67578H29.0004C30.1034 5.67578 31.0004 6.57278 31.0004 7.67578V14.6758C31.0004 16.8818 32.7944 18.6758 35.0004 18.6758C37.2064 18.6758 39.0004 16.8818 39.0004 14.6758V4.67578C39.0004 3.57278 39.8974 2.67578 41.0004 2.67578H48.0004C49.1034 2.67578 50.0004 3.57278 50.0004 4.67578V14.7348C45.5074 15.2338 42.0004 19.0508 42.0004 23.6758V30.8598C40.8394 31.2738 40.0004 32.3738 40.0004 33.6758C40.0004 35.3298 41.3464 36.6758 43.0004 36.6758H46.6744L42.6744 50.6758H48.7194L46.5124 59.5018C46.3204 60.2708 46.4894 61.0678 46.9764 61.6928C47.4644 62.3178 48.1984 62.6758 48.9904 62.6758C49.9984 62.6758 50.9144 62.0798 51.3234 61.1588L59.5394 42.6758H54.4434L56.6934 36.6758H59.0004ZM17.0004 60.6758C13.4814 60.6758 10.5684 58.0618 10.0804 54.6758H23.9204C23.4324 58.0618 20.5194 60.6758 17.0004 60.6758ZM26.0014 52.6758H8.00041V50.6758H26.0004L26.0014 52.6758ZM26.0004 48.6758H8.00041H6.00041V46.6758H28.0004L28.0014 48.6758H26.0004ZM32.0004 31.6758C32.0004 35.2748 30.7024 38.7538 28.3454 41.4728C27.5194 42.4258 26.7954 43.5048 26.1734 44.6758H7.73341C7.07641 43.4418 6.29941 42.2638 5.40241 41.1738C3.02241 38.2788 1.82141 34.6148 2.02141 30.8568C2.42441 23.2698 8.68841 17.0468 16.2794 16.6928C20.4304 16.4908 24.3604 17.9658 27.3544 20.8228C30.3504 23.6818 32.0004 27.5358 32.0004 31.6758ZM51.0004 16.6758C54.8604 16.6758 58.0004 19.8168 58.0004 23.6758V30.6758H44.0004V23.6758C44.0004 19.8168 47.1404 16.6758 51.0004 16.6758ZM42.0004 33.6758C42.0004 33.1238 42.4494 32.6758 43.0004 32.6758H59.0004C59.5514 32.6758 60.0004 33.1238 60.0004 33.6758C60.0004 34.2278 59.5514 34.6758 59.0004 34.6758H43.0004C42.4494 34.6758 42.0004 34.2278 42.0004 33.6758ZM51.5574 44.6758H56.4614L49.4964 60.3468C49.4084 60.5468 49.2094 60.6758 48.9904 60.6758C48.7554 60.6758 48.6154 60.5418 48.5534 60.4628C48.4914 60.3828 48.3954 60.2158 48.4524 59.9868L51.2814 48.6758H45.3264L48.7544 36.6758H54.5574L51.5574 44.6758Z" fill="#135EAB"/>
<path d="M3.99707 31.6753C3.99707 33.1613 4.24607 34.6193 4.73707 36.0083L6.62307 35.3423C6.20707 34.1673 5.99707 32.9343 5.99707 31.6753C5.99707 28.5503 7.33307 25.5623 9.66407 23.4763L8.33007 21.9863C5.57707 24.4503 3.99707 27.9823 3.99707 31.6753Z" fill="#135EAB"/>
<path d="M5.73926 38.1768C6.18526 38.9478 6.71426 39.6768 7.31026 40.3428L8.80026 39.0088C8.29526 38.4448 7.84826 37.8278 7.47026 37.1748L5.73926 38.1768Z" fill="#135EAB"/>
</svg>
