<svg width="64" height="64" viewBox="0 0 64 64" fill="none" xmlns="http://www.w3.org/2000/svg">
<path d="M20.0359 45.3154L22.9946 38.4118C23.1637 38.0072 23.0633 37.54 22.7429 37.2406C22.4224 36.9412 21.9495 36.8727 21.5572 37.0689L11.0654 42.3148C10.8079 42.4439 10.6147 42.6733 10.5314 42.9492C10.4481 43.225 10.4818 43.5229 10.6248 43.7731L13.8667 49.3757L9.67001 55.2197C9.45711 55.5337 9.43035 55.9383 9.60003 56.2776C9.76971 56.617 10.1094 56.8383 10.4884 56.8564C10.7612 56.8564 9.82739 57.1712 22.3861 52.5967C22.6676 52.494 22.8918 52.2758 23.0021 51.9971C23.1123 51.7185 23.0982 51.4059 22.9631 51.1384L20.0359 45.3154ZM13.3421 53.7089L15.9651 50.0787C16.1911 49.731 16.1911 49.2828 15.9651 48.9351L12.9539 43.6892L19.931 40.1954L17.9061 44.9062C17.7767 45.1858 17.7767 45.508 17.9061 45.7876L20.5185 51.0335L13.3421 53.7089Z" fill="#135EAB"/>
<path d="M60.8478 0.200195H54.5527C52.8144 0.200195 51.4052 1.6094 51.4052 3.34774V17.1759C50.6288 16.9031 50.8596 16.9871 44.0609 16.9871C42.3226 16.9871 40.9134 18.3963 40.9134 20.1346V35.012C40.137 34.7392 40.3678 34.8231 33.5691 34.8231C31.8308 34.8231 30.4215 36.2323 30.4215 37.9707V39.5969C27.1414 33.8191 20.5861 30.7236 14.0402 31.8615C7.49437 32.9994 2.36826 38.1255 1.23037 44.6713C0.0924812 51.2172 3.18796 57.7725 8.96581 61.0527H2.09368C1.51423 61.0527 1.0445 61.5224 1.0445 62.1018C1.0445 62.6813 1.51423 63.151 2.09368 63.151H62.9461C63.5256 63.151 63.9953 62.6813 63.9953 62.1018V3.34774C63.9953 1.6094 62.5861 0.200195 60.8478 0.200195ZM43.0117 30.6264H51.4052V44.2658H43.0117V30.6264ZM53.5035 18.0363H61.897V36.9215H53.5035V18.0363ZM54.5527 2.29856H60.8478C61.4272 2.29856 61.897 2.76829 61.897 3.34774V15.9379H53.5035V3.34774C53.5035 2.76829 53.9733 2.29856 54.5527 2.29856ZM44.0609 19.0854H50.356C50.9354 19.0854 51.4052 19.5552 51.4052 20.1346V28.5281H43.0117V20.1346C43.0117 19.5552 43.4814 19.0854 44.0609 19.0854ZM32.5199 37.9707C32.5199 37.3912 32.9896 36.9215 33.5691 36.9215H39.8642C40.4436 36.9215 40.9134 37.3912 40.9134 37.9707V53.7084H32.5199V37.9707ZM3.14286 47.4133C3.14286 39.8805 9.2494 33.774 16.7822 33.774C24.315 33.774 30.4215 39.8805 30.4215 47.4133C30.4215 54.9461 24.315 61.0527 16.7822 61.0527C13.1648 61.0527 9.6956 59.6157 7.13773 57.0578C4.57986 54.4999 3.14286 51.0307 3.14286 47.4133ZM30.4215 55.2297V61.0527H24.5986C27.0195 59.6597 29.0286 57.6506 30.4215 55.2297ZM32.5199 55.8068H40.9134V61.0527H32.5199V55.8068ZM43.0117 46.3641H51.4052V61.0527H43.0117V46.3641ZM53.5035 61.0527V39.0199H61.897V61.0527H53.5035Z" fill="#135EAB"/>
<path d="M16.7845 26.4299C17.0258 26.4299 40.3177 26.1467 41.8704 3.63124L45.4167 7.18796C45.8281 7.59937 46.4951 7.59937 46.9065 7.18796C47.3179 6.77655 47.3179 6.10953 46.9065 5.69812L41.6606 0.504682C41.4636 0.306059 41.1954 0.194336 40.9157 0.194336C40.6359 0.194336 40.3678 0.306059 40.1708 0.504682L34.9249 5.75058C34.5135 6.16199 34.5135 6.82901 34.9249 7.24042C35.3363 7.65183 36.0033 7.65183 36.4147 7.24042L39.6462 4.00894C38.0619 24.0483 17.6763 24.3316 16.7845 24.3316C16.2051 24.3316 15.7354 24.8013 15.7354 25.3807C15.7354 25.9602 16.2051 26.4299 16.7845 26.4299Z" fill="#135EAB"/>
</svg>
