<svg width="65" height="65" viewBox="0 0 65 65" fill="none" xmlns="http://www.w3.org/2000/svg">
<path d="M9.64117 36.9416C10.3796 36.9452 11.0963 36.6914 11.6678 36.2237L21.1609 28.5631C21.6813 29.055 22.3518 29.3578 23.0649 29.4228C23.162 29.4303 23.259 29.4356 23.355 29.4356C24.1323 29.436 24.8832 29.154 25.4681 28.642L26.4152 27.8207L26.8248 28.338C26.4601 29.0765 26.5514 29.9586 27.0595 30.6068L28.1144 31.9401C28.4639 32.3854 28.9779 32.6714 29.5405 32.7337C29.6209 32.7421 29.7018 32.7464 29.7826 32.7465C30.2641 32.7472 30.7311 32.5822 31.1053 32.2793L39.7387 25.3461C40.6476 24.6094 40.7972 23.2797 40.0747 22.3595L39.0209 21.0262C38.5514 20.4159 37.7808 20.1184 37.023 20.255L28.3501 9.28028C28.6786 8.55532 28.5762 7.70778 28.0845 7.08192L27.0307 5.74861C26.6802 5.3067 26.1682 5.02252 25.6078 4.95887C25.0474 4.89522 24.4847 5.05735 24.0441 5.40942L15.4107 12.3426C14.4991 13.08 14.349 14.4128 15.0736 15.3346L16.1232 16.6753C16.4734 17.1207 16.9882 17.4064 17.5514 17.4678C17.6311 17.4769 17.7112 17.4811 17.7914 17.4806C17.9287 17.4796 18.0655 17.4649 18.1999 17.4369L18.7813 18.1718L17.6463 19.0881C16.2906 20.1737 16.034 22.1362 17.065 23.5339L7.61454 31.155C6.22726 32.283 6.00301 34.316 7.11108 35.7192C7.72149 36.4942 8.65467 36.9451 9.64117 36.9416ZM29.789 30.6164L28.7341 29.2777L34.2807 24.8256L37.3516 22.3595L37.3633 22.3509L38.4054 23.6789L29.789 30.6164ZM28.3619 26.8405L27.3677 25.584L21.1215 17.6908C21.1151 17.6833 21.114 17.6737 21.1076 17.6662C21.1012 17.6588 21.0937 17.6566 21.0884 17.6492L20.0143 16.2924L26.8408 10.8109L35.1884 21.3632L28.3619 26.8405ZM25.3646 7.08085L26.4131 8.40989L26.3395 8.46962L17.8522 15.2887C17.8373 15.3015 17.8298 15.3207 17.8159 15.3335L17.7967 15.3484L16.7397 14.0087L25.3646 7.08085ZM18.9828 20.7478L20.105 19.8422L25.0926 26.1461L24.0729 27.0303C23.8482 27.2267 23.5532 27.323 23.2559 27.2971C22.9586 27.2711 22.6847 27.1251 22.4974 26.8927L18.8175 22.3285C18.6272 22.0942 18.5389 21.7934 18.5722 21.4934C18.6039 21.1999 18.7518 20.9314 18.9828 20.7478ZM8.95638 32.8115L18.393 25.201L19.7892 26.9311L10.3249 34.5672C10.1321 34.725 9.89023 34.8102 9.64117 34.8083C9.3076 34.8074 8.99297 34.6532 8.78785 34.3902C8.40156 33.907 8.47626 33.2029 8.95531 32.8115H8.95638Z" fill="#135EAB"/>
<path d="M7.47094 42.2749H32.0038C32.5929 42.2749 33.0704 41.7973 33.0704 41.2082C33.0704 40.6192 32.5929 40.1416 32.0038 40.1416H7.47094C6.88185 40.1416 6.4043 40.6192 6.4043 41.2082C6.4043 41.7973 6.88185 42.2749 7.47094 42.2749Z" fill="#135EAB"/>
<path d="M7.47094 47.6079H26.6706C27.2597 47.6079 27.7372 47.1303 27.7372 46.5412C27.7372 45.9522 27.2597 45.4746 26.6706 45.4746H7.47094C6.88185 45.4746 6.4043 45.9522 6.4043 46.5412C6.4043 47.1303 6.88185 47.6079 7.47094 47.6079Z" fill="#135EAB"/>
<path d="M7.47094 52.9419H23.4706C24.0597 52.9419 24.5373 52.4643 24.5373 51.8752C24.5373 51.2861 24.0597 50.8086 23.4706 50.8086H7.47094C6.88185 50.8086 6.4043 51.2861 6.4043 51.8752C6.4043 52.4643 6.88185 52.9419 7.47094 52.9419Z" fill="#135EAB"/>
<path d="M61.2559 22.8727C59.5656 21.2158 56.8556 21.2316 55.1846 22.9079L49.941 28.1536L46.9373 31.1594V3.87572C46.9373 2.10844 45.5046 0.675781 43.7373 0.675781H8.53805C8.25518 0.675842 7.98392 0.78826 7.78393 0.988308L0.31741 8.45483C0.117361 8.65481 0.00494323 8.92608 0.00488281 9.20894V61.4746C0.00488281 63.2418 1.43754 64.6745 3.20482 64.6745H43.7373C45.5046 64.6745 46.9373 63.2418 46.9373 61.4746V46.2354L57.464 35.7087C57.4693 35.7034 57.4768 35.7023 57.4832 35.6969C57.4896 35.6916 57.4896 35.6831 57.4949 35.6777L60.4815 32.6911C60.4879 32.6911 60.4954 32.6847 60.5007 32.6783C60.5061 32.6719 60.5071 32.6655 60.5135 32.6602L62.73 30.4437C63.5398 29.6445 63.9984 28.556 64.0048 27.4183C64.0112 26.2806 63.5649 25.1871 62.7642 24.3788L61.2559 22.8727ZM56.7259 33.4325L54.4667 31.1744L52.2044 28.912L53.7126 27.4027L58.2352 31.9253L56.7259 33.4325ZM37.1156 53.0406L35.6106 51.5356L53.7115 33.4335L55.2176 34.9396L37.1156 53.0406ZM29.8539 56.1232C29.7578 56.1623 29.6475 56.1381 29.5766 56.0624C29.5052 55.9995 29.4769 55.9008 29.504 55.8096L31.5072 50.4487L35.1903 54.1318L29.8539 56.1232ZM50.6951 30.4171L52.2033 31.9285L34.1023 50.0273L32.5973 48.5223L50.6951 30.4171ZM7.4714 4.31731V7.07565C7.4714 7.66475 6.99385 8.1423 6.40476 8.1423H3.64641L7.4714 4.31731ZM44.804 61.4746C44.804 62.0637 44.3264 62.5412 43.7373 62.5412H3.20482C2.61573 62.5412 2.13817 62.0637 2.13817 61.4746V10.2756H6.40476C8.17203 10.2756 9.60469 8.84293 9.60469 7.07565V2.80907H43.7373C44.3264 2.80907 44.804 3.28663 44.804 3.87572V33.2938L30.6816 47.4226C30.345 47.7445 30.0873 48.1399 29.9286 48.5778L27.4955 55.0896C27.386 55.4288 27.3536 55.7881 27.4006 56.1413H7.4714C6.88231 56.1413 6.40476 56.6189 6.40476 57.208C6.40476 57.7971 6.88231 58.2746 7.4714 58.2746H29.871C30.1089 58.2472 30.3441 58.1994 30.5739 58.1317L37.0559 55.7147C37.488 55.5595 37.8788 55.3074 38.1983 54.9776L44.804 48.3687V61.4746ZM61.2303 28.9302L59.7424 30.4139L55.2187 25.8913L56.6928 24.4161C57.105 24.003 57.6645 23.7709 58.248 23.7708C58.8103 23.7685 59.3507 23.989 59.7509 24.3841L61.2517 25.8849C61.6523 26.2888 61.875 26.836 61.8703 27.4048C61.8683 27.9782 61.638 28.527 61.2303 28.9302Z" fill="#135EAB"/>
</svg>
