<svg width="64" height="65" viewBox="0 0 64 65" fill="none" xmlns="http://www.w3.org/2000/svg">
<g clip-path="url(#clip0_3231_107392)">
<path d="M13.8667 28.4091C21.525 28.4091 27.7333 22.2008 27.7333 14.5424C27.7333 6.8841 21.525 0.675781 13.8667 0.675781C6.20832 0.675781 0 6.8841 0 14.5424C0.00881709 22.1971 6.21197 28.4003 13.8667 28.4091ZM13.8667 2.80911C20.3468 2.80911 25.6 8.06231 25.6 14.5424C25.6 21.0226 20.3468 26.2758 13.8667 26.2758C7.38653 26.2758 2.13333 21.0226 2.13333 14.5424C2.14097 8.06547 7.38969 2.81676 13.8667 2.80911Z" fill="#135EAB"/>
<path d="M10.6663 15.6088H15.4482L12.8882 21.5885C12.6562 22.1299 12.9069 22.7569 13.4482 22.989C13.5801 23.0463 13.7225 23.0757 13.8663 23.0754C14.293 23.0754 14.6785 22.8211 14.8466 22.429L18.0466 14.9623C18.1879 14.6328 18.1541 14.2543 17.9568 13.955C17.7594 13.6556 17.4249 13.4755 17.0663 13.4754H12.2845L14.8445 7.49568C15.0666 6.95647 14.8145 6.33881 14.2785 6.10902C13.7425 5.87922 13.1214 6.12248 12.8839 6.65515L9.68394 14.1218C9.54253 14.4517 9.5765 14.8306 9.77436 15.1301C9.97221 15.4295 10.3074 15.6094 10.6663 15.6088Z" fill="#135EAB"/>
<path d="M63.3412 0.757915C63.2121 0.703839 63.0736 0.675922 62.9337 0.675781H55.467C54.8779 0.675781 54.4004 1.15334 54.4004 1.74245C54.4004 2.33155 54.8779 2.80911 55.467 2.80911H60.3588L4.57957 58.5883C4.30229 58.8561 4.19108 59.2527 4.2887 59.6257C4.38631 59.9986 4.67756 60.2899 5.0505 60.3875C5.42344 60.4851 5.82003 60.3739 6.08784 60.0966L61.867 4.31738V9.20912C61.867 9.79822 62.3446 10.2758 62.9337 10.2758C63.5228 10.2758 64.0004 9.79822 64.0004 9.20912V1.74245C63.9999 1.31119 63.7397 0.922657 63.3412 0.757915Z" fill="#135EAB"/>
<path d="M62.9333 62.5425H61.8667V18.8091C61.8667 17.6309 60.9115 16.6758 59.7333 16.6758H53.3333C52.1551 16.6758 51.2 17.6309 51.2 18.8091V62.5425H49.0667V31.6091C49.0667 30.4309 48.1115 29.4758 46.9333 29.4758H40.5333C39.3551 29.4758 38.4 30.4309 38.4 31.6091V62.5425H35.2V45.4758C35.2 44.2976 34.2449 43.3425 33.0667 43.3425H26.6667C25.4885 43.3425 24.5333 44.2976 24.5333 45.4758V62.5425H21.3333V59.3425C21.3333 58.1643 20.3782 57.2091 19.2 57.2091H12.8C11.6218 57.2091 10.6667 58.1643 10.6667 59.3425V62.5425H1.06667C0.477563 62.5425 0 63.02 0 63.6091C0 64.1982 0.477563 64.6758 1.06667 64.6758H62.9333C63.5224 64.6758 64 64.1982 64 63.6091C64 63.02 63.5224 62.5425 62.9333 62.5425ZM12.8 62.5425V59.3425H19.2V62.5425H12.8ZM26.6667 62.5425V45.4758H33.0667V62.5425H26.6667ZM40.5333 62.5425V31.6091H46.9333V62.5425H40.5333ZM53.3333 62.5425V18.8091H59.7333V62.5425H53.3333Z" fill="#135EAB"/>
</g>
<defs>
<clipPath id="clip0_3231_107392">
<rect width="64" height="64" fill="white" transform="translate(0 0.675781)"/>
</clipPath>
</defs>
</svg>
