<svg width="64" height="65" viewBox="0 0 64 65" fill="none" xmlns="http://www.w3.org/2000/svg">
<g clip-path="url(#clip0_3231_107442)">
<path d="M54.6935 16.4158L48.1275 8.58703C47.9493 8.37466 47.6865 8.25203 47.4092 8.25203C47.132 8.25203 46.8691 8.37466 46.691 8.58703L40.1248 16.4158C39.8907 16.6949 39.8395 17.0844 39.9935 17.4145C40.1473 17.7447 40.4788 17.9558 40.8431 17.9558H42.6836V25.7304C41.2217 24.6697 39.6203 23.8369 37.9038 23.2487C37.7961 23.2118 37.717 23.1157 37.6975 22.9979L36.893 18.1718C36.8612 17.9817 36.8052 17.8013 36.7298 17.6325V10.3795H38.5703C38.9346 10.3795 39.266 10.1685 39.42 9.83828C39.574 9.50816 39.5227 9.11866 39.2886 8.83953L32.7223 1.01078C32.5442 0.798406 32.2813 0.675781 32.0041 0.675781C31.7268 0.675781 31.464 0.798406 31.2858 1.01078L24.7198 8.83953C24.4857 9.11866 24.4345 9.50816 24.5885 9.83828C24.7423 10.1684 25.0738 10.3795 25.4381 10.3795H27.2786V17.6324C27.2032 17.8013 27.1471 17.9817 27.1153 18.1719L26.311 22.9979C26.2915 23.1157 26.2123 23.2117 26.1046 23.2487C24.3881 23.8369 22.7867 24.6697 21.3248 25.7304V17.9558H23.1653C23.5296 17.9558 23.861 17.7448 24.015 17.4145C24.169 17.0844 24.1177 16.6949 23.8836 16.4158L17.3175 8.58703C17.1393 8.37466 16.8765 8.25203 16.5992 8.25203C16.322 8.25203 16.0591 8.37466 15.881 8.58703L9.31496 16.4158C9.08083 16.6949 9.02958 17.0844 9.18358 17.4145C9.33746 17.7447 9.66896 17.9558 10.0332 17.9558H11.8737V18.8968C11.8737 19.4145 12.2933 19.8343 12.8112 19.8343C13.3291 19.8343 13.7487 19.4145 13.7487 18.8968V17.0183C13.7487 16.5005 13.3291 16.0808 12.8112 16.0808H12.0431L16.5992 10.6484L21.1555 16.0808H20.3873C19.8695 16.0808 19.4498 16.5005 19.4498 17.0183V26.7312L15.1078 25.1044C14.6568 24.9354 14.1832 24.923 13.7486 25.0432V23.2774C13.7486 22.7597 13.329 22.3399 12.8111 22.3399C12.2932 22.3399 11.8736 22.7597 11.8736 23.2774V27.0292L9.71208 30.773C9.17221 31.7083 9.38546 32.8854 10.2192 33.5718L13.9961 36.681C14.088 36.7567 14.1301 36.881 14.106 37.005C13.8815 38.153 13.7677 39.3304 13.7677 40.5044C13.7677 41.6784 13.8815 42.8558 14.1058 44.0035C14.1301 44.1279 14.088 44.2522 13.9961 44.3278L10.2191 47.4372C9.38533 48.1235 9.17208 49.3005 9.71196 50.2359L12.4303 54.9445C12.9705 55.8797 14.0965 56.2832 15.1077 55.9047L19.6981 54.1849C19.8098 54.1432 19.9383 54.1687 20.0336 54.2517C21.825 55.8133 23.8676 56.9938 26.1046 57.7604C26.2123 57.7973 26.2915 57.8934 26.311 58.0112L27.1155 62.8373C27.2931 63.9025 28.206 64.6757 29.2857 64.6757H34.7225C35.8023 64.6757 36.7151 63.9025 36.8928 62.8372L37.6972 58.011C37.7167 57.8934 37.7958 57.7973 37.9036 57.7604C40.1406 56.9938 42.1832 55.8133 43.9746 54.2517C44.0698 54.1687 44.1986 54.1432 44.3101 54.1849L48.9005 55.9047C49.9115 56.2833 51.0376 55.8797 51.5778 54.9444L54.2962 50.2359C54.8361 49.3007 54.6228 48.1237 53.7891 47.4372L50.0122 44.3279C49.9203 44.2523 49.8782 44.1279 49.9023 44.0039C50.1268 42.8559 50.2406 41.6785 50.2406 40.5045C50.2406 39.3305 50.1268 38.1532 49.9025 37.0054C49.8782 36.881 49.9203 36.7568 50.0122 36.6812L53.7891 33.5719C54.6228 32.8855 54.8361 31.7085 54.2962 30.7732L52.1347 27.0292V23.2774C52.1347 22.7597 51.7151 22.3399 51.1972 22.3399C50.6793 22.3399 50.2597 22.7597 50.2597 23.2774V25.0433C49.8251 24.923 49.3513 24.9354 48.9005 25.1044L44.5585 26.7312V17.0183C44.5585 16.5005 44.1388 16.0808 43.621 16.0808H42.8528L47.4091 10.6484L51.9652 16.0808H51.1971C50.6792 16.0808 50.2596 16.5005 50.2596 17.0183V18.8968C50.2596 19.4145 50.6792 19.8343 51.1971 19.8343C51.715 19.8343 52.1346 19.4145 52.1346 18.8968V17.9558H53.9751C54.3393 17.9558 54.6707 17.7448 54.8247 17.4145C54.9788 17.0844 54.9276 16.6949 54.6935 16.4158ZM32.0041 3.07216L36.5602 8.50453H35.7921C35.2742 8.50453 34.8546 8.92428 34.8546 9.44203V16.3393H29.1535V9.44203C29.1535 8.92428 28.7338 8.50453 28.216 8.50453H27.4478L32.0041 3.07216ZM49.5582 26.8603C49.708 26.8044 49.8742 26.864 49.9541 27.0022L52.6725 31.7105C52.7523 31.8488 52.7207 32.0229 52.5975 32.1243L48.8206 35.2335C48.1965 35.7473 47.906 36.5639 48.0623 37.3649C48.2636 38.3947 48.3657 39.4509 48.3657 40.5045C48.3657 41.558 48.2637 42.6144 48.0622 43.6444C47.906 44.4452 48.1965 45.2618 48.8206 45.7755L52.5975 48.8847C52.7206 48.9862 52.7522 49.1602 52.6725 49.2984L49.9541 54.0068C49.8742 54.145 49.7077 54.2048 49.5582 54.1488L44.9678 52.429C44.2103 52.1454 43.3577 52.302 42.7425 52.8383C41.1348 54.2398 39.3023 55.299 37.2957 55.9868C36.5355 56.2473 35.9806 56.905 35.8476 57.7029L35.0433 62.5288C35.017 62.6863 34.8821 62.8007 34.7225 62.8007H29.2857C29.1261 62.8007 28.9912 62.6863 28.965 62.5289L28.1606 57.7029C28.0276 56.9049 27.4727 56.2473 26.7125 55.9868C24.7058 55.2992 22.8733 54.2398 21.2657 52.8383C20.8532 52.4788 20.3342 52.2898 19.8085 52.2898C19.5501 52.2898 19.2901 52.3354 19.0403 52.4289L14.45 54.1487C14.3006 54.2047 14.1341 54.145 14.0541 54.0068L11.3357 49.2984C11.2558 49.1602 11.2875 48.9862 11.4107 48.8847L15.1876 45.7754C15.8117 45.2617 16.1022 44.445 15.9458 43.644C15.7446 42.6143 15.6425 41.5579 15.6425 40.5044C15.6425 39.4508 15.7445 38.3945 15.946 37.3645C16.1022 36.5638 15.8117 35.7472 15.1876 35.2334L11.4107 32.1243C11.2876 32.0228 11.256 31.8488 11.3357 31.7105L14.0541 27.0022C14.134 26.8638 14.3003 26.804 14.45 26.8602L19.0403 28.5799C19.7978 28.8637 20.6505 28.7068 21.2657 28.1707C22.8733 26.7692 24.7058 25.7099 26.7125 25.0222C27.4727 24.7617 28.0276 24.1039 28.1606 23.306L28.9648 18.4802C28.9912 18.3227 29.1261 18.2083 29.2857 18.2083H34.7225C34.8821 18.2083 35.017 18.3227 35.0432 18.48L35.8476 23.306C35.9806 24.104 36.5355 24.7618 37.2957 25.0223C39.3023 25.7099 41.1348 26.7693 42.7425 28.1708C43.3576 28.7069 44.2102 28.8638 44.9678 28.58L49.5582 26.8603Z" fill="#135EAB"/>
<path d="M32.008 27.3193C28.113 27.3193 24.4376 29.0286 21.9241 32.0087C21.5904 32.4046 21.6405 32.996 22.0364 33.3298C22.4321 33.6638 23.0236 33.6133 23.3574 33.2176C25.5138 30.6607 28.6668 29.1943 32.0079 29.1943C38.2446 29.1943 43.3185 34.2683 43.3185 40.505C43.3185 46.7417 38.2445 51.8157 32.0079 51.8157C25.7713 51.8157 20.6973 46.7417 20.6973 40.505C20.6973 39.1988 20.9176 37.9192 21.3523 36.7017C21.5264 36.2141 21.2721 35.6777 20.7845 35.5036C20.2973 35.3298 19.7606 35.5837 19.5864 36.0713C19.0793 37.4917 18.8223 38.9833 18.8223 40.505C18.8223 47.7756 24.7373 53.6907 32.0079 53.6907C39.2785 53.6907 45.1935 47.7756 45.1935 40.505C45.1935 33.2343 39.2786 27.3193 32.008 27.3193Z" fill="#135EAB"/>
<path d="M32.2307 31.3839C31.8067 31.2852 31.37 31.4912 31.177 31.8818L26.1262 42.1097C25.9827 42.4003 25.9995 42.7444 26.1705 43.0197C26.3415 43.2949 26.6426 43.4623 26.9667 43.4623H31.08V48.712C31.08 49.1477 31.3801 49.5259 31.8043 49.625C31.8755 49.6417 31.9471 49.6497 32.0177 49.6497C32.3682 49.6497 32.6975 49.4522 32.8581 49.1272L37.909 38.8993C38.0525 38.6087 38.0357 38.2645 37.8647 37.9894C37.6937 37.7142 37.3926 37.5467 37.0685 37.5467H32.9551V32.2969C32.9551 31.8612 32.6548 31.4829 32.2307 31.3839ZM35.56 39.4215L32.9551 44.6963V42.5247C32.9551 42.0069 32.5355 41.5872 32.0176 41.5872H28.4753L31.0801 36.3125V38.484C31.0801 39.0018 31.4997 39.4215 32.0176 39.4215H35.56Z" fill="#135EAB"/>
</g>
<defs>
<clipPath id="clip0_3231_107442">
<rect width="64" height="64" fill="white" transform="translate(0.000976562 0.675781)"/>
</clipPath>
</defs>
</svg>
