<svg width="20" height="25" viewBox="0 0 20 25" fill="none" xmlns="http://www.w3.org/2000/svg">
<path d="M3.94203 24.0049C3.57764 23.8824 3.24841 23.7129 3.03425 23.3737C2.78493 22.9812 2.84566 22.5478 2.83607 22.1208C2.83607 22.0642 2.86164 22.036 2.92238 22.036C2.9863 22.036 3.05023 22.036 3.11416 22.036C7.30465 22.036 11.4951 22.036 15.6824 22.036C16.5966 22.036 17.2902 21.6686 17.7186 20.8647C17.9008 20.5255 17.9359 20.1519 17.9359 19.775C17.9327 14.1823 17.9359 8.58961 17.9295 2.9969C17.9295 2.77394 17.9743 2.69544 18.2108 2.71742C18.5081 2.74568 18.8149 2.6923 19.1058 2.80534C19.614 3.00632 19.9145 3.36116 19.9784 3.90128C19.9912 4.01746 19.9976 4.13365 19.9976 4.25298C19.9976 10.3293 19.9976 16.4056 20.0008 22.4819C20.0008 23.0942 19.8058 23.581 19.2241 23.8667C19.1122 23.9201 18.9907 23.9578 18.8725 24.0018C13.8956 24.0049 8.91884 24.0049 3.94203 24.0049Z" fill="#135EAB"/>
<path d="M17.1647 10.6516C17.1647 7.58989 17.1647 4.52818 17.1647 1.46648C17.1647 0.549537 16.6149 0.00628042 15.688 0.00628042C12.5939 0.00628042 9.50292 0.00628042 6.4088 0C6.22341 0 6.17546 0.0439629 6.17866 0.226095C6.18825 1.523 6.18505 2.81991 6.18825 4.11682C6.18825 4.55645 6.08277 4.96467 5.80788 5.32266C5.39234 5.86591 4.82338 6.08573 4.15213 6.08573C2.848 6.08573 1.54387 6.08573 0.239731 6.07631C0.0575354 6.07631 0 6.11713 0 6.30554C0.00639282 10.8055 0.00319641 15.3054 0.00639282 19.8022C0.00639282 19.9655 0.0127856 20.1319 0.054339 20.2889C0.220552 20.9264 0.741567 21.2812 1.48633 21.2843C6.20103 21.2843 10.9157 21.2749 15.6304 21.2938C16.5063 21.2969 17.1839 20.7379 17.1743 19.7645C17.1455 16.731 17.1647 13.6913 17.1647 10.6516ZM4.03706 8.95274C4.12337 8.94018 4.20967 8.93704 4.29917 8.93704C7.33576 8.93704 10.3723 8.93704 13.4121 8.9339C13.6583 8.9339 13.8884 8.96216 14.0578 9.16313C14.2176 9.35469 14.2624 9.57136 14.1601 9.79746C14.0514 10.033 13.8628 10.1806 13.5847 10.1806C12.9646 10.1837 12.3445 10.1837 11.7244 10.1837H8.83807C7.2974 10.1837 5.75354 10.1837 4.20967 10.1837C3.79094 10.1837 3.50326 9.91992 3.50966 9.55252C3.50966 9.26048 3.7398 8.9967 4.03706 8.95274ZM8.8093 16.7844C8.02299 16.7907 7.23667 16.7844 6.45035 16.7844C5.71198 16.7844 4.97361 16.7844 4.23205 16.7844C3.79733 16.7844 3.50326 16.5206 3.50966 16.147C3.51605 15.7858 3.81012 15.5315 4.22885 15.5283C4.9832 15.5252 5.73755 15.5283 6.4951 15.5283C7.26544 15.5283 8.03577 15.5252 8.80611 15.5283C9.1673 15.5315 9.439 15.7513 9.48374 16.0622C9.53808 16.4641 9.25041 16.7813 8.8093 16.7844ZM14.0482 13.3679C13.882 13.5531 13.6646 13.5908 13.4217 13.5908C11.1171 13.5877 8.8157 13.5877 6.51109 13.5877C5.74714 13.5877 4.9864 13.5908 4.22246 13.5877C3.84208 13.5846 3.5576 13.3679 3.50966 13.057C3.44893 12.6645 3.75258 12.3316 4.1841 12.3316C5.45627 12.3285 6.72524 12.3316 7.99742 12.3316C8.29148 12.3316 8.58555 12.3316 8.87962 12.3316C10.4299 12.3316 11.9769 12.3316 13.5272 12.3316C13.8309 12.3316 14.045 12.4698 14.1633 12.7336C14.2624 12.9628 14.2144 13.1826 14.0482 13.3679Z" fill="#135EAB"/>
<path d="M5.41673 2.43857C5.41673 3.00067 5.41992 3.56277 5.41673 4.12486C5.41353 4.86281 4.95325 5.32756 4.20209 5.33384C3.03221 5.34326 1.86552 5.33698 0.69563 5.33698C0.414346 5.33698 0.177812 5.25534 0.0659378 4.97586C-0.0427401 4.70266 0.0691342 4.49541 0.264115 4.30386C1.62898 2.95985 2.99704 1.61898 4.35872 0.274969C4.56009 0.0771357 4.79023 -0.0359117 5.06192 0.0771358C5.33362 0.190183 5.42312 0.419418 5.41992 0.705177C5.41033 1.28298 5.41673 1.86077 5.41673 2.43857Z" fill="#135EAB"/>
</svg>
