<svg width="64" height="65" viewBox="0 0 64 65" fill="none" xmlns="http://www.w3.org/2000/svg">
<path d="M53.9922 21.6758C58.9552 21.6758 62.9922 17.6388 62.9922 12.6758V11.6758H57.9922C55.1662 11.6758 52.6432 12.9878 50.9922 15.0308V10.6758C50.9922 5.71281 46.9552 1.6758 41.9922 1.6758C37.0292 1.6758 32.9922 5.71281 32.9922 10.6758V54.6758C32.9922 58.5348 29.8512 61.6758 25.9922 61.6758H23.9922C20.1332 61.6758 16.9922 58.5348 16.9922 54.6758V51.6068C20.9322 51.1118 23.9922 47.7478 23.9922 43.6758V41.4918C25.1532 41.0778 25.9922 39.9778 25.9922 38.6758C25.9922 37.3738 25.1532 36.2738 23.9922 35.8598V29.3418C28.1912 26.6808 30.9922 22.0038 30.9922 16.6748C30.9922 8.40381 24.2632 1.6748 15.9922 1.6748C7.72119 1.6748 0.992188 8.40481 0.992188 16.6758C0.992188 22.0048 3.79319 26.6808 7.99219 29.3428V35.8608C6.83119 36.2738 5.99219 37.3738 5.99219 38.6758C5.99219 39.9778 6.83119 41.0778 7.99219 41.4918V43.6758C7.99219 47.7478 11.0522 51.1118 14.9922 51.6068V54.6758C14.9922 59.6388 19.0292 63.6758 23.9922 63.6758H25.9922C30.9552 63.6758 34.9922 59.6388 34.9922 54.6758V10.6758C34.9922 6.81681 38.1332 3.6758 41.9922 3.6758C45.8512 3.6758 48.9922 6.81681 48.9922 10.6758V15.7868C47.7202 14.4858 45.9502 13.6758 43.9922 13.6758H38.9922V14.6758C38.9922 18.5348 42.1332 21.6758 45.9922 21.6758H48.9922V27.7868C47.7202 26.4858 45.9502 25.6758 43.9922 25.6758H38.9922V26.6758C38.9922 30.5348 42.1332 33.6758 45.9922 33.6758H48.9922V34.6758V35.6758V37.6758H46.2382L41.6662 53.6758H47.6482L45.6252 60.4188C45.3932 61.1918 45.5362 62.0078 46.0182 62.6558C46.5002 63.3028 47.2402 63.6758 48.0472 63.6758C49.0122 63.6758 49.8792 63.1408 50.3102 62.2788L58.6102 45.6758H53.2732L55.2732 37.6758H50.9922V35.6758H53.9922C58.9552 35.6758 62.9922 31.6388 62.9922 26.6758V25.6758H57.9922C55.1662 25.6758 52.6432 26.9878 50.9922 29.0308V21.6758H53.9922ZM21.9922 35.6758H19.9922V31.1178C20.6792 30.9268 21.3482 30.6968 21.9922 30.4148V35.6758ZM15.9922 31.6758C16.6722 31.6758 17.3362 31.6148 17.9922 31.5268V35.6758H13.9922V31.5268C14.6482 31.6148 15.3122 31.6758 15.9922 31.6758ZM28.6292 13.6758H23.9922C23.4402 13.6758 22.9922 13.2278 22.9922 12.6758C22.9922 11.0218 21.6462 9.67581 19.9922 9.67581H16.9922C16.4402 9.67581 15.9922 9.22781 15.9922 8.67581C15.9922 8.12381 16.4402 7.67581 16.9922 7.67581H25.3512C26.9342 9.32181 28.0832 11.3818 28.6292 13.6758ZM15.9922 3.6758C18.5272 3.6758 20.8862 4.4158 22.8882 5.67581H16.9922C15.3382 5.67581 13.9922 7.02181 13.9922 8.67581C13.9922 10.3298 15.3382 11.6758 16.9922 11.6758H19.9922C20.5442 11.6758 20.9922 12.1238 20.9922 12.6758C20.9922 14.3298 22.3382 15.6758 23.9922 15.6758H28.9412C28.9672 16.0068 28.9922 16.3378 28.9922 16.6758C28.9922 23.8438 23.1602 29.6758 15.9922 29.6758C13.4572 29.6758 11.0982 28.9358 9.09619 27.6758H17.9922C19.6462 27.6758 20.9922 26.3298 20.9922 24.6758C20.9922 23.0218 19.6462 21.6758 17.9922 21.6758H9.99219C9.44019 21.6758 8.99219 21.2278 8.99219 20.6758C8.99219 20.1238 9.44019 19.6758 9.99219 19.6758H11.9922C13.6462 19.6758 14.9922 18.3298 14.9922 16.6758C14.9922 15.0218 13.6462 13.6758 11.9922 13.6758H3.99319C3.76719 13.6758 3.54819 13.7058 3.33619 13.7528C4.66719 7.98981 9.83019 3.6758 15.9922 3.6758ZM2.99219 16.6758C2.99219 16.6518 2.99519 16.6288 2.99619 16.6048C3.00819 16.0908 3.45019 15.6758 3.99319 15.6758H11.9922C12.5442 15.6758 12.9922 16.1238 12.9922 16.6758C12.9922 17.2278 12.5442 17.6758 11.9922 17.6758H9.99219C8.33819 17.6758 6.99219 19.0218 6.99219 20.6758C6.99219 22.3298 8.33819 23.6758 9.99219 23.6758H17.9922C18.5442 23.6758 18.9922 24.1238 18.9922 24.6758C18.9922 25.2278 18.5442 25.6758 17.9922 25.6758H6.63319C4.38419 23.3378 2.99219 20.1688 2.99219 16.6758ZM11.9922 31.1178V35.6758H9.99219V30.4148C10.6362 30.6968 11.3052 30.9268 11.9922 31.1178ZM8.99219 37.6758H22.9922C23.5442 37.6758 23.9922 38.1238 23.9922 38.6758C23.9922 39.2278 23.5442 39.6758 22.9922 39.6758H8.99219C8.44019 39.6758 7.99219 39.2278 7.99219 38.6758C7.99219 38.1238 8.44019 37.6758 8.99219 37.6758ZM9.99219 43.6758V41.6758H21.9922V43.6758C21.9922 46.9848 19.3012 49.6758 15.9922 49.6758C12.6832 49.6758 9.99219 46.9848 9.99219 43.6758ZM45.9922 19.6758C43.5772 19.6758 41.5572 17.9548 41.0932 15.6758H43.9922C46.4072 15.6758 48.4272 17.3968 48.8912 19.6758H45.9922ZM45.9922 31.6758C43.5772 31.6758 41.5572 29.9548 41.0932 27.6758H43.9922C46.4072 27.6758 48.4272 29.3968 48.8912 31.6758H45.9922ZM55.3742 47.6758L48.5202 61.3838C48.4312 61.5618 48.2462 61.6758 48.0472 61.6758C47.8172 61.6758 47.6822 61.5418 47.6232 61.4628C47.5632 61.3828 47.4752 61.2158 47.5412 60.9938L50.3362 51.6758H44.3182L47.7462 39.6758H52.7112L50.7112 47.6758H55.3742ZM57.9922 27.6758H60.9212C60.4352 31.0638 57.5132 33.6758 53.9922 33.6758H51.0632C51.5502 30.2878 54.4712 27.6758 57.9922 27.6758ZM57.9922 13.6758H60.9212C60.4352 17.0638 57.5132 19.6758 53.9922 19.6758H51.0632C51.5502 16.2878 54.4712 13.6758 57.9922 13.6758Z" fill="#135EAB"/>
</svg>
