<svg width="60" height="60" viewBox="0 0 60 60" fill="none" xmlns="http://www.w3.org/2000/svg">
<path d="M39.2334 40.2548C37.4171 43.4222 33.9196 45.4516 30.2289 45.4706C26.5286 45.4516 23.0312 43.4222 21.2245 40.2548C20.21 38.4814 19.9008 36.7555 20.0264 35.039C20.1907 32.8674 21.0506 30.7242 22.0843 28.5525C22.1037 28.5146 29.0792 13.7681 29.0792 13.7681C29.3111 13.275 29.7749 13.0284 30.2386 13C30.7024 13.019 31.1661 13.275 31.398 13.7681C31.398 13.7681 38.3735 28.5146 38.3929 28.5525C39.417 30.7242 40.2865 32.8769 40.4508 35.039C40.557 36.7555 40.2479 38.4909 39.2334 40.2548Z" fill="#6C6C6C"/>
<circle cx="29.5" cy="29.5" r="27.7647" stroke="#6C6C6C" stroke-width="3.47059"/>
</svg>
