<svg width="60" height="60" viewBox="0 0 60 60" fill="none" xmlns="http://www.w3.org/2000/svg">
<path d="M33.5582 45.5652C32.8159 45.939 32.0318 46.238 31.2228 46.4706V40.5729L36.1771 35.6388C36.4023 35.4145 36.4023 35.0573 36.1771 34.833C36.0687 34.725 35.9186 34.6669 35.7768 34.6669C35.6267 34.6669 35.4849 34.725 35.3764 34.833L31.2312 38.9614V32.0586L36.1855 27.1245C36.4107 26.9002 36.4107 26.543 36.1855 26.3187C36.077 26.2107 35.9269 26.1526 35.7851 26.1526C35.635 26.1526 35.4932 26.2107 35.3848 26.3187L31.2395 30.4471V22.3565C31.2395 22.0823 31.1311 21.8332 30.9476 21.6504C30.7641 21.4677 30.5139 21.3597 30.2386 21.3597C29.6881 21.3597 29.2294 21.8082 29.2294 22.3565V30.4471L25.0842 26.3187C24.9757 26.2107 24.8256 26.1526 24.6838 26.1526C24.5337 26.1526 24.3919 26.2107 24.2835 26.3187C24.0583 26.543 24.0583 26.9002 24.2835 27.1245L29.2378 32.0586V38.9614L25.0925 34.833C24.9841 34.725 24.8339 34.6669 24.6921 34.6669C24.542 34.6669 24.4002 34.725 24.2918 34.833C24.0666 35.0573 24.0666 35.4145 24.2918 35.6388L29.2461 40.5729V46.4706C28.4371 46.238 27.6531 45.939 26.9107 45.5652C14.8086 39.4515 20.33 19.5073 30.247 14C40.1389 19.5073 45.6604 39.4515 33.5582 45.5652Z" fill="#6C6C6C"/>
<circle cx="29.9097" cy="29.9097" r="28.1503" stroke="#6C6C6C" stroke-width="3.51879"/>
</svg>
