<svg width="60" height="72" viewBox="0 0 60 72" fill="none" xmlns="http://www.w3.org/2000/svg">
<g clip-path="url(#clip0_3085_137498)">
<path d="M11.8309 71.9998C10.7379 71.6325 9.7504 71.1238 9.10803 70.1066C8.36018 68.9292 8.54235 67.6293 8.51359 66.3483C8.51359 66.1788 8.59029 66.094 8.77246 66.094C8.96421 66.094 9.15597 66.094 9.34772 66.094C21.9172 66.094 34.4867 66.094 47.0467 66.094C49.7888 66.094 51.8693 64.992 53.1541 62.5807C53.7006 61.5634 53.806 60.4425 53.806 59.3122C53.7964 42.5367 53.806 25.7612 53.7868 8.98567C53.7868 8.31691 53.9211 8.08144 54.6306 8.14737C55.5222 8.23214 56.4426 8.07202 57.3151 8.41111C58.8396 9.01393 59.7408 10.0783 59.9326 11.6984C59.9709 12.0469 59.9901 12.3954 59.9901 12.7533C59.9901 30.9794 59.9901 49.2055 59.9997 67.4315C59.9997 69.2683 59.4148 70.7282 57.6699 71.5854C57.3343 71.7455 56.97 71.8585 56.6152 71.9904C41.6871 71.9998 26.759 71.9998 11.8309 71.9998Z" fill="#135EAB"/>
<path d="M51.4954 31.94C51.4954 22.7563 51.4954 13.5727 51.4954 4.38898C51.4954 1.63859 49.8463 0.00907269 47.0658 0.00907269C37.7849 0.00907269 28.5136 0.00907269 19.2327 -0.00976562C18.6766 -0.00976562 18.5328 0.122103 18.5424 0.668414C18.5711 4.55853 18.5615 8.44864 18.5711 12.3387C18.5711 13.6574 18.2547 14.8819 17.4302 15.9557C16.1838 17.5852 14.4772 18.2446 12.4637 18.2446C8.55194 18.2446 4.64015 18.2446 0.728357 18.2163C0.181856 18.2163 0.00927734 18.3388 0.00927734 18.9039C0.0284528 32.4016 0.0188651 45.8992 0.0284528 59.3874C0.0284528 59.8772 0.0476282 60.3764 0.172269 60.8474C0.67083 62.7595 2.23363 63.8239 4.46757 63.8333C18.6095 63.8333 32.7514 63.805 46.8933 63.8615C49.5203 63.8709 51.5529 62.1943 51.5241 59.2744C51.4378 50.1755 51.4954 41.0578 51.4954 31.94ZM12.1186 26.8442C12.3774 26.8066 12.6363 26.7972 12.9048 26.7972C22.0131 26.7972 31.1215 26.7972 40.2394 26.7877C40.9776 26.7877 41.6679 26.8725 42.1761 27.4753C42.6555 28.0499 42.7897 28.6998 42.4829 29.378C42.1569 30.0844 41.5912 30.5271 40.7571 30.5271C38.8971 30.5366 37.0371 30.5366 35.1771 30.5366H26.5193C21.8981 30.5366 17.2672 30.5366 12.6363 30.5366C11.3803 30.5366 10.5174 29.7453 10.5366 28.6433C10.5366 27.7673 11.2269 26.9761 12.1186 26.8442ZM26.4331 50.3356C24.0745 50.3545 21.7159 50.3356 19.3573 50.3356C17.1425 50.3356 14.9278 50.3356 12.7034 50.3356C11.3995 50.3356 10.5174 49.5444 10.5366 48.4235C10.5558 47.3403 11.4378 46.5774 12.6938 46.568C14.9565 46.5585 17.2192 46.568 19.4915 46.568C21.8022 46.568 24.1128 46.5585 26.4235 46.568C27.5069 46.5774 28.3218 47.2367 28.4561 48.1692C28.6191 49.3749 27.7562 50.3262 26.4331 50.3356ZM42.1473 40.0876C41.6488 40.6433 40.9968 40.7563 40.2681 40.7563C33.3554 40.7469 26.4522 40.7469 19.5395 40.7469C17.248 40.7469 14.9661 40.7563 12.6747 40.7469C11.5337 40.7375 10.6804 40.0876 10.5366 39.1551C10.3544 37.9777 11.2653 36.9793 12.5596 36.9793C16.3755 36.9698 20.1819 36.9793 23.9978 36.9793C24.8798 36.9793 25.7619 36.9793 26.644 36.9793C31.294 36.9793 35.9345 36.9793 40.5845 36.9793C41.4954 36.9793 42.1377 37.3937 42.4925 38.1849C42.7897 38.8725 42.6459 39.5319 42.1473 40.0876Z" fill="#135EAB"/>
<path d="M16.2608 7.30971C16.2608 8.99574 16.2704 10.6818 16.2608 12.3678C16.2512 14.5813 14.8706 15.9753 12.6175 15.9942C9.10839 16.0224 5.60887 16.0036 2.09976 16.0036C1.25604 16.0036 0.546548 15.7587 0.210977 14.9204C-0.115006 14.1009 0.220565 13.4793 0.805416 12.9047C4.89938 8.87329 9.00292 4.85131 13.0873 0.81991C13.6913 0.226503 14.3816 -0.112586 15.1966 0.226503C16.0116 0.565593 16.28 1.25319 16.2704 2.11033C16.2417 3.84346 16.2608 5.57658 16.2608 7.30971Z" fill="#135EAB"/>
</g>
<defs>
<clipPath id="clip0_3085_137498">
<rect width="60" height="72" fill="white"/>
</clipPath>
</defs>
</svg>
