<svg width="60" height="60" viewBox="0 0 60 60" fill="none" xmlns="http://www.w3.org/2000/svg">
<circle cx="29.375" cy="29.375" r="27.6471" stroke="#6C6C6C" stroke-width="3.45588"/>
<g clip-path="url(#clip0_3085_138492)">
<path d="M43.6336 33.9841L41.7724 19.3833C41.64 18.3328 40.7383 17.5469 39.6877 17.5469H17.9645C16.9057 17.5469 16.0123 18.3328 15.8799 19.3833L14.0186 33.9841C13.9938 34.1826 13.9938 34.3811 14.0186 34.5631C14.0931 35.0512 14.2668 35.5062 14.5232 35.9363C14.6804 36.2011 14.8707 36.4492 15.0775 36.6809C15.2098 36.8215 15.3422 36.9704 15.4994 37.0862C15.6648 37.2103 15.8716 37.293 16.0619 37.3675C16.1281 37.384 16.1942 37.4005 16.2521 37.4171H27.6515L26.6257 41.9752C26.6257 42.0827 28.3546 42.1158 28.8179 42.1158H28.8261C29.2977 42.1158 31.0183 42.0827 31.0183 41.9752L29.9925 37.4171H41.3918C41.458 37.4005 41.5242 37.384 41.5821 37.3675C42.0702 37.2268 42.4342 36.8628 42.7485 36.4823C43.0298 36.1349 43.2614 35.7544 43.4268 35.3407C43.5178 35.1008 43.6088 34.8361 43.6254 34.5797C43.6585 34.3729 43.6585 34.1826 43.6336 33.9841ZM42.3432 34.4721C42.2853 34.6376 42.1777 34.7699 42.0371 34.8609C41.9213 34.9354 41.7806 34.9767 41.64 34.9767H16.004C15.8633 34.9767 15.7227 34.9354 15.6069 34.8609C15.4663 34.7699 15.3587 34.6376 15.3008 34.4721C15.2677 34.3811 15.2595 34.2653 15.276 34.1412L17.1373 19.5405C17.1869 19.1269 17.5426 18.8125 17.9645 18.8125H39.6877C40.1096 18.8125 40.4571 19.1269 40.515 19.5405L42.3763 34.1412C42.3845 34.2653 42.3762 34.3811 42.3432 34.4721Z" fill="#6C6C6C"/>
<path d="M24.202 26.938L23.8463 34.1266C23.838 34.2673 23.7222 34.3748 23.5816 34.3748H16.7651C16.6328 34.3748 16.5004 34.3335 16.3846 34.2673C16.2522 34.1846 16.1447 34.0605 16.0868 33.9033C16.0537 33.8206 16.0454 33.713 16.062 33.5889L16.9389 26.8801C16.9554 26.7477 17.0712 26.6484 17.2036 26.6484H23.9373C24.0862 26.665 24.2103 26.7891 24.202 26.938Z" fill="#6C6C6C"/>
<path d="M24.5594 19.7168L24.2699 25.5985C24.2616 25.7391 24.1458 25.8466 24.0052 25.8466H17.3873C17.2301 25.8466 17.106 25.706 17.1226 25.5488L17.834 20.1139C17.8836 19.7251 18.2228 19.4355 18.6199 19.4355H24.2947C24.4519 19.4355 24.5677 19.5596 24.5594 19.7168Z" fill="#6C6C6C"/>
<path d="M32.4399 25.8466H25.3423C25.1934 25.8466 25.0693 25.7225 25.0775 25.5654L25.3671 19.6837C25.3753 19.5431 25.4912 19.4355 25.6318 19.4355H32.1587C32.2993 19.4355 32.4151 19.5431 32.4234 19.6837L32.7129 25.5654C32.7129 25.7143 32.5888 25.8466 32.4399 25.8466Z" fill="#6C6C6C"/>
<path d="M32.8828 34.3783H24.9331C24.7842 34.3783 24.6601 34.2542 24.6684 34.097L25.0241 26.9083C25.0324 26.7677 25.1482 26.6602 25.2888 26.6602H32.5354C32.676 26.6602 32.7918 26.7677 32.8001 26.9083L33.1558 34.097C33.1558 34.2542 33.04 34.3783 32.8828 34.3783Z" fill="#6C6C6C"/>
<path d="M41.5677 33.9068C41.5098 34.0639 41.4105 34.188 41.2699 34.2707C41.1624 34.3452 41.03 34.3783 40.8894 34.3783H34.2136C34.073 34.3783 33.9572 34.2707 33.9489 34.1301L33.5932 26.9414C33.5849 26.7925 33.709 26.6602 33.8579 26.6602H40.451C40.5833 26.6602 40.6991 26.7594 40.7157 26.8918L41.5925 33.6007C41.6091 33.7165 41.6008 33.824 41.5677 33.9068Z" fill="#6C6C6C"/>
<path d="M40.2707 25.8466H33.7934C33.6528 25.8466 33.537 25.7391 33.5287 25.5985L33.2392 19.7168C33.2309 19.5679 33.355 19.4355 33.5039 19.4355H39.0381C39.4352 19.4355 39.7743 19.7251 39.824 20.1139L40.5354 25.5488C40.5519 25.706 40.4278 25.8466 40.2707 25.8466Z" fill="#6C6C6C"/>
</g>
<defs>
<clipPath id="clip0_3085_138492">
<rect width="29.7422" height="29.7422" fill="white" transform="translate(14 15)"/>
</clipPath>
</defs>
</svg>
