<svg width="257" height="235" viewBox="0 0 257 235" fill="none" xmlns="http://www.w3.org/2000/svg">
<path opacity="0.2" d="M256.184 165.15H31.8013V209.974H256.184V165.15Z" fill="#227A44"/>
<path d="M256.184 216.043H25.7266V31.8516H26.5651V215.205H256.184V216.043Z" fill="#959595"/>
<path d="M26.1461 215.205H14.8389V216.044H26.1461V215.205Z" fill="#666666"/>
<path d="M10.9184 216.493C10.9184 218.3 10.2366 219.298 9.07078 219.298C8.04811 219.298 7.32884 218.323 7.3118 216.571C7.29475 214.819 8.07879 213.807 9.15941 213.807C10.24 213.807 10.9184 214.799 10.9184 216.493ZM8.03107 216.575C8.03107 217.938 8.45718 218.743 9.11168 218.743C9.848 218.743 10.1991 217.884 10.1991 216.524C10.1991 215.214 9.85823 214.355 9.1185 214.355C8.48786 214.355 8.03107 215.126 8.03107 216.575Z" fill="#7E7E7E"/>
<path d="M31.8009 178.451H20.4937V179.29H31.8009V178.451Z" fill="#666666"/>
<path d="M31.8009 141.699H20.4937V142.538H31.8009V141.699Z" fill="#666666"/>
<path d="M31.8009 104.945H20.4937V105.784H31.8009V104.945Z" fill="#666666"/>
<path d="M31.8009 68.1895H20.4937V69.028H31.8009V68.1895Z" fill="#666666"/>
<path d="M31.8009 31.4336H20.4937V32.2722H31.8009V31.4336Z" fill="#666666"/>
<path d="M244.689 183.697L199.606 124.444L148.657 106.104L148.552 106.019L101.68 69.3258L46.9058 44.1546L47.6046 42.6309L102.559 67.8872L102.634 67.9486L149.479 104.618L200.639 123.033L200.789 123.23L246.022 182.681L244.689 183.697Z" fill="#227A44"/>
<path d="M47.254 46.1173C48.7582 46.1173 49.9777 44.8979 49.9777 43.3936C49.9777 41.8894 48.7582 40.6699 47.254 40.6699C45.7497 40.6699 44.5303 41.8894 44.5303 43.3936C44.5303 44.8979 45.7497 46.1173 47.254 46.1173Z" fill="#227A44"/>
<path d="M102.511 71.3322C104.016 71.3322 105.235 70.1127 105.235 68.6085C105.235 67.1042 104.016 65.8848 102.511 65.8848C101.007 65.8848 99.7876 67.1042 99.7876 68.6085C99.7876 70.1127 101.007 71.3322 102.511 71.3322Z" fill="#227A44"/>
<path d="M149.066 108.086C150.57 108.086 151.79 106.867 151.79 105.362C151.79 103.858 150.57 102.639 149.066 102.639C147.562 102.639 146.342 103.858 146.342 105.362C146.342 106.867 147.562 108.086 149.066 108.086Z" fill="#227A44"/>
<path d="M200.125 126.463C201.629 126.463 202.848 125.244 202.848 123.739C202.848 122.235 201.629 121.016 200.125 121.016C198.62 121.016 197.401 122.235 197.401 123.739C197.401 125.244 198.62 126.463 200.125 126.463Z" fill="#227A44"/>
<path d="M245.357 185.916C246.861 185.916 248.081 184.697 248.081 183.192C248.081 181.688 246.861 180.469 245.357 180.469C243.853 180.469 242.633 181.688 242.633 183.192C242.633 184.697 243.853 185.916 245.357 185.916Z" fill="#227A44"/>
<path d="M240.883 231.625V232.158H237.542V231.692L239.214 229.831C239.42 229.602 239.579 229.408 239.691 229.249C239.806 229.087 239.885 228.944 239.93 228.818C239.976 228.689 240 228.558 240 228.425C240 228.257 239.965 228.105 239.895 227.969C239.827 227.831 239.726 227.722 239.593 227.64C239.46 227.558 239.299 227.517 239.109 227.517C238.883 227.517 238.693 227.561 238.541 227.65C238.392 227.737 238.28 227.858 238.205 228.015C238.13 228.171 238.093 228.351 238.093 228.555H237.444C237.444 228.267 237.507 228.004 237.634 227.766C237.76 227.528 237.947 227.338 238.194 227.198C238.442 227.055 238.747 226.984 239.109 226.984C239.432 226.984 239.708 227.041 239.937 227.156C240.166 227.268 240.341 227.427 240.462 227.633C240.586 227.836 240.648 228.074 240.648 228.348C240.648 228.497 240.623 228.649 240.571 228.804C240.522 228.955 240.453 229.107 240.364 229.259C240.278 229.411 240.176 229.561 240.059 229.708C239.945 229.855 239.822 230 239.691 230.143L238.324 231.625H240.883ZM244.781 229.2V229.978C244.781 230.396 244.744 230.749 244.669 231.036C244.594 231.324 244.487 231.555 244.346 231.731C244.206 231.906 244.037 232.033 243.838 232.113C243.642 232.19 243.42 232.228 243.172 232.228C242.976 232.228 242.795 232.204 242.629 232.155C242.463 232.106 242.313 232.027 242.18 231.92C242.049 231.81 241.937 231.667 241.844 231.492C241.75 231.317 241.679 231.104 241.63 230.854C241.581 230.604 241.556 230.312 241.556 229.978V229.2C241.556 228.781 241.594 228.431 241.668 228.148C241.745 227.865 241.854 227.639 241.994 227.468C242.135 227.295 242.303 227.171 242.499 227.096C242.698 227.022 242.92 226.984 243.165 226.984C243.364 226.984 243.546 227.009 243.712 227.058C243.88 227.105 244.03 227.181 244.161 227.286C244.292 227.388 244.403 227.526 244.494 227.699C244.587 227.87 244.658 228.079 244.707 228.327C244.757 228.574 244.781 228.865 244.781 229.2ZM244.129 230.083V229.091C244.129 228.862 244.115 228.661 244.087 228.488C244.061 228.313 244.023 228.163 243.971 228.039C243.92 227.915 243.854 227.815 243.775 227.738C243.698 227.661 243.608 227.605 243.505 227.57C243.405 227.532 243.291 227.514 243.165 227.514C243.011 227.514 242.874 227.543 242.755 227.601C242.636 227.657 242.535 227.747 242.453 227.871C242.374 227.995 242.313 228.157 242.271 228.358C242.229 228.559 242.208 228.804 242.208 229.091V230.083C242.208 230.312 242.221 230.514 242.247 230.689C242.275 230.865 242.316 231.017 242.369 231.145C242.423 231.271 242.489 231.375 242.566 231.457C242.643 231.539 242.732 231.6 242.832 231.639C242.935 231.677 243.048 231.695 243.172 231.695C243.331 231.695 243.47 231.665 243.589 231.604C243.708 231.544 243.808 231.449 243.887 231.32C243.969 231.19 244.03 231.022 244.069 230.819C244.109 230.613 244.129 230.368 244.129 230.083ZM248.96 231.625V232.158H245.619V231.692L247.291 229.831C247.497 229.602 247.656 229.408 247.768 229.249C247.882 229.087 247.962 228.944 248.006 228.818C248.053 228.689 248.076 228.558 248.076 228.425C248.076 228.257 248.041 228.105 247.971 227.969C247.903 227.831 247.803 227.722 247.67 227.64C247.536 227.558 247.375 227.517 247.186 227.517C246.959 227.517 246.77 227.561 246.618 227.65C246.468 227.737 246.356 227.858 246.281 228.015C246.207 228.171 246.169 228.351 246.169 228.555H245.521C245.521 228.267 245.584 228.004 245.71 227.766C245.836 227.528 246.023 227.338 246.271 227.198C246.519 227.055 246.824 226.984 247.186 226.984C247.508 226.984 247.784 227.041 248.013 227.156C248.242 227.268 248.417 227.427 248.539 227.633C248.663 227.836 248.725 228.074 248.725 228.348C248.725 228.497 248.699 228.649 248.648 228.804C248.598 228.955 248.53 229.107 248.441 229.259C248.354 229.411 248.253 229.561 248.136 229.708C248.021 229.855 247.899 230 247.768 230.143L246.401 231.625H248.96ZM252.858 229.2V229.978C252.858 230.396 252.82 230.749 252.745 231.036C252.671 231.324 252.563 231.555 252.423 231.731C252.283 231.906 252.113 232.033 251.915 232.113C251.718 232.19 251.496 232.228 251.249 232.228C251.052 232.228 250.871 232.204 250.705 232.155C250.539 232.106 250.39 232.027 250.257 231.92C250.126 231.81 250.014 231.667 249.92 231.492C249.827 231.317 249.755 231.104 249.706 230.854C249.657 230.604 249.633 230.312 249.633 229.978V229.2C249.633 228.781 249.67 228.431 249.745 228.148C249.822 227.865 249.931 227.639 250.071 227.468C250.211 227.295 250.379 227.171 250.576 227.096C250.774 227.022 250.996 226.984 251.242 226.984C251.44 226.984 251.622 227.009 251.788 227.058C251.957 227.105 252.106 227.181 252.237 227.286C252.368 227.388 252.479 227.526 252.57 227.699C252.664 227.87 252.735 228.079 252.784 228.327C252.833 228.574 252.858 228.865 252.858 229.2ZM252.206 230.083V229.091C252.206 228.862 252.192 228.661 252.164 228.488C252.138 228.313 252.099 228.163 252.048 228.039C251.996 227.915 251.931 227.815 251.852 227.738C251.774 227.661 251.684 227.605 251.582 227.57C251.481 227.532 251.368 227.514 251.242 227.514C251.087 227.514 250.951 227.543 250.831 227.601C250.712 227.657 250.612 227.747 250.53 227.871C250.451 227.995 250.39 228.157 250.348 228.358C250.306 228.559 250.285 228.804 250.285 229.091V230.083C250.285 230.312 250.297 230.514 250.323 230.689C250.351 230.865 250.392 231.017 250.446 231.145C250.5 231.271 250.565 231.375 250.642 231.457C250.719 231.539 250.808 231.6 250.909 231.639C251.011 231.677 251.125 231.695 251.249 231.695C251.407 231.695 251.547 231.665 251.666 231.604C251.785 231.544 251.884 231.449 251.964 231.32C252.045 231.19 252.106 231.022 252.146 230.819C252.186 230.613 252.206 230.368 252.206 230.083Z" fill="#7E7E7E"/>
<path d="M193.915 231.707V232.24H190.574V231.774L192.246 229.913C192.452 229.684 192.611 229.49 192.723 229.331C192.837 229.169 192.917 229.026 192.961 228.9C193.008 228.771 193.031 228.64 193.031 228.507C193.031 228.339 192.996 228.187 192.926 228.051C192.859 227.913 192.758 227.804 192.625 227.722C192.492 227.64 192.33 227.599 192.141 227.599C191.914 227.599 191.725 227.643 191.573 227.732C191.424 227.819 191.311 227.94 191.237 228.097C191.162 228.253 191.124 228.433 191.124 228.637H190.476C190.476 228.349 190.539 228.086 190.665 227.848C190.791 227.61 190.978 227.42 191.226 227.28C191.474 227.138 191.779 227.066 192.141 227.066C192.464 227.066 192.739 227.123 192.968 227.238C193.197 227.35 193.373 227.509 193.494 227.715C193.618 227.918 193.68 228.156 193.68 228.43C193.68 228.579 193.654 228.731 193.603 228.886C193.554 229.037 193.485 229.189 193.396 229.341C193.31 229.493 193.208 229.643 193.091 229.79C192.977 229.937 192.854 230.082 192.723 230.225L191.356 231.707H193.915ZM197.813 229.282V230.06C197.813 230.478 197.775 230.831 197.701 231.119C197.626 231.406 197.518 231.637 197.378 231.813C197.238 231.988 197.069 232.115 196.87 232.195C196.674 232.272 196.452 232.31 196.204 232.31C196.008 232.31 195.826 232.286 195.661 232.237C195.495 232.188 195.345 232.109 195.212 232.002C195.081 231.892 194.969 231.749 194.875 231.574C194.782 231.399 194.711 231.186 194.661 230.936C194.612 230.686 194.588 230.394 194.588 230.06V229.282C194.588 228.863 194.625 228.513 194.7 228.23C194.777 227.947 194.886 227.721 195.026 227.55C195.166 227.377 195.335 227.253 195.531 227.178C195.729 227.104 195.951 227.066 196.197 227.066C196.395 227.066 196.578 227.091 196.744 227.14C196.912 227.187 197.062 227.263 197.192 227.368C197.323 227.471 197.434 227.608 197.525 227.781C197.619 227.952 197.69 228.161 197.739 228.409C197.788 228.657 197.813 228.947 197.813 229.282ZM197.161 230.165V229.173C197.161 228.944 197.147 228.743 197.119 228.57C197.093 228.395 197.054 228.245 197.003 228.121C196.952 227.998 196.886 227.897 196.807 227.82C196.73 227.743 196.64 227.687 196.537 227.652C196.436 227.614 196.323 227.596 196.197 227.596C196.043 227.596 195.906 227.625 195.787 227.683C195.668 227.739 195.567 227.829 195.485 227.953C195.406 228.077 195.345 228.239 195.303 228.44C195.261 228.641 195.24 228.886 195.24 229.173V230.165C195.24 230.394 195.253 230.596 195.278 230.771C195.306 230.947 195.347 231.099 195.401 231.227C195.455 231.353 195.52 231.457 195.597 231.539C195.675 231.621 195.763 231.682 195.864 231.721C195.967 231.759 196.08 231.778 196.204 231.778C196.363 231.778 196.502 231.747 196.621 231.686C196.74 231.626 196.839 231.531 196.919 231.402C197.001 231.272 197.062 231.104 197.101 230.901C197.141 230.696 197.161 230.45 197.161 230.165ZM200.778 227.108V232.24H200.13V227.918L198.822 228.395V227.809L200.677 227.108H200.778ZM203.33 231.697H203.397C203.771 231.697 204.075 231.644 204.308 231.539C204.542 231.434 204.722 231.293 204.848 231.115C204.974 230.937 205.061 230.738 205.108 230.516C205.154 230.291 205.178 230.061 205.178 229.825V229.043C205.178 228.812 205.151 228.606 205.097 228.426C205.046 228.246 204.973 228.096 204.88 227.974C204.789 227.853 204.685 227.76 204.568 227.697C204.451 227.634 204.327 227.603 204.196 227.603C204.047 227.603 203.912 227.633 203.793 227.694C203.676 227.752 203.577 227.835 203.495 227.943C203.416 228.05 203.355 228.176 203.313 228.321C203.271 228.466 203.25 228.624 203.25 228.794C203.25 228.946 203.268 229.094 203.306 229.236C203.343 229.379 203.4 229.507 203.478 229.622C203.555 229.736 203.651 229.827 203.765 229.895C203.882 229.961 204.019 229.993 204.175 229.993C204.32 229.993 204.456 229.965 204.582 229.909C204.71 229.851 204.824 229.772 204.922 229.674C205.022 229.574 205.102 229.46 205.16 229.334C205.221 229.208 205.256 229.076 205.265 228.938H205.574C205.574 229.132 205.535 229.324 205.458 229.513C205.383 229.7 205.278 229.871 205.143 230.025C205.007 230.179 204.848 230.303 204.666 230.396C204.484 230.488 204.285 230.533 204.07 230.533C203.818 230.533 203.599 230.484 203.414 230.386C203.23 230.288 203.078 230.157 202.959 229.993C202.842 229.83 202.754 229.647 202.696 229.446C202.64 229.243 202.612 229.037 202.612 228.829C202.612 228.586 202.646 228.359 202.713 228.146C202.781 227.933 202.882 227.746 203.015 227.585C203.148 227.421 203.313 227.294 203.509 227.203C203.708 227.112 203.937 227.066 204.196 227.066C204.488 227.066 204.737 227.125 204.943 227.242C205.149 227.358 205.316 227.515 205.444 227.711C205.575 227.908 205.671 228.128 205.732 228.374C205.792 228.619 205.823 228.872 205.823 229.131V229.366C205.823 229.63 205.805 229.899 205.77 230.172C205.737 230.443 205.673 230.703 205.577 230.95C205.484 231.198 205.347 231.42 205.167 231.616C204.987 231.81 204.752 231.964 204.463 232.079C204.175 232.191 203.82 232.247 203.397 232.247H203.33V231.697Z" fill="#7E7E7E"/>
<path d="M146.951 231.782V232.314H143.611V231.848L145.283 229.987C145.489 229.758 145.647 229.564 145.76 229.405C145.874 229.244 145.954 229.1 145.998 228.974C146.045 228.845 146.068 228.714 146.068 228.581C146.068 228.413 146.033 228.261 145.963 228.125C145.895 227.988 145.795 227.878 145.661 227.796C145.528 227.714 145.367 227.673 145.178 227.673C144.951 227.673 144.762 227.718 144.61 227.806C144.46 227.893 144.348 228.014 144.273 228.171C144.199 228.328 144.161 228.508 144.161 228.711H143.513C143.513 228.423 143.576 228.161 143.702 227.922C143.828 227.684 144.015 227.495 144.263 227.354C144.51 227.212 144.815 227.14 145.178 227.14C145.5 227.14 145.776 227.198 146.005 227.312C146.234 227.424 146.409 227.583 146.531 227.789C146.655 227.992 146.717 228.231 146.717 228.504C146.717 228.654 146.691 228.806 146.639 228.96C146.59 229.112 146.521 229.264 146.433 229.415C146.346 229.567 146.245 229.717 146.128 229.864C146.013 230.011 145.89 230.156 145.76 230.299L144.392 231.782H146.951ZM150.849 229.356V230.134C150.849 230.552 150.812 230.905 150.737 231.193C150.662 231.48 150.555 231.712 150.415 231.887C150.275 232.062 150.105 232.189 149.906 232.269C149.71 232.346 149.488 232.385 149.24 232.385C149.044 232.385 148.863 232.36 148.697 232.311C148.531 232.262 148.382 232.184 148.248 232.076C148.118 231.966 148.005 231.824 147.912 231.648C147.818 231.473 147.747 231.26 147.698 231.01C147.649 230.76 147.624 230.468 147.624 230.134V229.356C147.624 228.938 147.662 228.587 147.737 228.304C147.814 228.021 147.922 227.795 148.063 227.624C148.203 227.451 148.371 227.327 148.567 227.253C148.766 227.178 148.988 227.14 149.233 227.14C149.432 227.14 149.614 227.165 149.78 227.214C149.949 227.261 150.098 227.337 150.229 227.442C150.36 227.545 150.471 227.683 150.562 227.856C150.655 228.026 150.727 228.235 150.776 228.483C150.825 228.731 150.849 229.022 150.849 229.356ZM150.197 230.239V229.247C150.197 229.018 150.183 228.817 150.155 228.644C150.13 228.469 150.091 228.319 150.04 228.196C149.988 228.072 149.923 227.971 149.843 227.894C149.766 227.817 149.676 227.761 149.573 227.726C149.473 227.688 149.36 227.67 149.233 227.67C149.079 227.67 148.943 227.699 148.823 227.757C148.704 227.813 148.604 227.903 148.522 228.027C148.442 228.151 148.382 228.314 148.34 228.515C148.298 228.716 148.276 228.96 148.276 229.247V230.239C148.276 230.468 148.289 230.67 148.315 230.846C148.343 231.021 148.384 231.173 148.438 231.301C148.491 231.428 148.557 231.532 148.634 231.613C148.711 231.695 148.8 231.756 148.9 231.796C149.003 231.833 149.117 231.852 149.24 231.852C149.399 231.852 149.538 231.821 149.658 231.761C149.777 231.7 149.876 231.605 149.956 231.477C150.037 231.346 150.098 231.179 150.138 230.975C150.178 230.77 150.197 230.524 150.197 230.239ZM153.815 227.183V232.314H153.167V227.992L151.859 228.469V227.884L153.713 227.183H153.815ZM158.94 230.933C158.94 231.244 158.868 231.508 158.723 231.726C158.58 231.941 158.386 232.104 158.141 232.216C157.898 232.328 157.623 232.385 157.317 232.385C157.011 232.385 156.735 232.328 156.49 232.216C156.244 232.104 156.05 231.941 155.908 231.726C155.765 231.508 155.694 231.244 155.694 230.933C155.694 230.73 155.732 230.544 155.81 230.376C155.889 230.205 156 230.057 156.143 229.931C156.288 229.805 156.458 229.708 156.654 229.64C156.853 229.57 157.072 229.535 157.31 229.535C157.623 229.535 157.902 229.595 158.148 229.717C158.393 229.836 158.586 230.001 158.726 230.211C158.869 230.422 158.94 230.662 158.94 230.933ZM158.288 230.919C158.288 230.73 158.247 230.563 158.165 230.418C158.083 230.271 157.969 230.156 157.822 230.074C157.674 229.993 157.504 229.952 157.31 229.952C157.111 229.952 156.94 229.993 156.795 230.074C156.652 230.156 156.541 230.271 156.462 230.418C156.382 230.563 156.342 230.73 156.342 230.919C156.342 231.116 156.381 231.284 156.458 231.424C156.538 231.562 156.65 231.668 156.795 231.743C156.942 231.816 157.116 231.852 157.317 231.852C157.518 231.852 157.691 231.816 157.836 231.743C157.981 231.668 158.092 231.562 158.169 231.424C158.248 231.284 158.288 231.116 158.288 230.919ZM158.821 228.539C158.821 228.787 158.755 229.01 158.624 229.209C158.494 229.407 158.315 229.564 158.088 229.678C157.861 229.793 157.604 229.85 157.317 229.85C157.025 229.85 156.764 229.793 156.535 229.678C156.309 229.564 156.131 229.407 156.002 229.209C155.874 229.01 155.81 228.787 155.81 228.539C155.81 228.242 155.874 227.99 156.002 227.782C156.133 227.574 156.312 227.415 156.539 227.305C156.765 227.195 157.024 227.14 157.313 227.14C157.606 227.14 157.865 227.195 158.092 227.305C158.318 227.415 158.496 227.574 158.624 227.782C158.755 227.99 158.821 228.242 158.821 228.539ZM158.172 228.55C158.172 228.379 158.136 228.228 158.064 228.097C157.991 227.967 157.891 227.864 157.762 227.789C157.634 227.712 157.484 227.673 157.313 227.673C157.143 227.673 156.993 227.71 156.865 227.782C156.739 227.852 156.639 227.953 156.567 228.083C156.497 228.214 156.462 228.37 156.462 228.55C156.462 228.725 156.497 228.878 156.567 229.009C156.639 229.14 156.74 229.241 156.868 229.314C156.997 229.386 157.146 229.422 157.317 229.422C157.488 229.422 157.636 229.386 157.762 229.314C157.891 229.241 157.991 229.14 158.064 229.009C158.136 228.878 158.172 228.725 158.172 228.55Z" fill="#7E7E7E"/>
<path d="M53.0198 231.625V232.158H49.6791V231.692L51.3512 229.831C51.5569 229.602 51.7158 229.408 51.8279 229.249C51.9425 229.087 52.0219 228.944 52.0663 228.818C52.1131 228.689 52.1364 228.558 52.1364 228.425C52.1364 228.257 52.1014 228.105 52.0313 227.969C51.9635 227.831 51.863 227.722 51.7298 227.64C51.5966 227.558 51.4353 227.517 51.246 227.517C51.0194 227.517 50.8301 227.561 50.6782 227.65C50.5286 227.737 50.4164 227.858 50.3416 228.015C50.2669 228.171 50.2295 228.351 50.2295 228.555H49.581C49.581 228.267 49.6441 228.004 49.7703 227.766C49.8965 227.528 50.0834 227.338 50.3311 227.198C50.5788 227.055 50.8838 226.984 51.246 226.984C51.5685 226.984 51.8443 227.041 52.0733 227.156C52.3023 227.268 52.4776 227.427 52.5991 227.633C52.723 227.836 52.7849 228.074 52.7849 228.348C52.7849 228.497 52.7592 228.649 52.7078 228.804C52.6587 228.955 52.5898 229.107 52.501 229.259C52.4145 229.411 52.3129 229.561 52.196 229.708C52.0815 229.855 51.9588 230 51.8279 230.143L50.4608 231.625H53.0198ZM56.9178 229.2V229.978C56.9178 230.396 56.8804 230.749 56.8056 231.036C56.7309 231.324 56.6234 231.555 56.4831 231.731C56.3429 231.906 56.1735 232.033 55.9749 232.113C55.7786 232.19 55.5565 232.228 55.3088 232.228C55.1125 232.228 54.9314 232.204 54.7655 232.155C54.5996 232.106 54.45 232.027 54.3168 231.92C54.1859 231.81 54.0738 231.667 53.9803 231.492C53.8868 231.317 53.8155 231.104 53.7664 230.854C53.7174 230.604 53.6928 230.312 53.6928 229.978V229.2C53.6928 228.781 53.7302 228.431 53.805 228.148C53.8821 227.865 53.9908 227.639 54.131 227.468C54.2712 227.295 54.4395 227.171 54.6358 227.096C54.8344 227.022 55.0564 226.984 55.3018 226.984C55.5005 226.984 55.6827 227.009 55.8487 227.058C56.0169 227.105 56.1665 227.181 56.2974 227.286C56.4282 227.388 56.5392 227.526 56.6304 227.699C56.7238 227.87 56.7951 228.079 56.8442 228.327C56.8933 228.574 56.9178 228.865 56.9178 229.2ZM56.2658 230.083V229.091C56.2658 228.862 56.2518 228.661 56.2237 228.488C56.198 228.313 56.1595 228.163 56.1081 228.039C56.0566 227.915 55.9912 227.815 55.9118 227.738C55.8346 227.661 55.7447 227.605 55.6418 227.57C55.5414 227.532 55.428 227.514 55.3018 227.514C55.1476 227.514 55.0109 227.543 54.8917 227.601C54.7725 227.657 54.672 227.747 54.5902 227.871C54.5108 227.995 54.45 228.157 54.4079 228.358C54.3659 228.559 54.3448 228.804 54.3448 229.091V230.083C54.3448 230.312 54.3577 230.514 54.3834 230.689C54.4114 230.865 54.4523 231.017 54.5061 231.145C54.5598 231.271 54.6253 231.375 54.7024 231.457C54.7795 231.539 54.8683 231.6 54.9688 231.639C55.0716 231.677 55.185 231.695 55.3088 231.695C55.4677 231.695 55.6068 231.665 55.726 231.604C55.8452 231.544 55.9445 231.449 56.0239 231.32C56.1057 231.19 56.1665 231.022 56.2062 230.819C56.2459 230.613 56.2658 230.368 56.2658 230.083ZM59.8834 227.026V232.158H59.2349V227.836L57.9274 228.313V227.727L59.7817 227.026H59.8834ZM64.2792 227.047H64.3353V227.598H64.2792C63.9357 227.598 63.6482 227.654 63.4169 227.766C63.1855 227.876 63.002 228.024 62.8665 228.211C62.731 228.396 62.6328 228.604 62.572 228.835C62.5136 229.066 62.4844 229.301 62.4844 229.54V230.29C62.4844 230.516 62.5113 230.717 62.565 230.893C62.6188 231.066 62.6924 231.212 62.7859 231.331C62.8794 231.45 62.9845 231.54 63.1014 231.601C63.2206 231.662 63.3444 231.692 63.4729 231.692C63.6225 231.692 63.7557 231.664 63.8726 231.608C63.9894 231.549 64.0876 231.469 64.167 231.366C64.2488 231.261 64.3107 231.137 64.3528 230.994C64.3949 230.852 64.4159 230.695 64.4159 230.525C64.4159 230.373 64.3972 230.227 64.3598 230.087C64.3224 229.944 64.2652 229.818 64.188 229.708C64.1109 229.596 64.0139 229.508 63.8971 229.445C63.7826 229.38 63.6459 229.347 63.487 229.347C63.307 229.347 63.1388 229.391 62.9822 229.48C62.8279 229.567 62.7006 229.681 62.6001 229.824C62.5019 229.964 62.4459 230.117 62.4318 230.283L62.0883 230.279C62.121 230.018 62.1818 229.794 62.2706 229.61C62.3617 229.423 62.4739 229.271 62.6071 229.154C62.7426 229.035 62.8934 228.948 63.0593 228.895C63.2276 228.839 63.4052 228.811 63.5921 228.811C63.8469 228.811 64.0665 228.858 64.2511 228.954C64.4358 229.05 64.5877 229.179 64.7068 229.34C64.826 229.499 64.9137 229.679 64.9698 229.88C65.0282 230.078 65.0574 230.283 65.0574 230.493C65.0574 230.734 65.0235 230.959 64.9557 231.17C64.888 231.38 64.7863 231.565 64.6508 231.724C64.5176 231.882 64.3528 232.006 64.1565 232.095C63.9602 232.184 63.7323 232.228 63.4729 232.228C63.1972 232.228 62.9565 232.172 62.7508 232.06C62.5452 231.946 62.3746 231.794 62.239 231.604C62.1035 231.415 62.0018 231.205 61.9341 230.973C61.8663 230.742 61.8324 230.507 61.8324 230.269V229.964C61.8324 229.604 61.8686 229.251 61.9411 228.905C62.0135 228.559 62.1385 228.246 62.3162 227.966C62.4961 227.685 62.745 227.462 63.0628 227.296C63.3806 227.13 63.7861 227.047 64.2792 227.047Z" fill="#7E7E7E"/>
<path d="M2.55545 174.247V179.379H1.90695V175.057L0.599426 175.533V174.948L2.45379 174.247H2.55545ZM7.66635 176.42V177.199C7.66635 177.617 7.62896 177.97 7.55417 178.257C7.47939 178.545 7.37189 178.776 7.23168 178.951C7.09146 179.127 6.92203 179.254 6.72339 179.333C6.52709 179.41 6.30508 179.449 6.05736 179.449C5.86106 179.449 5.67994 179.424 5.51402 179.375C5.3481 179.326 5.19853 179.248 5.06533 179.141C4.93446 179.031 4.82229 178.888 4.72881 178.713C4.63533 178.538 4.56405 178.325 4.51498 178.075C4.4659 177.825 4.44136 177.533 4.44136 177.199V176.42C4.44136 176.002 4.47875 175.651 4.55354 175.369C4.63066 175.086 4.73932 174.859 4.87954 174.689C5.01976 174.516 5.18802 174.392 5.38432 174.317C5.58296 174.242 5.80497 174.205 6.05035 174.205C6.24899 174.205 6.43127 174.229 6.59719 174.279C6.76545 174.325 6.91502 174.401 7.04589 174.506C7.17676 174.609 7.28776 174.747 7.3789 174.92C7.47238 175.091 7.54366 175.3 7.59273 175.547C7.64181 175.795 7.66635 176.086 7.66635 176.42ZM7.01434 177.304V176.312C7.01434 176.083 7.00032 175.882 6.97227 175.709C6.94657 175.533 6.90801 175.384 6.8566 175.26C6.80518 175.136 6.73975 175.036 6.66029 174.959C6.58317 174.881 6.4932 174.825 6.39038 174.79C6.28989 174.753 6.17654 174.734 6.05035 174.734C5.89611 174.734 5.7594 174.763 5.64022 174.822C5.52103 174.878 5.42054 174.968 5.33875 175.092C5.25929 175.216 5.19853 175.378 5.15647 175.579C5.1144 175.78 5.09337 176.024 5.09337 176.312V177.304C5.09337 177.533 5.10622 177.735 5.13193 177.91C5.15997 178.085 5.20087 178.237 5.25462 178.366C5.30837 178.492 5.3738 178.596 5.45092 178.678C5.52804 178.76 5.61685 178.82 5.71734 178.86C5.82016 178.897 5.9335 178.916 6.05736 178.916C6.21627 178.916 6.35532 178.886 6.47451 178.825C6.59369 178.764 6.69301 178.67 6.77247 178.541C6.85426 178.41 6.91502 178.243 6.95475 178.04C6.99448 177.834 7.01434 177.589 7.01434 177.304ZM11.7046 176.42V177.199C11.7046 177.617 11.6672 177.97 11.5924 178.257C11.5176 178.545 11.4101 178.776 11.2699 178.951C11.1297 179.127 10.9603 179.254 10.7616 179.333C10.5653 179.41 10.3433 179.449 10.0956 179.449C9.8993 179.449 9.71818 179.424 9.55226 179.375C9.38634 179.326 9.23677 179.248 9.10357 179.141C8.9727 179.031 8.86053 178.888 8.76705 178.713C8.67357 178.538 8.60229 178.325 8.55322 178.075C8.50414 177.825 8.4796 177.533 8.4796 177.199V176.42C8.4796 176.002 8.51699 175.651 8.59178 175.369C8.6689 175.086 8.77756 174.859 8.91778 174.689C9.058 174.516 9.22626 174.392 9.42256 174.317C9.6212 174.242 9.84321 174.205 10.0886 174.205C10.2872 174.205 10.4695 174.229 10.6354 174.279C10.8037 174.325 10.9533 174.401 11.0841 174.506C11.215 174.609 11.326 174.747 11.4171 174.92C11.5106 175.091 11.5819 175.3 11.631 175.547C11.68 175.795 11.7046 176.086 11.7046 176.42ZM11.0526 177.304V176.312C11.0526 176.083 11.0386 175.882 11.0105 175.709C10.9848 175.533 10.9462 175.384 10.8948 175.26C10.8434 175.136 10.778 175.036 10.6985 174.959C10.6214 174.881 10.5314 174.825 10.4286 174.79C10.3281 174.753 10.2148 174.734 10.0886 174.734C9.93435 174.734 9.79764 174.763 9.67846 174.822C9.55927 174.878 9.45878 174.968 9.37699 175.092C9.29753 175.216 9.23677 175.378 9.19471 175.579C9.15264 175.78 9.13161 176.024 9.13161 176.312V177.304C9.13161 177.533 9.14446 177.735 9.17017 177.91C9.19821 178.085 9.23911 178.237 9.29286 178.366C9.34661 178.492 9.41204 178.596 9.48916 178.678C9.56628 178.76 9.65509 178.82 9.75558 178.86C9.8584 178.897 9.97174 178.916 10.0956 178.916C10.2545 178.916 10.3936 178.886 10.5127 178.825C10.6319 178.764 10.7313 178.67 10.8107 178.541C10.8925 178.41 10.9533 178.243 10.993 178.04C11.0327 177.834 11.0526 177.589 11.0526 177.304ZM15.7428 176.42V177.199C15.7428 177.617 15.7054 177.97 15.6307 178.257C15.5559 178.545 15.4484 178.776 15.3082 178.951C15.1679 179.127 14.9985 179.254 14.7999 179.333C14.6036 179.41 14.3816 179.449 14.1338 179.449C13.9375 179.449 13.7564 179.424 13.5905 179.375C13.4246 179.326 13.275 179.248 13.1418 179.141C13.0109 179.031 12.8988 178.888 12.8053 178.713C12.7118 178.538 12.6405 178.325 12.5915 178.075C12.5424 177.825 12.5178 177.533 12.5178 177.199V176.42C12.5178 176.002 12.5552 175.651 12.63 175.369C12.7071 175.086 12.8158 174.859 12.956 174.689C13.0962 174.516 13.2645 174.392 13.4608 174.317C13.6594 174.242 13.8815 174.205 14.1268 174.205C14.3255 174.205 14.5078 174.229 14.6737 174.279C14.8419 174.325 14.9915 174.401 15.1224 174.506C15.2532 174.609 15.3642 174.747 15.4554 174.92C15.5489 175.091 15.6201 175.3 15.6692 175.547C15.7183 175.795 15.7428 176.086 15.7428 176.42ZM15.0908 177.304V176.312C15.0908 176.083 15.0768 175.882 15.0488 175.709C15.023 175.533 14.9845 175.384 14.9331 175.26C14.8817 175.136 14.8162 175.036 14.7368 174.959C14.6597 174.881 14.5697 174.825 14.4669 174.79C14.3664 174.753 14.253 174.734 14.1268 174.734C13.9726 174.734 13.8359 174.763 13.7167 174.822C13.5975 174.878 13.497 174.968 13.4152 175.092C13.3358 175.216 13.275 175.378 13.2329 175.579C13.1909 175.78 13.1699 176.024 13.1699 176.312V177.304C13.1699 177.533 13.1827 177.735 13.2084 177.91C13.2365 178.085 13.2774 178.237 13.3311 178.366C13.3849 178.492 13.4503 178.596 13.5274 178.678C13.6045 178.76 13.6933 178.82 13.7938 178.86C13.8966 178.897 14.01 178.916 14.1338 178.916C14.2928 178.916 14.4318 178.886 14.551 178.825C14.6702 178.764 14.7695 178.67 14.8489 178.541C14.9307 178.41 14.9915 178.243 15.0312 178.04C15.071 177.834 15.0908 177.589 15.0908 177.304ZM19.7811 176.42V177.199C19.7811 177.617 19.7437 177.97 19.6689 178.257C19.5941 178.545 19.4866 178.776 19.3464 178.951C19.2062 179.127 19.0368 179.254 18.8381 179.333C18.6418 179.41 18.4198 179.449 18.1721 179.449C17.9758 179.449 17.7947 179.424 17.6287 179.375C17.4628 179.326 17.3133 179.248 17.18 179.141C17.0492 179.031 16.937 178.888 16.8435 178.713C16.7501 178.538 16.6788 178.325 16.6297 178.075C16.5806 177.825 16.5561 177.533 16.5561 177.199V176.42C16.5561 176.002 16.5935 175.651 16.6683 175.369C16.7454 175.086 16.854 174.859 16.9943 174.689C17.1345 174.516 17.3027 174.392 17.499 174.317C17.6977 174.242 17.9197 174.205 18.1651 174.205C18.3637 174.205 18.546 174.229 18.7119 174.279C18.8802 174.325 19.0297 174.401 19.1606 174.506C19.2915 174.609 19.4025 174.747 19.4936 174.92C19.5871 175.091 19.6584 175.3 19.7075 175.547C19.7565 175.795 19.7811 176.086 19.7811 176.42ZM19.1291 177.304V176.312C19.1291 176.083 19.115 175.882 19.087 175.709C19.0613 175.533 19.0227 175.384 18.9713 175.26C18.9199 175.136 18.8545 175.036 18.775 174.959C18.6979 174.881 18.6079 174.825 18.5051 174.79C18.4046 174.753 18.2913 174.734 18.1651 174.734C18.0108 174.734 17.8741 174.763 17.7549 174.822C17.6358 174.878 17.5353 174.968 17.4535 175.092C17.374 175.216 17.3133 175.378 17.2712 175.579C17.2291 175.78 17.2081 176.024 17.2081 176.312V177.304C17.2081 177.533 17.2209 177.735 17.2467 177.91C17.2747 178.085 17.3156 178.237 17.3693 178.366C17.4231 178.492 17.4885 178.596 17.5656 178.678C17.6428 178.76 17.7316 178.82 17.8321 178.86C17.9349 178.897 18.0482 178.916 18.1721 178.916C18.331 178.916 18.47 178.886 18.5892 178.825C18.7084 178.764 18.8077 178.67 18.8872 178.541C18.969 178.41 19.0297 178.243 19.0695 178.04C19.1092 177.834 19.1291 177.589 19.1291 177.304Z" fill="#7E7E7E"/>
<path d="M4.08912 142.243V142.775H0.748462V142.309L2.42055 140.448C2.6262 140.219 2.78511 140.025 2.89728 139.866C3.01179 139.705 3.09125 139.561 3.13565 139.435C3.18239 139.306 3.20576 139.175 3.20576 139.042C3.20576 138.874 3.1707 138.722 3.1006 138.586C3.03283 138.449 2.93234 138.339 2.79913 138.257C2.66592 138.175 2.50468 138.134 2.31538 138.134C2.0887 138.134 1.89941 138.179 1.74751 138.267C1.59794 138.354 1.48577 138.475 1.41099 138.632C1.3362 138.789 1.29881 138.969 1.29881 139.172H0.65031C0.65031 138.884 0.713408 138.621 0.839603 138.383C0.965798 138.145 1.15275 137.955 1.40047 137.815C1.64819 137.673 1.95316 137.601 2.31538 137.601C2.63788 137.601 2.91364 137.659 3.14266 137.773C3.37168 137.885 3.54695 138.044 3.66847 138.25C3.79233 138.453 3.85426 138.692 3.85426 138.965C3.85426 139.115 3.82855 139.266 3.77714 139.421C3.72807 139.573 3.65913 139.725 3.57032 139.876C3.48386 140.028 3.3822 140.178 3.26535 140.325C3.15084 140.472 3.02815 140.617 2.89728 140.76L1.53017 142.243H4.08912ZM7.98715 139.817V140.595C7.98715 141.013 7.94976 141.366 7.87497 141.654C7.80019 141.941 7.69269 142.172 7.55248 142.348C7.41226 142.523 7.24283 142.65 7.04419 142.73C6.84789 142.807 6.62588 142.845 6.37816 142.845C6.18186 142.845 6.00074 142.821 5.83482 142.772C5.6689 142.723 5.51933 142.645 5.38613 142.537C5.25526 142.427 5.14309 142.285 5.04961 142.109C4.95613 141.934 4.88485 141.721 4.83578 141.471C4.7867 141.221 4.76216 140.929 4.76216 140.595V139.817C4.76216 139.399 4.79956 139.048 4.87434 138.765C4.95146 138.482 5.06012 138.256 5.20034 138.085C5.34056 137.912 5.50882 137.788 5.70512 137.714C5.90376 137.639 6.12577 137.601 6.37115 137.601C6.56979 137.601 6.75207 137.626 6.918 137.675C7.08626 137.722 7.23582 137.798 7.36669 137.903C7.49756 138.006 7.60856 138.144 7.6997 138.317C7.79318 138.487 7.86446 138.696 7.91353 138.944C7.96261 139.192 7.98715 139.483 7.98715 139.817ZM7.33514 140.7V139.708C7.33514 139.479 7.32112 139.278 7.29308 139.105C7.26737 138.93 7.22881 138.78 7.1774 138.657C7.12598 138.533 7.06055 138.432 6.98109 138.355C6.90397 138.278 6.814 138.222 6.71118 138.187C6.61069 138.149 6.49735 138.131 6.37115 138.131C6.21691 138.131 6.0802 138.16 5.96102 138.218C5.84183 138.274 5.74134 138.364 5.65955 138.488C5.58009 138.612 5.51933 138.775 5.47727 138.976C5.4352 139.176 5.41417 139.421 5.41417 139.708V140.7C5.41417 140.929 5.42702 141.131 5.45273 141.307C5.48077 141.482 5.52167 141.634 5.57542 141.762C5.62917 141.889 5.69461 141.993 5.77172 142.074C5.84884 142.156 5.93765 142.217 6.03814 142.257C6.14096 142.294 6.2543 142.313 6.37816 142.313C6.53707 142.313 6.67612 142.282 6.79531 142.222C6.91449 142.161 7.01381 142.066 7.09327 141.938C7.17506 141.807 7.23582 141.64 7.27555 141.436C7.31528 141.231 7.33514 140.985 7.33514 140.7ZM12.0254 139.817V140.595C12.0254 141.013 11.988 141.366 11.9132 141.654C11.8384 141.941 11.7309 142.172 11.5907 142.348C11.4505 142.523 11.2811 142.65 11.0824 142.73C10.8861 142.807 10.6641 142.845 10.4164 142.845C10.2201 142.845 10.039 142.821 9.87306 142.772C9.70714 142.723 9.55757 142.645 9.42437 142.537C9.2935 142.427 9.18133 142.285 9.08785 142.109C8.99437 141.934 8.92309 141.721 8.87402 141.471C8.82494 141.221 8.8004 140.929 8.8004 140.595V139.817C8.8004 139.399 8.8378 139.048 8.91258 138.765C8.9897 138.482 9.09837 138.256 9.23858 138.085C9.3788 137.912 9.54706 137.788 9.74336 137.714C9.942 137.639 10.164 137.601 10.4094 137.601C10.608 137.601 10.7903 137.626 10.9562 137.675C11.1245 137.722 11.2741 137.798 11.4049 137.903C11.5358 138.006 11.6468 138.144 11.7379 138.317C11.8314 138.487 11.9027 138.696 11.9518 138.944C12.0009 139.192 12.0254 139.483 12.0254 139.817ZM11.3734 140.7V139.708C11.3734 139.479 11.3594 139.278 11.3313 139.105C11.3056 138.93 11.267 138.78 11.2156 138.657C11.1642 138.533 11.0988 138.432 11.0193 138.355C10.9422 138.278 10.8522 138.222 10.7494 138.187C10.6489 138.149 10.5356 138.131 10.4094 138.131C10.2552 138.131 10.1184 138.16 9.99926 138.218C9.88007 138.274 9.77958 138.364 9.69779 138.488C9.61834 138.612 9.55757 138.775 9.51551 138.976C9.47344 139.176 9.45241 139.421 9.45241 139.708V140.7C9.45241 140.929 9.46527 141.131 9.49097 141.307C9.51902 141.482 9.55991 141.634 9.61366 141.762C9.66741 141.889 9.73285 141.993 9.80996 142.074C9.88708 142.156 9.97589 142.217 10.0764 142.257C10.1792 142.294 10.2925 142.313 10.4164 142.313C10.5753 142.313 10.7144 142.282 10.8335 142.222C10.9527 142.161 11.0521 142.066 11.1315 141.938C11.2133 141.807 11.2741 141.64 11.3138 141.436C11.3535 141.231 11.3734 140.985 11.3734 140.7ZM16.0636 139.817V140.595C16.0636 141.013 16.0262 141.366 15.9515 141.654C15.8767 141.941 15.7692 142.172 15.629 142.348C15.4887 142.523 15.3193 142.65 15.1207 142.73C14.9244 142.807 14.7024 142.845 14.4546 142.845C14.2583 142.845 14.0772 142.821 13.9113 142.772C13.7454 142.723 13.5958 142.645 13.4626 142.537C13.3317 142.427 13.2196 142.285 13.1261 142.109C13.0326 141.934 12.9613 141.721 12.9123 141.471C12.8632 141.221 12.8386 140.929 12.8386 140.595V139.817C12.8386 139.399 12.876 139.048 12.9508 138.765C13.0279 138.482 13.1366 138.256 13.2768 138.085C13.417 137.912 13.5853 137.788 13.7816 137.714C13.9802 137.639 14.2023 137.601 14.4476 137.601C14.6463 137.601 14.8286 137.626 14.9945 137.675C15.1627 137.722 15.3123 137.798 15.4432 137.903C15.574 138.006 15.685 138.144 15.7762 138.317C15.8697 138.487 15.9409 138.696 15.99 138.944C16.0391 139.192 16.0636 139.483 16.0636 139.817ZM15.4116 140.7V139.708C15.4116 139.479 15.3976 139.278 15.3696 139.105C15.3438 138.93 15.3053 138.78 15.2539 138.657C15.2025 138.533 15.137 138.432 15.0576 138.355C14.9805 138.278 14.8905 138.222 14.7877 138.187C14.6872 138.149 14.5738 138.131 14.4476 138.131C14.2934 138.131 14.1567 138.16 14.0375 138.218C13.9183 138.274 13.8178 138.364 13.736 138.488C13.6566 138.612 13.5958 138.775 13.5538 138.976C13.5117 139.176 13.4907 139.421 13.4907 139.708V140.7C13.4907 140.929 13.5035 141.131 13.5292 141.307C13.5573 141.482 13.5982 141.634 13.6519 141.762C13.7057 141.889 13.7711 141.993 13.8482 142.074C13.9253 142.156 14.0141 142.217 14.1146 142.257C14.2174 142.294 14.3308 142.313 14.4546 142.313C14.6136 142.313 14.7526 142.282 14.8718 142.222C14.991 142.161 15.0903 142.066 15.1697 141.938C15.2515 141.807 15.3123 141.64 15.352 141.436C15.3918 141.231 15.4116 140.985 15.4116 140.7ZM20.1019 139.817V140.595C20.1019 141.013 20.0645 141.366 19.9897 141.654C19.9149 141.941 19.8074 142.172 19.6672 142.348C19.527 142.523 19.3576 142.65 19.1589 142.73C18.9626 142.807 18.7406 142.845 18.4929 142.845C18.2966 142.845 18.1155 142.821 17.9495 142.772C17.7836 142.723 17.6341 142.645 17.5008 142.537C17.37 142.427 17.2578 142.285 17.1643 142.109C17.0709 141.934 16.9996 141.721 16.9505 141.471C16.9014 141.221 16.8769 140.929 16.8769 140.595V139.817C16.8769 139.399 16.9143 139.048 16.9891 138.765C17.0662 138.482 17.1748 138.256 17.3151 138.085C17.4553 137.912 17.6235 137.788 17.8198 137.714C18.0185 137.639 18.2405 137.601 18.4859 137.601C18.6845 137.601 18.8668 137.626 19.0327 137.675C19.201 137.722 19.3505 137.798 19.4814 137.903C19.6123 138.006 19.7233 138.144 19.8144 138.317C19.9079 138.487 19.9792 138.696 20.0283 138.944C20.0773 139.192 20.1019 139.483 20.1019 139.817ZM19.4499 140.7V139.708C19.4499 139.479 19.4358 139.278 19.4078 139.105C19.3821 138.93 19.3435 138.78 19.2921 138.657C19.2407 138.533 19.1753 138.432 19.0958 138.355C19.0187 138.278 18.9287 138.222 18.8259 138.187C18.7254 138.149 18.6121 138.131 18.4859 138.131C18.3316 138.131 18.1949 138.16 18.0757 138.218C17.9566 138.274 17.8561 138.364 17.7743 138.488C17.6948 138.612 17.6341 138.775 17.592 138.976C17.5499 139.176 17.5289 139.421 17.5289 139.708V140.7C17.5289 140.929 17.5417 141.131 17.5675 141.307C17.5955 141.482 17.6364 141.634 17.6901 141.762C17.7439 141.889 17.8093 141.993 17.8864 142.074C17.9636 142.156 18.0524 142.217 18.1529 142.257C18.2557 142.294 18.369 142.313 18.4929 142.313C18.6518 142.313 18.7908 142.282 18.91 142.222C19.0292 142.161 19.1285 142.066 19.208 141.938C19.2898 141.807 19.3505 141.64 19.3903 141.436C19.43 141.231 19.4499 140.985 19.4499 140.7Z" fill="#7E7E7E"/>
<path d="M1.69142 103.303H2.15413C2.38082 103.303 2.56777 103.266 2.715 103.191C2.86457 103.114 2.97557 103.01 3.04802 102.879C3.1228 102.746 3.16019 102.596 3.16019 102.43C3.16019 102.234 3.12747 102.069 3.06204 101.936C2.9966 101.803 2.89845 101.702 2.76758 101.634C2.63671 101.567 2.47079 101.533 2.26981 101.533C2.08753 101.533 1.92628 101.569 1.78607 101.641C1.64819 101.711 1.53952 101.812 1.46006 101.943C1.38294 102.074 1.34438 102.228 1.34438 102.406H0.69588C0.69588 102.146 0.761315 101.91 0.892184 101.697C1.02305 101.485 1.2065 101.315 1.44253 101.189C1.6809 101.063 1.95666 101 2.26981 101C2.57829 101 2.84821 101.055 3.07956 101.165C3.31092 101.272 3.49087 101.433 3.6194 101.648C3.74793 101.861 3.8122 102.126 3.8122 102.444C3.8122 102.573 3.78182 102.71 3.72106 102.858C3.66263 103.003 3.57032 103.138 3.44413 103.264C3.32027 103.391 3.15902 103.495 2.96038 103.576C2.76174 103.656 2.52337 103.695 2.24527 103.695H1.69142V103.303ZM1.69142 103.836V103.447H2.24527C2.57011 103.447 2.83886 103.485 3.05152 103.562C3.26418 103.639 3.43127 103.742 3.5528 103.871C3.67665 103.999 3.76312 104.141 3.8122 104.295C3.86361 104.447 3.88932 104.599 3.88932 104.751C3.88932 104.989 3.84842 105.2 3.76663 105.385C3.68717 105.57 3.57383 105.726 3.4266 105.855C3.28171 105.983 3.11111 106.08 2.91481 106.146C2.71851 106.211 2.50468 106.244 2.27332 106.244C2.05131 106.244 1.84215 106.212 1.64585 106.149C1.45188 106.086 1.28012 105.995 1.13055 105.876C0.980988 105.754 0.86414 105.606 0.78001 105.431C0.69588 105.253 0.653815 105.051 0.653815 104.824H1.30232C1.30232 105.002 1.34088 105.157 1.418 105.29C1.49745 105.424 1.60963 105.528 1.75452 105.602C1.90174 105.675 2.07468 105.711 2.27332 105.711C2.47196 105.711 2.64256 105.677 2.78511 105.609C2.93 105.539 3.041 105.434 3.11812 105.294C3.19758 105.154 3.23731 104.977 3.23731 104.765C3.23731 104.552 3.19291 104.378 3.1041 104.242C3.0153 104.104 2.8891 104.003 2.72552 103.937C2.56427 103.87 2.37381 103.836 2.15413 103.836H1.69142ZM7.98715 103.215V103.993C7.98715 104.412 7.94976 104.765 7.87497 105.052C7.80019 105.34 7.69269 105.571 7.55248 105.746C7.41226 105.921 7.24283 106.049 7.04419 106.128C6.84789 106.205 6.62588 106.244 6.37816 106.244C6.18186 106.244 6.00074 106.219 5.83482 106.17C5.6689 106.121 5.51933 106.043 5.38613 105.935C5.25526 105.826 5.14309 105.683 5.04961 105.508C4.95613 105.333 4.88485 105.12 4.83578 104.87C4.7867 104.62 4.76216 104.328 4.76216 103.993V103.215C4.76216 102.797 4.79956 102.446 4.87434 102.164C4.95146 101.881 5.06012 101.654 5.20034 101.484C5.34056 101.311 5.50882 101.187 5.70512 101.112C5.90376 101.037 6.12577 101 6.37115 101C6.56979 101 6.75207 101.024 6.918 101.073C7.08626 101.12 7.23582 101.196 7.36669 101.301C7.49756 101.404 7.60856 101.542 7.6997 101.715C7.79318 101.886 7.86446 102.095 7.91353 102.342C7.96261 102.59 7.98715 102.881 7.98715 103.215ZM7.33514 104.099V103.107C7.33514 102.878 7.32112 102.677 7.29308 102.504C7.26737 102.328 7.22881 102.179 7.1774 102.055C7.12598 101.931 7.06055 101.831 6.98109 101.753C6.90397 101.676 6.814 101.62 6.71118 101.585C6.61069 101.548 6.49735 101.529 6.37115 101.529C6.21691 101.529 6.0802 101.558 5.96102 101.617C5.84183 101.673 5.74134 101.763 5.65955 101.887C5.58009 102.011 5.51933 102.173 5.47727 102.374C5.4352 102.575 5.41417 102.819 5.41417 103.107V104.099C5.41417 104.328 5.42702 104.53 5.45273 104.705C5.48077 104.88 5.52167 105.032 5.57542 105.161C5.62917 105.287 5.69461 105.391 5.77172 105.473C5.84884 105.555 5.93765 105.615 6.03814 105.655C6.14096 105.692 6.2543 105.711 6.37816 105.711C6.53707 105.711 6.67612 105.681 6.79531 105.62C6.91449 105.559 7.01381 105.465 7.09327 105.336C7.17506 105.205 7.23582 105.038 7.27555 104.835C7.31528 104.629 7.33514 104.384 7.33514 104.099ZM12.0254 103.215V103.993C12.0254 104.412 11.988 104.765 11.9132 105.052C11.8384 105.34 11.7309 105.571 11.5907 105.746C11.4505 105.921 11.2811 106.049 11.0824 106.128C10.8861 106.205 10.6641 106.244 10.4164 106.244C10.2201 106.244 10.039 106.219 9.87306 106.17C9.70714 106.121 9.55757 106.043 9.42437 105.935C9.2935 105.826 9.18133 105.683 9.08785 105.508C8.99437 105.333 8.92309 105.12 8.87402 104.87C8.82494 104.62 8.8004 104.328 8.8004 103.993V103.215C8.8004 102.797 8.8378 102.446 8.91258 102.164C8.9897 101.881 9.09837 101.654 9.23858 101.484C9.3788 101.311 9.54706 101.187 9.74336 101.112C9.942 101.037 10.164 101 10.4094 101C10.608 101 10.7903 101.024 10.9562 101.073C11.1245 101.12 11.2741 101.196 11.4049 101.301C11.5358 101.404 11.6468 101.542 11.7379 101.715C11.8314 101.886 11.9027 102.095 11.9518 102.342C12.0009 102.59 12.0254 102.881 12.0254 103.215ZM11.3734 104.099V103.107C11.3734 102.878 11.3594 102.677 11.3313 102.504C11.3056 102.328 11.267 102.179 11.2156 102.055C11.1642 101.931 11.0988 101.831 11.0193 101.753C10.9422 101.676 10.8522 101.62 10.7494 101.585C10.6489 101.548 10.5356 101.529 10.4094 101.529C10.2552 101.529 10.1184 101.558 9.99926 101.617C9.88007 101.673 9.77958 101.763 9.69779 101.887C9.61834 102.011 9.55757 102.173 9.51551 102.374C9.47344 102.575 9.45241 102.819 9.45241 103.107V104.099C9.45241 104.328 9.46527 104.53 9.49097 104.705C9.51902 104.88 9.55991 105.032 9.61366 105.161C9.66741 105.287 9.73285 105.391 9.80996 105.473C9.88708 105.555 9.97589 105.615 10.0764 105.655C10.1792 105.692 10.2925 105.711 10.4164 105.711C10.5753 105.711 10.7144 105.681 10.8335 105.62C10.9527 105.559 11.0521 105.465 11.1315 105.336C11.2133 105.205 11.2741 105.038 11.3138 104.835C11.3535 104.629 11.3734 104.384 11.3734 104.099ZM16.0636 103.215V103.993C16.0636 104.412 16.0262 104.765 15.9515 105.052C15.8767 105.34 15.7692 105.571 15.629 105.746C15.4887 105.921 15.3193 106.049 15.1207 106.128C14.9244 106.205 14.7024 106.244 14.4546 106.244C14.2583 106.244 14.0772 106.219 13.9113 106.17C13.7454 106.121 13.5958 106.043 13.4626 105.935C13.3317 105.826 13.2196 105.683 13.1261 105.508C13.0326 105.333 12.9613 105.12 12.9123 104.87C12.8632 104.62 12.8386 104.328 12.8386 103.993V103.215C12.8386 102.797 12.876 102.446 12.9508 102.164C13.0279 101.881 13.1366 101.654 13.2768 101.484C13.417 101.311 13.5853 101.187 13.7816 101.112C13.9802 101.037 14.2023 101 14.4476 101C14.6463 101 14.8286 101.024 14.9945 101.073C15.1627 101.12 15.3123 101.196 15.4432 101.301C15.574 101.404 15.685 101.542 15.7762 101.715C15.8697 101.886 15.9409 102.095 15.99 102.342C16.0391 102.59 16.0636 102.881 16.0636 103.215ZM15.4116 104.099V103.107C15.4116 102.878 15.3976 102.677 15.3696 102.504C15.3438 102.328 15.3053 102.179 15.2539 102.055C15.2025 101.931 15.137 101.831 15.0576 101.753C14.9805 101.676 14.8905 101.62 14.7877 101.585C14.6872 101.548 14.5738 101.529 14.4476 101.529C14.2934 101.529 14.1567 101.558 14.0375 101.617C13.9183 101.673 13.8178 101.763 13.736 101.887C13.6566 102.011 13.5958 102.173 13.5538 102.374C13.5117 102.575 13.4907 102.819 13.4907 103.107V104.099C13.4907 104.328 13.5035 104.53 13.5292 104.705C13.5573 104.88 13.5982 105.032 13.6519 105.161C13.7057 105.287 13.7711 105.391 13.8482 105.473C13.9253 105.555 14.0141 105.615 14.1146 105.655C14.2174 105.692 14.3308 105.711 14.4546 105.711C14.6136 105.711 14.7526 105.681 14.8718 105.62C14.991 105.559 15.0903 105.465 15.1697 105.336C15.2515 105.205 15.3123 105.038 15.352 104.835C15.3918 104.629 15.4116 104.384 15.4116 104.099ZM20.1019 103.215V103.993C20.1019 104.412 20.0645 104.765 19.9897 105.052C19.9149 105.34 19.8074 105.571 19.6672 105.746C19.527 105.921 19.3576 106.049 19.1589 106.128C18.9626 106.205 18.7406 106.244 18.4929 106.244C18.2966 106.244 18.1155 106.219 17.9495 106.17C17.7836 106.121 17.6341 106.043 17.5008 105.935C17.37 105.826 17.2578 105.683 17.1643 105.508C17.0709 105.333 16.9996 105.12 16.9505 104.87C16.9014 104.62 16.8769 104.328 16.8769 103.993V103.215C16.8769 102.797 16.9143 102.446 16.9891 102.164C17.0662 101.881 17.1748 101.654 17.3151 101.484C17.4553 101.311 17.6235 101.187 17.8198 101.112C18.0185 101.037 18.2405 101 18.4859 101C18.6845 101 18.8668 101.024 19.0327 101.073C19.201 101.12 19.3505 101.196 19.4814 101.301C19.6123 101.404 19.7233 101.542 19.8144 101.715C19.9079 101.886 19.9792 102.095 20.0283 102.342C20.0773 102.59 20.1019 102.881 20.1019 103.215ZM19.4499 104.099V103.107C19.4499 102.878 19.4358 102.677 19.4078 102.504C19.3821 102.328 19.3435 102.179 19.2921 102.055C19.2407 101.931 19.1753 101.831 19.0958 101.753C19.0187 101.676 18.9287 101.62 18.8259 101.585C18.7254 101.548 18.6121 101.529 18.4859 101.529C18.3316 101.529 18.1949 101.558 18.0757 101.617C17.9566 101.673 17.8561 101.763 17.7743 101.887C17.6948 102.011 17.6341 102.173 17.592 102.374C17.5499 102.575 17.5289 102.819 17.5289 103.107V104.099C17.5289 104.328 17.5417 104.53 17.5675 104.705C17.5955 104.88 17.6364 105.032 17.6901 105.161C17.7439 105.287 17.8093 105.391 17.8864 105.473C17.9636 105.555 18.0524 105.615 18.1529 105.655C18.2557 105.692 18.369 105.711 18.4929 105.711C18.6518 105.711 18.7908 105.681 18.91 105.62C19.0292 105.559 19.1285 105.465 19.208 105.336C19.2898 105.205 19.3505 105.038 19.3903 104.835C19.43 104.629 19.4499 104.384 19.4499 104.099Z" fill="#7E7E7E"/>
<path d="M4.19429 67.8546V68.3874H0.506588V68.0053L2.79212 64.4684H3.32144L2.75356 65.492L1.24273 67.8546H4.19429ZM3.48269 64.4684V69.5723H2.83418V64.4684H3.48269ZM7.98715 66.6137V67.3919C7.98715 67.8102 7.94976 68.1631 7.87497 68.4505C7.80019 68.738 7.69269 68.9693 7.55248 69.1446C7.41226 69.3199 7.24283 69.4472 7.04419 69.5267C6.84789 69.6038 6.62588 69.6424 6.37816 69.6424C6.18186 69.6424 6.00074 69.6178 5.83482 69.5688C5.6689 69.5197 5.51933 69.4414 5.38613 69.3339C5.25526 69.2241 5.14309 69.0815 5.04961 68.9062C4.95613 68.731 4.88485 68.5183 4.83578 68.2683C4.7867 68.0182 4.76216 67.7261 4.76216 67.3919V66.6137C4.76216 66.1954 4.79956 65.8448 4.87434 65.5621C4.95146 65.2793 5.06012 65.0526 5.20034 64.882C5.34056 64.7091 5.50882 64.5852 5.70512 64.5104C5.90376 64.4357 6.12577 64.3983 6.37115 64.3983C6.56979 64.3983 6.75207 64.4228 6.918 64.4719C7.08626 64.5186 7.23582 64.5946 7.36669 64.6997C7.49756 64.8026 7.60856 64.9404 7.6997 65.1134C7.79318 65.284 7.86446 65.4931 7.91353 65.7408C7.96261 65.9886 7.98715 66.2795 7.98715 66.6137ZM7.33514 67.4971V66.505C7.33514 66.276 7.32112 66.075 7.29308 65.9021C7.26737 65.7268 7.22881 65.5773 7.1774 65.4534C7.12598 65.3295 7.06055 65.2291 6.98109 65.1519C6.90397 65.0748 6.814 65.0187 6.71118 64.9837C6.61069 64.9463 6.49735 64.9276 6.37115 64.9276C6.21691 64.9276 6.0802 64.9568 5.96102 65.0152C5.84183 65.0713 5.74134 65.1613 5.65955 65.2851C5.58009 65.409 5.51933 65.5714 5.47727 65.7724C5.4352 65.9734 5.41417 66.2176 5.41417 66.505V67.4971C5.41417 67.7261 5.42702 67.9282 5.45273 68.1035C5.48077 68.2788 5.52167 68.4307 5.57542 68.5592C5.62917 68.6854 5.69461 68.7894 5.77172 68.8712C5.84884 68.953 5.93765 69.0137 6.03814 69.0535C6.14096 69.0909 6.2543 69.1096 6.37816 69.1096C6.53707 69.1096 6.67612 69.0792 6.79531 69.0184C6.91449 68.9576 7.01381 68.863 7.09327 68.7345C7.17506 68.6036 7.23582 68.4365 7.27555 68.2332C7.31528 68.0275 7.33514 67.7822 7.33514 67.4971ZM12.0254 66.6137V67.3919C12.0254 67.8102 11.988 68.1631 11.9132 68.4505C11.8384 68.738 11.7309 68.9693 11.5907 69.1446C11.4505 69.3199 11.2811 69.4472 11.0824 69.5267C10.8861 69.6038 10.6641 69.6424 10.4164 69.6424C10.2201 69.6424 10.039 69.6178 9.87306 69.5688C9.70714 69.5197 9.55757 69.4414 9.42437 69.3339C9.2935 69.2241 9.18133 69.0815 9.08785 68.9062C8.99437 68.731 8.92309 68.5183 8.87402 68.2683C8.82494 68.0182 8.8004 67.7261 8.8004 67.3919V66.6137C8.8004 66.1954 8.8378 65.8448 8.91258 65.5621C8.9897 65.2793 9.09837 65.0526 9.23858 64.882C9.3788 64.7091 9.54706 64.5852 9.74336 64.5104C9.942 64.4357 10.164 64.3983 10.4094 64.3983C10.608 64.3983 10.7903 64.4228 10.9562 64.4719C11.1245 64.5186 11.2741 64.5946 11.4049 64.6997C11.5358 64.8026 11.6468 64.9404 11.7379 65.1134C11.8314 65.284 11.9027 65.4931 11.9518 65.7408C12.0009 65.9886 12.0254 66.2795 12.0254 66.6137ZM11.3734 67.4971V66.505C11.3734 66.276 11.3594 66.075 11.3313 65.9021C11.3056 65.7268 11.267 65.5773 11.2156 65.4534C11.1642 65.3295 11.0988 65.2291 11.0193 65.1519C10.9422 65.0748 10.8522 65.0187 10.7494 64.9837C10.6489 64.9463 10.5356 64.9276 10.4094 64.9276C10.2552 64.9276 10.1184 64.9568 9.99926 65.0152C9.88007 65.0713 9.77958 65.1613 9.69779 65.2851C9.61834 65.409 9.55757 65.5714 9.51551 65.7724C9.47344 65.9734 9.45241 66.2176 9.45241 66.505V67.4971C9.45241 67.7261 9.46527 67.9282 9.49097 68.1035C9.51902 68.2788 9.55991 68.4307 9.61366 68.5592C9.66741 68.6854 9.73285 68.7894 9.80996 68.8712C9.88708 68.953 9.97589 69.0137 10.0764 69.0535C10.1792 69.0909 10.2925 69.1096 10.4164 69.1096C10.5753 69.1096 10.7144 69.0792 10.8335 69.0184C10.9527 68.9576 11.0521 68.863 11.1315 68.7345C11.2133 68.6036 11.2741 68.4365 11.3138 68.2332C11.3535 68.0275 11.3734 67.7822 11.3734 67.4971ZM16.0636 66.6137V67.3919C16.0636 67.8102 16.0262 68.1631 15.9515 68.4505C15.8767 68.738 15.7692 68.9693 15.629 69.1446C15.4887 69.3199 15.3193 69.4472 15.1207 69.5267C14.9244 69.6038 14.7024 69.6424 14.4546 69.6424C14.2583 69.6424 14.0772 69.6178 13.9113 69.5688C13.7454 69.5197 13.5958 69.4414 13.4626 69.3339C13.3317 69.2241 13.2196 69.0815 13.1261 68.9062C13.0326 68.731 12.9613 68.5183 12.9123 68.2683C12.8632 68.0182 12.8386 67.7261 12.8386 67.3919V66.6137C12.8386 66.1954 12.876 65.8448 12.9508 65.5621C13.0279 65.2793 13.1366 65.0526 13.2768 64.882C13.417 64.7091 13.5853 64.5852 13.7816 64.5104C13.9802 64.4357 14.2023 64.3983 14.4476 64.3983C14.6463 64.3983 14.8286 64.4228 14.9945 64.4719C15.1627 64.5186 15.3123 64.5946 15.4432 64.6997C15.574 64.8026 15.685 64.9404 15.7762 65.1134C15.8697 65.284 15.9409 65.4931 15.99 65.7408C16.0391 65.9886 16.0636 66.2795 16.0636 66.6137ZM15.4116 67.4971V66.505C15.4116 66.276 15.3976 66.075 15.3696 65.9021C15.3438 65.7268 15.3053 65.5773 15.2539 65.4534C15.2025 65.3295 15.137 65.2291 15.0576 65.1519C14.9805 65.0748 14.8905 65.0187 14.7877 64.9837C14.6872 64.9463 14.5738 64.9276 14.4476 64.9276C14.2934 64.9276 14.1567 64.9568 14.0375 65.0152C13.9183 65.0713 13.8178 65.1613 13.736 65.2851C13.6566 65.409 13.5958 65.5714 13.5538 65.7724C13.5117 65.9734 13.4907 66.2176 13.4907 66.505V67.4971C13.4907 67.7261 13.5035 67.9282 13.5292 68.1035C13.5573 68.2788 13.5982 68.4307 13.6519 68.5592C13.7057 68.6854 13.7711 68.7894 13.8482 68.8712C13.9253 68.953 14.0141 69.0137 14.1146 69.0535C14.2174 69.0909 14.3308 69.1096 14.4546 69.1096C14.6136 69.1096 14.7526 69.0792 14.8718 69.0184C14.991 68.9576 15.0903 68.863 15.1697 68.7345C15.2515 68.6036 15.3123 68.4365 15.352 68.2332C15.3918 68.0275 15.4116 67.7822 15.4116 67.4971ZM20.1019 66.6137V67.3919C20.1019 67.8102 20.0645 68.1631 19.9897 68.4505C19.9149 68.738 19.8074 68.9693 19.6672 69.1446C19.527 69.3199 19.3576 69.4472 19.1589 69.5267C18.9626 69.6038 18.7406 69.6424 18.4929 69.6424C18.2966 69.6424 18.1155 69.6178 17.9495 69.5688C17.7836 69.5197 17.6341 69.4414 17.5008 69.3339C17.37 69.2241 17.2578 69.0815 17.1643 68.9062C17.0709 68.731 16.9996 68.5183 16.9505 68.2683C16.9014 68.0182 16.8769 67.7261 16.8769 67.3919V66.6137C16.8769 66.1954 16.9143 65.8448 16.9891 65.5621C17.0662 65.2793 17.1748 65.0526 17.3151 64.882C17.4553 64.7091 17.6235 64.5852 17.8198 64.5104C18.0185 64.4357 18.2405 64.3983 18.4859 64.3983C18.6845 64.3983 18.8668 64.4228 19.0327 64.4719C19.201 64.5186 19.3505 64.5946 19.4814 64.6997C19.6123 64.8026 19.7233 64.9404 19.8144 65.1134C19.9079 65.284 19.9792 65.4931 20.0283 65.7408C20.0773 65.9886 20.1019 66.2795 20.1019 66.6137ZM19.4499 67.4971V66.505C19.4499 66.276 19.4358 66.075 19.4078 65.9021C19.3821 65.7268 19.3435 65.5773 19.2921 65.4534C19.2407 65.3295 19.1753 65.2291 19.0958 65.1519C19.0187 65.0748 18.9287 65.0187 18.8259 64.9837C18.7254 64.9463 18.6121 64.9276 18.4859 64.9276C18.3316 64.9276 18.1949 64.9568 18.0757 65.0152C17.9566 65.0713 17.8561 65.1613 17.7743 65.2851C17.6948 65.409 17.6341 65.5714 17.592 65.7724C17.5499 65.9734 17.5289 66.2176 17.5289 66.505V67.4971C17.5289 67.7261 17.5417 67.9282 17.5675 68.1035C17.5955 68.2788 17.6364 68.4307 17.6901 68.5592C17.7439 68.6854 17.8093 68.7894 17.8864 68.8712C17.9636 68.953 18.0524 69.0137 18.1529 69.0535C18.2557 69.0909 18.369 69.1096 18.4929 69.1096C18.6518 69.1096 18.7908 69.0792 18.91 69.0184C19.0292 68.9576 19.1285 68.863 19.208 68.7345C19.2898 68.6036 19.3505 68.4365 19.3903 68.2332C19.43 68.0275 19.4499 67.7822 19.4499 67.4971Z" fill="#7E7E7E"/>
<path d="M1.56474 30.5356L1.04593 30.4024L1.30183 27.861H3.92038V28.4604H1.85218L1.69794 29.8485C1.79142 29.7948 1.90943 29.7445 2.05199 29.6978C2.19688 29.6511 2.3628 29.6277 2.54976 29.6277C2.78579 29.6277 2.99728 29.6686 3.18424 29.7504C3.37119 29.8298 3.53011 29.9443 3.66098 30.0939C3.79418 30.2435 3.89584 30.4234 3.96595 30.6337C4.03605 30.8441 4.07111 31.0789 4.07111 31.3383C4.07111 31.5837 4.03722 31.8092 3.96945 32.0149C3.90402 32.2205 3.8047 32.4005 3.67149 32.5547C3.53829 32.7066 3.37003 32.8246 3.16671 32.9088C2.96573 32.9929 2.72853 33.035 2.45511 33.035C2.24946 33.035 2.05433 33.0069 1.86971 32.9508C1.68743 32.8924 1.52384 32.8048 1.37895 32.6879C1.23639 32.5687 1.11955 32.4215 1.02841 32.2462C0.939603 32.0686 0.883516 31.8606 0.860147 31.6223H1.4771C1.50514 31.8139 1.56123 31.9751 1.64536 32.106C1.72949 32.2369 1.83933 32.3362 1.97487 32.404C2.11275 32.4694 2.27283 32.5021 2.45511 32.5021C2.60935 32.5021 2.74606 32.4753 2.86525 32.4215C2.98443 32.3678 3.08492 32.2906 3.16671 32.1901C3.2485 32.0897 3.31043 31.9681 3.3525 31.8256C3.3969 31.683 3.4191 31.5229 3.4191 31.3453C3.4191 31.1841 3.3969 31.0345 3.3525 30.8966C3.3081 30.7588 3.24149 30.6384 3.15269 30.5356C3.06622 30.4328 2.95989 30.3533 2.8337 30.2972C2.7075 30.2388 2.56261 30.2096 2.39902 30.2096C2.18169 30.2096 2.01693 30.2388 1.90476 30.2972C1.79492 30.3556 1.68158 30.4351 1.56474 30.5356ZM7.98666 30.0063V30.7845C7.98666 31.2028 7.94927 31.5557 7.87449 31.8431C7.7997 32.1306 7.6922 32.3619 7.55199 32.5372C7.41177 32.7125 7.24234 32.8398 7.0437 32.9193C6.8474 32.9964 6.62539 33.035 6.37767 33.035C6.18137 33.035 6.00026 33.0104 5.83433 32.9613C5.66841 32.9123 5.51885 32.834 5.38564 32.7265C5.25477 32.6166 5.1426 32.4741 5.04912 32.2988C4.95564 32.1235 4.88437 31.9109 4.83529 31.6608C4.78621 31.4108 4.76168 31.1187 4.76168 30.7845V30.0063C4.76168 29.588 4.79907 29.2374 4.87385 28.9546C4.95097 28.6719 5.05964 28.4452 5.19985 28.2746C5.34007 28.1017 5.50833 27.9778 5.70463 27.903C5.90327 27.8282 6.12528 27.7908 6.37066 27.7908C6.5693 27.7908 6.75158 27.8154 6.91751 27.8645C7.08577 27.9112 7.23533 27.9872 7.3662 28.0923C7.49707 28.1951 7.60807 28.333 7.69922 28.506C7.79269 28.6766 7.86397 28.8857 7.91305 29.1334C7.96212 29.3811 7.98666 29.6721 7.98666 30.0063ZM7.33465 30.8896V29.8976C7.33465 29.6686 7.32063 29.4676 7.29259 29.2947C7.26688 29.1194 7.22832 28.9698 7.17691 28.846C7.1255 28.7221 7.06006 28.6216 6.9806 28.5445C6.90349 28.4674 6.81351 28.4113 6.71069 28.3763C6.6102 28.3389 6.49686 28.3202 6.37066 28.3202C6.21642 28.3202 6.07971 28.3494 5.96053 28.4078C5.84134 28.4639 5.74086 28.5539 5.65906 28.6777C5.57961 28.8016 5.51885 28.964 5.47678 29.165C5.43472 29.3659 5.41368 29.6102 5.41368 29.8976V30.8896C5.41368 31.1187 5.42654 31.3208 5.45224 31.4961C5.48029 31.6713 5.52118 31.8232 5.57493 31.9518C5.62868 32.078 5.69412 32.182 5.77124 32.2638C5.84836 32.3456 5.93716 32.4063 6.03765 32.446C6.14047 32.4834 6.25382 32.5021 6.37767 32.5021C6.53659 32.5021 6.67563 32.4717 6.79482 32.411C6.914 32.3502 7.01332 32.2556 7.09278 32.127C7.17457 31.9962 7.23533 31.8291 7.27506 31.6258C7.31479 31.4201 7.33465 31.1747 7.33465 30.8896ZM12.0249 30.0063V30.7845C12.0249 31.2028 11.9875 31.5557 11.9127 31.8431C11.8379 32.1306 11.7304 32.3619 11.5902 32.5372C11.45 32.7125 11.2806 32.8398 11.0819 32.9193C10.8856 32.9964 10.6636 33.035 10.4159 33.035C10.2196 33.035 10.0385 33.0104 9.87257 32.9613C9.70665 32.9123 9.55709 32.834 9.42388 32.7265C9.29301 32.6166 9.18084 32.4741 9.08736 32.2988C8.99388 32.1235 8.92261 31.9109 8.87353 31.6608C8.82445 31.4108 8.79992 31.1187 8.79992 30.7845V30.0063C8.79992 29.588 8.83731 29.2374 8.91209 28.9546C8.98921 28.6719 9.09788 28.4452 9.23809 28.2746C9.37831 28.1017 9.54657 27.9778 9.74287 27.903C9.94151 27.8282 10.1635 27.7908 10.4089 27.7908C10.6075 27.7908 10.7898 27.8154 10.9557 27.8645C11.124 27.9112 11.2736 27.9872 11.4044 28.0923C11.5353 28.1951 11.6463 28.333 11.7375 28.506C11.8309 28.6766 11.9022 28.8857 11.9513 29.1334C12.0004 29.3811 12.0249 29.6721 12.0249 30.0063ZM11.3729 30.8896V29.8976C11.3729 29.6686 11.3589 29.4676 11.3308 29.2947C11.3051 29.1194 11.2666 28.9698 11.2151 28.846C11.1637 28.7221 11.0983 28.6216 11.0188 28.5445C10.9417 28.4674 10.8518 28.4113 10.7489 28.3763C10.6484 28.3389 10.5351 28.3202 10.4089 28.3202C10.2547 28.3202 10.118 28.3494 9.99877 28.4078C9.87958 28.4639 9.7791 28.5539 9.6973 28.6777C9.61785 28.8016 9.55709 28.964 9.51502 29.165C9.47296 29.3659 9.45192 29.6102 9.45192 29.8976V30.8896C9.45192 31.1187 9.46478 31.3208 9.49048 31.4961C9.51853 31.6713 9.55942 31.8232 9.61317 31.9518C9.66692 32.078 9.73236 32.182 9.80948 32.2638C9.8866 32.3456 9.9754 32.4063 10.0759 32.446C10.1787 32.4834 10.2921 32.5021 10.4159 32.5021C10.5748 32.5021 10.7139 32.4717 10.8331 32.411C10.9522 32.3502 11.0516 32.2556 11.131 32.127C11.2128 31.9962 11.2736 31.8291 11.3133 31.6258C11.353 31.4201 11.3729 31.1747 11.3729 30.8896ZM16.0631 30.0063V30.7845C16.0631 31.2028 16.0257 31.5557 15.951 31.8431C15.8762 32.1306 15.7687 32.3619 15.6285 32.5372C15.4883 32.7125 15.3188 32.8398 15.1202 32.9193C14.9239 32.9964 14.7019 33.035 14.4542 33.035C14.2579 33.035 14.0767 33.0104 13.9108 32.9613C13.7449 32.9123 13.5953 32.834 13.4621 32.7265C13.3313 32.6166 13.2191 32.4741 13.1256 32.2988C13.0321 32.1235 12.9608 31.9109 12.9118 31.6608C12.8627 31.4108 12.8382 31.1187 12.8382 30.7845V30.0063C12.8382 29.588 12.8755 29.2374 12.9503 28.9546C13.0274 28.6719 13.1361 28.4452 13.2763 28.2746C13.4166 28.1017 13.5848 27.9778 13.7811 27.903C13.9798 27.8282 14.2018 27.7908 14.4471 27.7908C14.6458 27.7908 14.8281 27.8154 14.994 27.8645C15.1622 27.9112 15.3118 27.9872 15.4427 28.0923C15.5736 28.1951 15.6846 28.333 15.7757 28.506C15.8692 28.6766 15.9405 28.8857 15.9895 29.1334C16.0386 29.3811 16.0631 29.6721 16.0631 30.0063ZM15.4111 30.8896V29.8976C15.4111 29.6686 15.3971 29.4676 15.3691 29.2947C15.3434 29.1194 15.3048 28.9698 15.2534 28.846C15.202 28.7221 15.1365 28.6216 15.0571 28.5445C14.98 28.4674 14.89 28.4113 14.7872 28.3763C14.6867 28.3389 14.5733 28.3202 14.4471 28.3202C14.2929 28.3202 14.1562 28.3494 14.037 28.4078C13.9178 28.4639 13.8173 28.5539 13.7355 28.6777C13.6561 28.8016 13.5953 28.964 13.5533 29.165C13.5112 29.3659 13.4902 29.6102 13.4902 29.8976V30.8896C13.4902 31.1187 13.503 31.3208 13.5287 31.4961C13.5568 31.6713 13.5977 31.8232 13.6514 31.9518C13.7052 32.078 13.7706 32.182 13.8477 32.2638C13.9248 32.3456 14.0136 32.4063 14.1141 32.446C14.217 32.4834 14.3303 32.5021 14.4542 32.5021C14.6131 32.5021 14.7521 32.4717 14.8713 32.411C14.9905 32.3502 15.0898 32.2556 15.1693 32.127C15.2511 31.9962 15.3118 31.8291 15.3515 31.6258C15.3913 31.4201 15.4111 31.1747 15.4111 30.8896ZM20.1014 30.0063V30.7845C20.1014 31.2028 20.064 31.5557 19.9892 31.8431C19.9144 32.1306 19.8069 32.3619 19.6667 32.5372C19.5265 32.7125 19.3571 32.8398 19.1584 32.9193C18.9621 32.9964 18.7401 33.035 18.4924 33.035C18.2961 33.035 18.115 33.0104 17.9491 32.9613C17.7831 32.9123 17.6336 32.834 17.5004 32.7265C17.3695 32.6166 17.2573 32.4741 17.1638 32.2988C17.0704 32.1235 16.9991 31.9109 16.95 31.6608C16.9009 31.4108 16.8764 31.1187 16.8764 30.7845V30.0063C16.8764 29.588 16.9138 29.2374 16.9886 28.9546C17.0657 28.6719 17.1744 28.4452 17.3146 28.2746C17.4548 28.1017 17.6231 27.9778 17.8194 27.903C18.018 27.8282 18.24 27.7908 18.4854 27.7908C18.684 27.7908 18.8663 27.8154 19.0322 27.8645C19.2005 27.9112 19.3501 27.9872 19.4809 28.0923C19.6118 28.1951 19.7228 28.333 19.8139 28.506C19.9074 28.6766 19.9787 28.8857 20.0278 29.1334C20.0768 29.3811 20.1014 29.6721 20.1014 30.0063ZM19.4494 30.8896V29.8976C19.4494 29.6686 19.4354 29.4676 19.4073 29.2947C19.3816 29.1194 19.343 28.9698 19.2916 28.846C19.2402 28.7221 19.1748 28.6216 19.0953 28.5445C19.0182 28.4674 18.9282 28.4113 18.8254 28.3763C18.7249 28.3389 18.6116 28.3202 18.4854 28.3202C18.3311 28.3202 18.1944 28.3494 18.0752 28.4078C17.9561 28.4639 17.8556 28.5539 17.7738 28.6777C17.6943 28.8016 17.6336 28.964 17.5915 29.165C17.5494 29.3659 17.5284 29.6102 17.5284 29.8976V30.8896C17.5284 31.1187 17.5413 31.3208 17.567 31.4961C17.595 31.6713 17.6359 31.8232 17.6897 31.9518C17.7434 32.078 17.8088 32.182 17.886 32.2638C17.9631 32.3456 18.0519 32.4063 18.1524 32.446C18.2552 32.4834 18.3685 32.5021 18.4924 32.5021C18.6513 32.5021 18.7904 32.4717 18.9095 32.411C19.0287 32.3502 19.128 32.2556 19.2075 32.127C19.2893 31.9962 19.3501 31.8291 19.3898 31.6258C19.4295 31.4201 19.4494 31.1747 19.4494 30.8896Z" fill="#7E7E7E"/>
<path d="M99.9837 231.625V232.158H96.643V231.692L98.3151 229.831C98.5207 229.602 98.6796 229.408 98.7918 229.249C98.9063 229.087 98.9858 228.944 99.0302 228.818C99.0769 228.689 99.1003 228.558 99.1003 228.425C99.1003 228.257 99.0652 228.105 98.9951 227.969C98.9274 227.831 98.8269 227.722 98.6937 227.64C98.5605 227.558 98.3992 227.517 98.2099 227.517C97.9832 227.517 97.7939 227.561 97.642 227.65C97.4925 227.737 97.3803 227.858 97.3055 228.015C97.2307 228.171 97.1933 228.351 97.1933 228.555H96.5448C96.5448 228.267 96.6079 228.004 96.7341 227.766C96.8603 227.528 97.0473 227.338 97.295 227.198C97.5427 227.055 97.8477 226.984 98.2099 226.984C98.5324 226.984 98.8082 227.041 99.0372 227.156C99.2662 227.268 99.4415 227.427 99.563 227.633C99.6869 227.836 99.7488 228.074 99.7488 228.348C99.7488 228.497 99.7231 228.649 99.6717 228.804C99.6226 228.955 99.5537 229.107 99.4649 229.259C99.3784 229.411 99.2767 229.561 99.1599 229.708C99.0454 229.855 98.9227 230 98.7918 230.143L97.4247 231.625H99.9837ZM103.882 229.2V229.978C103.882 230.396 103.844 230.749 103.77 231.036C103.695 231.324 103.587 231.555 103.447 231.731C103.307 231.906 103.137 232.033 102.939 232.113C102.742 232.19 102.52 232.228 102.273 232.228C102.076 232.228 101.895 232.204 101.729 232.155C101.563 232.106 101.414 232.027 101.281 231.92C101.15 231.81 101.038 231.667 100.944 231.492C100.851 231.317 100.779 231.104 100.73 230.854C100.681 230.604 100.657 230.312 100.657 229.978V229.2C100.657 228.781 100.694 228.431 100.769 228.148C100.846 227.865 100.955 227.639 101.095 227.468C101.235 227.295 101.403 227.171 101.6 227.096C101.798 227.022 102.02 226.984 102.266 226.984C102.464 226.984 102.647 227.009 102.813 227.058C102.981 227.105 103.13 227.181 103.261 227.286C103.392 227.388 103.503 227.526 103.594 227.699C103.688 227.87 103.759 228.079 103.808 228.327C103.857 228.574 103.882 228.865 103.882 229.2ZM103.23 230.083V229.091C103.23 228.862 103.216 228.661 103.188 228.488C103.162 228.313 103.123 228.163 103.072 228.039C103.021 227.915 102.955 227.815 102.876 227.738C102.799 227.661 102.709 227.605 102.606 227.57C102.505 227.532 102.392 227.514 102.266 227.514C102.111 227.514 101.975 227.543 101.856 227.601C101.736 227.657 101.636 227.747 101.554 227.871C101.475 227.995 101.414 228.157 101.372 228.358C101.33 228.559 101.309 228.804 101.309 229.091V230.083C101.309 230.312 101.322 230.514 101.347 230.689C101.375 230.865 101.416 231.017 101.47 231.145C101.524 231.271 101.589 231.375 101.666 231.457C101.743 231.539 101.832 231.6 101.933 231.639C102.035 231.677 102.149 231.695 102.273 231.695C102.432 231.695 102.571 231.665 102.69 231.604C102.809 231.544 102.908 231.449 102.988 231.32C103.07 231.19 103.13 231.022 103.17 230.819C103.21 230.613 103.23 230.368 103.23 230.083ZM106.847 227.026V232.158H106.199V227.836L104.891 228.313V227.727L106.746 227.026H106.847ZM112.053 227.054V227.419L109.939 232.158H109.255L111.366 227.587H108.603V227.054H112.053Z" fill="#7E7E7E"/>
</svg>
