<svg width="63" height="50" viewBox="0 0 63 50" fill="none" xmlns="http://www.w3.org/2000/svg">
<path d="M11.0369 0C8.32002 0 5.71444 1.05357 3.79334 2.92893C1.87223 4.8043 0.792969 7.34784 0.792969 10V11.005L31.5247 27.16L62.2564 11.01V10C62.2564 7.34784 61.1771 4.8043 59.256 2.92893C57.3349 1.05357 54.7293 0 52.0125 0H11.0369Z" fill="white"/>
<path d="M62.2564 16.6846L32.7386 32.1996C32.3655 32.3956 31.9484 32.4983 31.5247 32.4983C31.101 32.4983 30.6839 32.3956 30.3108 32.1996L0.792969 16.6846V39.9996C0.792969 42.6517 1.87223 45.1953 3.79334 47.0706C5.71444 48.946 8.32002 49.9996 11.0369 49.9996H52.0125C54.7293 49.9996 57.3349 48.946 59.256 47.0706C61.1771 45.1953 62.2564 42.6517 62.2564 39.9996V16.6846Z" fill="white"/>
</svg>
