<svg width="281" height="275" viewBox="0 0 281 275" fill="none" xmlns="http://www.w3.org/2000/svg">
<path d="M60.4897 42.1776C59.7095 43.2139 58.6391 43.9953 57.4143 44.4226C56.1894 44.8498 54.8653 44.9038 53.6097 44.5776C50.2597 43.8776 46.9397 45.1976 43.6097 45.2876C41.6657 45.4127 39.715 45.1891 37.8497 44.6276C36.7802 44.1775 35.5943 44.0833 34.4671 44.3588C33.3399 44.6343 32.3311 45.2649 31.5897 46.1576C29.4797 48.5976 26.9597 50.9176 23.3097 51.1576C23.0475 51.1618 22.7894 51.2243 22.5542 51.3405C22.3191 51.4567 22.1127 51.6237 21.95 51.8295C21.7873 52.0353 21.6724 52.2746 21.6135 52.5302C21.5547 52.7859 21.5534 53.0514 21.6097 53.3076C21.8197 55.3076 20.6997 55.7976 19.1297 55.7576C18.6895 55.7084 18.244 55.7747 17.8372 55.9501C17.4304 56.1254 17.0763 56.4037 16.8097 56.7576C11.4597 63.1376 8.60973 70.5076 6.73973 78.5476C5.32973 84.5476 8.60973 87.5476 12.7397 90.5476C18.1597 94.4376 23.7397 98.2076 29.0197 102.228C29.9985 102.913 30.7681 103.856 31.243 104.952C31.7179 106.048 31.8795 107.255 31.7097 108.438C31.0397 115.278 30.4597 122.198 31.8697 129.028C32.6997 133.208 35.6397 136.398 37.5497 140.088C39.6698 144.456 40.813 149.233 40.8997 154.088C41.1497 159.598 41.1097 165.088 41.8997 170.578C42.0161 171.126 41.9851 171.695 41.8097 172.228C39.3697 178.778 40.2397 185.528 40.6497 192.228C41.1897 200.928 40.2797 209.578 40.1197 218.228C40.1075 223.451 39.6222 228.662 38.6697 233.798C38.5397 234.338 38.7497 234.958 38.2497 235.378C35.6797 237.488 36.3897 240.138 37.0497 242.748C37.3308 243.445 37.457 244.196 37.4197 244.948C36.0997 251.408 38.8697 256.708 42.0597 261.948C43.3097 264.018 43.7997 266.218 42.3497 268.488C41.5197 269.818 42.3497 270.488 43.6397 270.358C49.3897 269.778 55.1497 269.028 60.9497 268.448C63.3897 268.198 65.8397 268.158 68.2797 267.958C72.5897 267.538 76.8597 267.088 81.1597 266.628C81.5797 268.538 80.7897 269.628 78.8397 269.938C71.0097 270.998 63.2597 272.398 55.3897 272.268C53.0248 272.166 50.677 272.713 48.5997 273.848C46.5297 274.998 39.7297 273.678 38.0097 271.998C37.5897 271.618 37.0097 271.328 37.1797 270.628C37.7997 266.398 35.3597 263.298 33.2797 260.108C31.938 258.195 31.2697 255.891 31.3797 253.558C31.7126 250.04 31.4181 246.492 30.5097 243.078C30.2036 242.251 30.197 241.342 30.4912 240.511C30.7853 239.68 31.3616 238.978 32.1197 238.528C33.6597 237.528 33.8597 236.078 34.0297 234.468C35.5997 220.468 35.1897 206.548 35.1897 192.548C35.1897 186.498 35.1897 180.548 36.6397 174.548C37.2197 172.188 36.3097 169.248 36.2297 166.598C36.2111 160.206 35.5002 153.836 34.1097 147.598C33.4795 145.268 32.4437 143.068 31.0497 141.098C29.2136 138.25 27.6978 135.208 26.5297 132.028C24.7897 127.298 25.6997 122.578 25.8697 117.858C25.9897 114.628 26.4897 111.478 25.5797 108.248C25.2965 107.202 24.6694 106.283 23.7997 105.638C18.5397 101.368 12.7997 97.8976 7.22973 94.1676C4.93332 92.6905 3.06035 90.6418 1.79459 88.2225C0.528833 85.8031 -0.0862363 83.0963 0.00973351 80.3676C0.00973351 78.9176 0.0897336 77.5976 1.74973 76.9276C1.98266 76.7899 2.18405 76.6048 2.34082 76.3843C2.49759 76.1638 2.60624 75.9128 2.65973 75.6476C3.32973 71.5876 6.42973 68.5676 7.17973 64.3776C7.54973 62.3776 8.66973 59.3776 11.8997 58.9576C12.4263 58.8026 12.9116 58.5317 13.3199 58.1649C13.7283 57.7981 14.0494 57.3446 14.2597 56.8376C15.3797 54.6476 17.3297 53.0676 18.8597 51.4576C20.8597 49.3876 23.6997 47.8976 26.1497 46.1976C28.0097 44.9076 30.0097 43.9976 31.1197 41.9976C31.2419 41.6716 31.4302 41.3745 31.6729 41.1249C31.9156 40.8753 32.2073 40.6788 32.5297 40.5476C36.6297 38.8476 40.5297 37.8476 44.7497 40.7476C46.3197 41.8276 48.8097 41.4176 50.7497 40.8376C53.1559 40.0557 55.7161 39.8704 58.2097 40.2976C59.9097 40.6276 65.7897 37.5176 67.2097 36.4476C67.2819 36.3578 67.3733 36.2855 67.4771 36.2357C67.5809 36.186 67.6946 36.1602 67.8097 36.1602C67.9249 36.1602 68.0385 36.186 68.1424 36.2357C68.2462 36.2855 68.3376 36.3578 68.4097 36.4476C67.4897 37.7476 61.9397 41.5576 60.4897 42.1776Z" fill="#227A44"/>
<path d="M136.25 57.5039C136.58 58.7839 136.62 56.7939 136.99 57.8739C137.848 59.9961 138.472 62.206 138.85 64.4639C139.345 68.0772 140.588 71.5476 142.5 74.6539C144.5 77.9639 142.79 86.4939 139.77 88.7739C139.088 89.1146 138.304 89.1894 137.57 88.9839C137.11 88.6939 136.29 88.9839 136.12 88.1539C136.45 86.5339 135.75 84.9239 136.99 83.2239C137.65 82.3139 136.7 80.3239 136.49 78.8339C134.96 77.7539 135.33 75.3539 133.49 74.4839C132.79 73.8639 133.7 72.8639 132.99 72.2439C131.884 67.2873 130.389 62.4256 128.52 57.7039" fill="#EB0000"/>
<path d="M128.66 58.0457C127.833 55.9832 126.867 53.9787 125.77 52.0457C124.468 49.5664 124.113 46.6978 124.77 43.9757C125.35 41.4856 124.4 38.7957 126.26 36.4356C127.46 34.8956 124.44 30.4356 122.45 29.6357C115.91 27.1957 112.26 21.9757 108.24 16.8457C104.76 12.4057 101.08 8.01565 95.9004 5.28565C94.7429 5.2452 93.5885 5.42855 92.5004 5.82565C90.1598 6.94159 87.6034 7.53206 85.0104 7.55565C81.5704 7.55565 81.5304 7.67565 82.1104 11.1157C82.1702 12.1443 82.393 13.1569 82.7704 14.1157C83.7704 15.8956 83.4804 17.3857 81.7704 18.7157C81.0733 19.1647 80.5271 19.8128 80.2026 20.5759C79.8781 21.339 79.7903 22.182 79.9504 22.9957C80.4104 24.6057 78.8404 25.1056 78.3804 26.2257C77.0677 29.5157 74.8613 32.3732 72.0104 34.4757C71.3904 35.0557 64.6004 40.6057 63.7704 40.6457C63.4804 40.3957 62.7704 40.7257 63.0604 40.4356C63.7704 35.7556 68.1204 33.8157 71.5104 30.9957C73.2104 29.6257 73.9604 27.1857 74.2104 24.9057C74.2069 24.0928 74.4393 23.2963 74.8795 22.6129C75.3198 21.9295 75.9488 21.3885 76.6904 21.0557C77.8504 20.5156 77.4804 19.6857 77.2304 18.9857C76.7304 17.6157 76.1504 16.2457 75.5704 14.9257C73.7504 10.6957 75.2004 7.92565 79.7604 6.97565C80.2904 6.84565 81.2104 6.59565 81.2104 6.34565C81.4504 3.78565 83.6504 4.40565 84.8504 4.56565C88.0404 4.98565 90.6504 2.56565 93.7604 3.11565C94.5804 3.24565 94.8704 2.49565 95.3304 2.11565C98.0604 -0.60435 101.01 -0.734349 104.01 1.91565C108.9 6.30565 113.74 10.7357 117.47 16.2957C120.024 20.006 123.461 23.0232 127.47 25.0757C131.95 27.4357 133.77 30.6257 131.66 36.7157C130.936 38.5325 130.619 40.4864 130.734 42.4391C130.848 44.3917 131.389 46.2955 132.32 48.0157C133.6 50.3757 136.38 55.5556 137.04 58.1656" fill="#FFBE00"/>
<path d="M88.7381 241.784C89.0681 239.874 89.4381 237.974 89.6081 235.984C87.6188 236.238 85.6103 236.308 83.6081 236.194H83.4781C83.1531 237.818 83.099 239.483 83.3181 241.124C83.4381 241.944 82.9481 242.734 82.8581 243.524C82.4481 246.874 82.1981 250.234 83.9381 253.344C84.2496 253.808 84.4363 254.345 84.4801 254.902C84.5239 255.459 84.4233 256.018 84.1881 256.524C82.5281 259.714 81.9481 263.194 81.0781 266.594C85.6381 266.594 86.3781 265.894 87.3381 261.414C87.8281 259.094 88.1581 256.614 89.3381 254.584C89.8588 253.718 90.1446 252.732 90.1674 251.722C90.1902 250.711 89.9492 249.713 89.4681 248.824C88.4793 246.616 88.2234 244.149 88.7381 241.784Z" fill="#EB0000"/>
<path d="M123.53 113.505C120.46 113.795 119.39 117.275 116.4 117.775C114.87 118.015 114.21 119.135 114.4 120.835C114.57 122.365 114.61 124.275 112.79 124.835C111.25 125.4 109.979 126.525 109.23 127.985C110.47 128.685 111.96 129.185 113.12 128.525C113.12 128.525 113.12 128.475 113.2 128.475C114.766 125.91 116.802 123.664 119.2 121.855C119.53 121.565 120.03 121.065 119.95 120.735C119.49 117.735 121.27 116.255 123.76 115.185C124.164 114.97 124.474 114.614 124.63 114.185C124.85 113.135 124.01 113.625 123.53 113.505Z" fill="#EB0000"/>
<path d="M118.428 117.356C120.048 114.826 134.428 99.7959 135.578 97.0659C135.761 96.5805 135.837 96.0617 135.803 95.5443C135.768 95.0269 135.624 94.5229 135.378 94.0659C133.098 89.3059 134.798 85.9059 140.178 84.5859C139.971 86.8965 140.314 89.2232 141.178 91.3759C141.398 91.9842 141.483 92.6331 141.426 93.2774C141.369 93.9217 141.172 94.5458 140.848 95.1059C139.728 97.3459 139.068 99.7859 138.118 102.106C137.248 104.106 121.958 117.676 119.728 118.256C119.008 118.396 118.348 118.356 118.428 117.356Z" fill="#EB0000"/>
<path d="M58.1705 92.5461C57.4911 92.8878 56.7814 93.1656 56.0505 93.3761V87.9961L60.5305 83.5161C60.6271 83.4171 60.6811 83.2843 60.6811 83.1461C60.6811 83.0079 60.6271 82.8751 60.5305 82.7761C60.4282 82.6759 60.2934 82.6156 60.1505 82.6061C60.0804 82.6069 60.0112 82.6224 59.9475 82.6517C59.8837 82.681 59.8268 82.7234 59.7805 82.7761L56.0105 86.5461V80.2861L60.4905 75.8161C60.5877 75.7154 60.642 75.581 60.642 75.4411C60.642 75.3012 60.5877 75.1668 60.4905 75.0661C60.3846 74.9729 60.2512 74.9168 60.1105 74.9061C60.0413 74.9068 59.9729 74.9213 59.9094 74.9488C59.8459 74.9763 59.7885 75.0161 59.7405 75.0661L56.0105 78.7961V71.4661C56.0187 71.3515 56.0014 71.2364 55.9599 71.1292C55.9184 71.0221 55.8537 70.9254 55.7705 70.8461C55.6883 70.7634 55.5899 70.6986 55.4815 70.6556C55.3732 70.6126 55.2571 70.5923 55.1405 70.5961C54.9 70.5987 54.67 70.6954 54.4999 70.8655C54.3298 71.0356 54.2331 71.2656 54.2305 71.5061V78.8361L50.5105 75.1061C50.4046 75.0129 50.2712 74.9568 50.1305 74.9461C50.0612 74.9462 49.9927 74.9605 49.9291 74.988C49.8654 75.0155 49.8081 75.0557 49.7605 75.1061C49.7113 75.1553 49.6722 75.2138 49.6455 75.2781C49.6188 75.3425 49.6051 75.4114 49.6051 75.4811C49.6051 75.5508 49.6188 75.6197 49.6455 75.6841C49.6722 75.7484 49.7113 75.8069 49.7605 75.8561L54.2305 80.3261V86.5861L50.5105 82.8561C50.4055 82.7599 50.2722 82.7003 50.1305 82.6861C50.0603 82.6863 49.9909 82.7015 49.927 82.7308C49.8632 82.7602 49.8064 82.8029 49.7605 82.8561C49.7103 82.9037 49.6703 82.9611 49.643 83.0247C49.6156 83.0883 49.6015 83.1569 49.6015 83.2261C49.6015 83.2953 49.6156 83.3638 49.643 83.4275C49.6703 83.4911 49.7103 83.5484 49.7605 83.5961L54.2305 88.0761V93.4161C53.5029 93.2056 52.7965 92.9278 52.1205 92.5861C41.2305 86.9961 46.2405 68.9361 55.1805 63.9961C64.0905 68.9361 69.0605 86.9961 58.1705 92.5461Z" fill="#227A44"/>
<path d="M95.7783 63.3875L94.0783 50.0975C94.0152 49.6363 93.7868 49.2137 93.4354 48.9083C93.0841 48.603 92.6338 48.4357 92.1683 48.4375H72.3683C71.9039 48.436 71.4549 48.6036 71.1052 48.9091C70.7555 49.2147 70.5291 49.6371 70.4683 50.0975L68.7683 63.3875C68.7283 63.5653 68.7283 63.7497 68.7683 63.9275C68.8303 64.3692 68.9873 64.7922 69.2283 65.1675C69.3686 65.4068 69.5328 65.6312 69.7183 65.8375L70.0983 66.2075C70.2439 66.3218 70.4103 66.4067 70.5883 66.4575H70.7583H81.1983L80.1983 70.5975C81.5259 70.7726 82.8707 70.7726 84.1983 70.5975L83.2483 66.4575H93.6583C93.6583 66.4575 93.7883 66.4575 93.8283 66.4575C94.2684 66.3046 94.6472 66.0134 94.9083 65.6275C95.1521 65.3187 95.3601 64.9832 95.5283 64.6275C95.6247 64.4062 95.679 64.1688 95.6883 63.9275C95.7785 63.7629 95.8102 63.5725 95.7783 63.3875ZM94.5783 63.8475C94.5266 63.9865 94.4359 64.1077 94.317 64.1964C94.1982 64.2851 94.0562 64.3375 93.9083 64.3475H70.5483C70.415 64.3409 70.2864 64.2957 70.1783 64.2175C70.0382 64.1354 69.9345 64.0032 69.8883 63.8475C69.8689 63.7518 69.8689 63.6532 69.8883 63.5575L71.5883 50.2575C71.6102 50.0763 71.6974 49.9093 71.8336 49.7878C71.9699 49.6663 72.1457 49.5986 72.3283 49.5975H92.1283C92.3113 49.6004 92.4874 49.6684 92.6248 49.7894C92.7623 49.9103 92.8521 50.0763 92.8783 50.2575L94.5683 63.5575C94.5986 63.5994 94.6157 63.6493 94.6175 63.701C94.6193 63.7526 94.6056 63.8037 94.5783 63.8475Z" fill="#FFBE00"/>
<path d="M78.0903 56.9947L77.7603 63.5447C77.7538 63.6087 77.7253 63.6686 77.6798 63.7141C77.6342 63.7596 77.5744 63.7881 77.5103 63.7947H71.3003C71.1849 63.7901 71.0721 63.7593 70.9703 63.7047C70.8492 63.6292 70.7602 63.5117 70.7203 63.3747C70.6974 63.2794 70.6974 63.18 70.7203 63.0847L71.4603 56.9947C71.4603 56.8747 71.5903 56.7947 71.7103 56.7947H77.8403C78.0103 56.7547 78.0903 56.8447 78.0903 56.9947Z" fill="#FFBE00"/>
<path d="M78.418 50.4258L78.168 55.7658C78.1655 55.8313 78.1384 55.8935 78.092 55.9398C78.0456 55.9862 77.9835 56.0133 77.918 56.0158H71.918C71.748 56.0158 71.668 55.8958 71.668 55.7258L72.328 50.7958C72.352 50.6243 72.437 50.4673 72.5674 50.3534C72.6978 50.2396 72.8649 50.1765 73.038 50.1758H78.208C78.2663 50.1872 78.3189 50.2182 78.3571 50.2637C78.3953 50.3092 78.4168 50.3664 78.418 50.4258Z" fill="#FFBE00"/>
<path d="M85.5889 55.9965H79.1289C79.0634 55.994 79.0012 55.9669 78.9549 55.9205C78.9085 55.8741 78.8814 55.812 78.8789 55.7465L79.1289 50.4065C79.1312 50.3426 79.1569 50.2818 79.2012 50.2357C79.2455 50.1895 79.3052 50.1613 79.3689 50.1565H85.3689C85.4021 50.1551 85.4353 50.1606 85.4662 50.1726C85.4972 50.1847 85.5253 50.203 85.5488 50.2265C85.5723 50.25 85.5907 50.2782 85.6028 50.3091C85.6148 50.3401 85.6203 50.3733 85.6189 50.4065L85.8689 55.7465C85.8638 55.8163 85.8317 55.8814 85.7795 55.9281C85.7272 55.9747 85.6589 55.9992 85.5889 55.9965Z" fill="#FFBE00"/>
<path d="M86.0109 63.7661H78.7109C78.6469 63.7595 78.587 63.7311 78.5415 63.6855C78.496 63.64 78.4675 63.5802 78.4609 63.5161L78.7909 56.9961C78.7975 56.932 78.826 56.8722 78.8715 56.8266C78.917 56.7811 78.9769 56.7527 79.0409 56.7461H85.6309C85.6972 56.7461 85.7608 56.7724 85.8077 56.8193C85.8546 56.8662 85.8809 56.9298 85.8809 56.9961L86.2109 63.5461C86.2112 63.6011 86.1908 63.6543 86.1537 63.695C86.1167 63.7357 86.0658 63.7611 86.0109 63.7661Z" fill="#FFBE00"/>
<path d="M93.8711 63.3461C93.817 63.4754 93.731 63.589 93.6211 63.6761C93.5758 63.714 93.5229 63.7416 93.4659 63.7572C93.409 63.7727 93.3493 63.7757 93.2911 63.7661H87.2011C87.1348 63.7661 87.0712 63.7398 87.0243 63.6929C86.9774 63.646 86.9511 63.5824 86.9511 63.5161L86.6211 56.9961C86.6211 56.9298 86.6474 56.8662 86.6943 56.8193C86.7412 56.7724 86.8048 56.7461 86.8711 56.7461H92.8711C92.9295 56.7506 92.985 56.7732 93.0299 56.8109C93.0747 56.8486 93.1066 56.8993 93.1211 56.9561L93.9111 62.9961C93.9274 63.1143 93.9136 63.2346 93.8711 63.3461Z" fill="#FFBE00"/>
<path d="M92.7083 55.997H86.8283C86.7951 55.9984 86.762 55.9929 86.731 55.9809C86.7001 55.9688 86.6719 55.9505 86.6484 55.927C86.6249 55.9035 86.6065 55.8753 86.5945 55.8444C86.5824 55.8134 86.5769 55.7802 86.5783 55.747L86.3283 50.407C86.3269 50.3738 86.3324 50.3407 86.3445 50.3097C86.3565 50.2787 86.3749 50.2506 86.3984 50.2271C86.4219 50.2036 86.4501 50.1852 86.481 50.1732C86.512 50.1611 86.5451 50.1556 86.5783 50.157H91.6283C91.8039 50.1486 91.9758 50.2085 92.1082 50.3241C92.2406 50.4396 92.323 50.602 92.3383 50.777L93.0083 55.727C92.9937 55.7982 92.9567 55.8628 92.9027 55.9114C92.8488 55.9599 92.7806 55.99 92.7083 55.997Z" fill="#FFBE00"/>
<path d="M82.1511 108.996C81.4657 110.266 80.4494 111.327 79.21 112.066C77.9707 112.806 76.5543 113.196 75.1111 113.196C73.668 113.196 72.2516 112.806 71.0123 112.066C69.7729 111.327 68.7566 110.266 68.0711 108.996C67.3343 107.746 66.9862 106.305 67.0711 104.856C67.2805 103.059 67.8303 101.318 68.6911 99.7259C68.6911 99.6759 74.1611 87.9559 74.1611 87.9559C74.2458 87.7824 74.3743 87.6339 74.5338 87.5251C74.6934 87.4164 74.8786 87.3512 75.0711 87.3359C75.2669 87.3389 75.4574 87.3992 75.6192 87.5094C75.7809 87.6196 75.9068 87.7749 75.9811 87.9559C75.9811 87.9559 81.4111 99.6759 81.4511 99.7259C82.2788 101.331 82.8235 103.066 83.0611 104.856C83.1789 106.296 82.8619 107.738 82.1511 108.996Z" fill="#191919"/>
<path d="M109.859 77.0572L101.489 79.3772L103.489 59.6172L88.6094 89.4372L97.0094 87.1172L95.0094 106.837L109.859 77.0572Z" fill="#EB0000"/>
<path d="M96.2232 169.189C106.053 169.189 110.874 164.274 110.874 158.508C110.874 146.315 92.1116 150.096 92.1116 145.039C92.1116 143.385 93.5294 142.062 97.452 142.062C100.335 142.062 103.454 142.912 106.62 144.614L109.503 137.667C106.242 135.776 101.8 134.784 97.4992 134.784C87.6692 134.784 82.8486 139.604 82.8486 145.512C82.8486 157.799 101.658 153.971 101.658 159.217C101.658 160.824 100.146 161.911 96.2705 161.911C92.4424 161.911 88.2835 160.588 85.3534 158.65L82.2815 165.55C85.4007 167.724 90.7883 169.189 96.2232 169.189ZM119.261 140.077C122.569 140.077 124.743 137.997 124.743 135.162C124.743 132.468 122.569 130.53 119.261 130.53C115.952 130.53 113.778 132.61 113.778 135.304C113.778 137.997 115.952 140.077 119.261 140.077ZM114.771 168.527H123.75V142.912H114.771V168.527ZM155.768 155.767C155.768 147.308 149.624 142.487 142.062 142.487C133.981 142.487 127.979 147.969 127.979 155.673C127.979 163.329 133.886 168.953 143.008 168.953C147.875 168.953 151.467 167.535 153.925 164.794L149.199 159.879C147.45 161.391 145.796 162.1 143.291 162.1C139.983 162.1 137.762 160.588 137.006 157.988H155.626C155.673 157.279 155.768 156.429 155.768 155.767ZM142.11 148.867C144.898 148.867 146.883 150.569 147.356 153.262H136.864C137.384 150.569 139.321 148.867 142.11 148.867ZM198.803 168.527L198.708 135.445H191.005L179.663 154.538L168.037 135.445H160.333V168.527H168.982V151.466L177.441 165.266H181.6L190.107 150.994L190.202 168.527H198.803ZM215.916 142.487C211.899 142.487 207.551 143.527 204.621 145.464L207.645 151.561C209.394 150.19 212.135 149.34 214.593 149.34C218.137 149.34 219.886 150.805 220.027 153.404H214.923C206.984 153.404 203.534 156.334 203.534 161.06C203.534 165.503 206.936 168.953 213.08 168.953C216.814 168.953 219.366 167.677 220.642 165.219V168.527H229.007V154.302C229.007 146.173 224.234 142.487 215.916 142.487ZM215.585 163.281C213.458 163.281 212.23 162.195 212.23 160.682C212.23 159.123 213.269 158.083 216.152 158.083H220.027V160.304C219.319 162.336 217.57 163.281 215.585 163.281ZM250.79 142.487C247.435 142.487 244.93 143.432 243.229 145.464V142.912H234.675V177.696H243.654V166.259C245.403 168.055 247.813 168.953 250.79 168.953C257.738 168.953 263.362 163.849 263.362 155.72C263.362 147.591 257.738 142.487 250.79 142.487ZM248.9 161.816C245.875 161.816 243.512 159.595 243.512 155.72C243.512 151.845 245.875 149.623 248.9 149.623C251.925 149.623 254.288 151.845 254.288 155.72C254.288 159.595 251.925 161.816 248.9 161.816Z" fill="#1F3C7E"/>
<path d="M89.8048 183.222C91.5749 183.222 93.05 183.812 94.2301 184.992C95.428 186.172 96.027 187.638 96.027 189.391C96.027 191.125 95.428 192.591 94.2301 193.789C93.05 194.969 91.5749 195.559 89.8048 195.559H85.9695V201.996H82.8852V183.222H89.8048ZM89.8048 192.663C90.7167 192.663 91.4676 192.359 92.0577 191.751C92.6477 191.125 92.9427 190.338 92.9427 189.391C92.9427 188.443 92.6477 187.665 92.0577 187.057C91.4676 186.432 90.7167 186.119 89.8048 186.119H85.9695V192.663H89.8048ZM98.5171 201.996V182.417H101.414V201.996H98.5171ZM115.398 188.586H118.294V201.996H115.398V200.065C114.307 201.585 112.742 202.345 110.704 202.345C108.862 202.345 107.289 201.665 105.984 200.306C104.678 198.93 104.026 197.258 104.026 195.291C104.026 193.306 104.678 191.635 105.984 190.276C107.289 188.917 108.862 188.237 110.704 188.237C112.742 188.237 114.307 188.988 115.398 190.49V188.586ZM108.129 198.375C108.934 199.18 109.944 199.582 111.16 199.582C112.376 199.582 113.386 199.18 114.191 198.375C114.995 197.553 115.398 196.525 115.398 195.291C115.398 194.057 114.995 193.038 114.191 192.234C113.386 191.411 112.376 191 111.16 191C109.944 191 108.934 191.411 108.129 192.234C107.325 193.038 106.922 194.057 106.922 195.291C106.922 196.525 107.325 197.553 108.129 198.375ZM129.153 191.375H125.827V197.812C125.827 198.366 125.953 198.769 126.203 199.019C126.453 199.252 126.82 199.386 127.302 199.421C127.803 199.439 128.42 199.43 129.153 199.395V201.996C126.936 202.264 125.345 202.077 124.379 201.433C123.414 200.771 122.931 199.564 122.931 197.812V191.375H120.463V188.586H122.931V185.69L125.827 184.831V188.586H129.153V191.375ZM133.51 196.525C133.724 197.544 134.216 198.331 134.985 198.885C135.754 199.421 136.692 199.69 137.801 199.69C139.339 199.69 140.492 199.135 141.261 198.027L143.648 199.421C142.325 201.37 140.367 202.345 137.774 202.345C135.593 202.345 133.832 201.683 132.491 200.36C131.15 199.019 130.479 197.329 130.479 195.291C130.479 193.289 131.141 191.617 132.464 190.276C133.787 188.917 135.486 188.237 137.56 188.237C139.526 188.237 141.136 188.926 142.387 190.303C143.657 191.679 144.291 193.351 144.291 195.318C144.291 195.622 144.256 196.024 144.184 196.525H133.51ZM133.483 194.165H141.368C141.171 193.074 140.715 192.251 140 191.697C139.303 191.143 138.48 190.866 137.533 190.866C136.46 190.866 135.566 191.161 134.851 191.751C134.136 192.341 133.68 193.145 133.483 194.165ZM153.448 185.663C151.338 185.466 150.283 186.351 150.283 188.318V188.586H153.448V191.375H150.283V201.996H147.387V191.375H145.348V188.586H147.387V188.318C147.387 186.476 147.896 185.082 148.915 184.134C149.952 183.168 151.463 182.748 153.448 182.873V185.663ZM160.844 202.345C158.877 202.345 157.205 201.665 155.828 200.306C154.452 198.948 153.763 197.276 153.763 195.291C153.763 193.306 154.452 191.635 155.828 190.276C157.205 188.917 158.877 188.237 160.844 188.237C162.829 188.237 164.5 188.917 165.859 190.276C167.236 191.635 167.924 193.306 167.924 195.291C167.924 197.276 167.236 198.948 165.859 200.306C164.5 201.665 162.829 202.345 160.844 202.345ZM157.867 198.322C158.671 199.126 159.664 199.529 160.844 199.529C162.024 199.529 163.016 199.126 163.821 198.322C164.625 197.517 165.028 196.507 165.028 195.291C165.028 194.075 164.625 193.065 163.821 192.26C163.016 191.456 162.024 191.054 160.844 191.054C159.664 191.054 158.671 191.456 157.867 192.26C157.062 193.065 156.66 194.075 156.66 195.291C156.66 196.507 157.062 197.517 157.867 198.322ZM173.44 190.839C174.173 189.176 175.55 188.345 177.57 188.345V191.483C176.462 191.411 175.496 191.679 174.674 192.287C173.851 192.877 173.44 193.861 173.44 195.237V201.996H170.543V188.586H173.44V190.839ZM194.354 188.237C195.874 188.237 197.099 188.729 198.029 189.713C198.958 190.696 199.423 192.019 199.423 193.682V201.996H196.527V193.87C196.527 192.94 196.294 192.225 195.829 191.724C195.364 191.206 194.73 190.946 193.925 190.946C193.031 190.946 192.316 191.241 191.779 191.831C191.261 192.421 191.002 193.306 191.002 194.486V201.996H188.105V193.87C188.105 192.94 187.882 192.225 187.435 191.724C187.005 191.206 186.389 190.946 185.584 190.946C184.708 190.946 183.993 191.25 183.438 191.858C182.884 192.448 182.607 193.324 182.607 194.486V201.996H179.71V188.586H182.607V190.195C183.465 188.89 184.744 188.237 186.442 188.237C188.159 188.237 189.428 188.944 190.251 190.356C191.145 188.944 192.513 188.237 194.354 188.237ZM204.803 196.525C205.017 197.544 205.509 198.331 206.278 198.885C207.047 199.421 207.985 199.69 209.094 199.69C210.632 199.69 211.785 199.135 212.554 198.027L214.941 199.421C213.618 201.37 211.66 202.345 209.067 202.345C206.886 202.345 205.125 201.683 203.784 200.36C202.443 199.019 201.772 197.329 201.772 195.291C201.772 193.289 202.434 191.617 203.757 190.276C205.08 188.917 206.779 188.237 208.853 188.237C210.819 188.237 212.429 188.926 213.68 190.303C214.95 191.679 215.584 193.351 215.584 195.318C215.584 195.622 215.549 196.024 215.477 196.525H204.803ZM204.776 194.165H212.661C212.464 193.074 212.008 192.251 211.293 191.697C210.596 191.143 209.773 190.866 208.826 190.866C207.753 190.866 206.859 191.161 206.144 191.751C205.429 192.341 204.973 193.145 204.776 194.165ZM231.275 202.345C229.469 202.345 227.931 201.934 226.662 201.111C225.41 200.289 224.534 199.162 224.034 197.732L226.689 196.176C227.44 198.286 228.995 199.341 231.355 199.341C232.518 199.341 233.385 199.117 233.957 198.67C234.547 198.206 234.842 197.607 234.842 196.873C234.842 196.105 234.529 195.524 233.903 195.13C233.278 194.719 232.169 194.272 230.578 193.789C229.684 193.521 228.96 193.271 228.405 193.038C227.851 192.806 227.261 192.484 226.635 192.073C226.027 191.644 225.571 191.116 225.267 190.49C224.963 189.865 224.811 189.131 224.811 188.291C224.811 186.628 225.401 185.314 226.582 184.349C227.762 183.365 229.183 182.873 230.846 182.873C232.348 182.873 233.662 183.24 234.788 183.973C235.915 184.706 236.782 185.716 237.39 187.004L234.788 188.506C234.002 186.753 232.688 185.877 230.846 185.877C229.952 185.877 229.237 186.092 228.7 186.521C228.164 186.932 227.896 187.495 227.896 188.211C227.896 188.908 228.164 189.462 228.7 189.873C229.255 190.267 230.247 190.687 231.677 191.134C232.393 191.366 232.911 191.545 233.233 191.67C233.573 191.778 234.037 191.956 234.628 192.207C235.235 192.457 235.691 192.707 235.995 192.958C236.299 193.208 236.621 193.521 236.961 193.896C237.318 194.272 237.569 194.701 237.712 195.184C237.855 195.667 237.926 196.212 237.926 196.82C237.926 198.518 237.31 199.868 236.076 200.87C234.86 201.853 233.26 202.345 231.275 202.345ZM240.453 183.222H243.537V201.996H240.453V183.222ZM265.553 192.287V193.575C265.553 196.149 264.704 198.259 263.005 199.904C261.307 201.531 259.089 202.345 256.354 202.345C253.457 202.345 251.061 201.406 249.166 199.529C247.289 197.651 246.35 195.345 246.35 192.609C246.35 189.891 247.289 187.594 249.166 185.716C251.061 183.821 253.404 182.873 256.193 182.873C257.945 182.873 259.545 183.276 260.994 184.08C262.442 184.885 263.568 185.967 264.373 187.326L261.718 188.854C261.217 187.96 260.475 187.245 259.492 186.709C258.508 186.154 257.409 185.877 256.193 185.877C254.226 185.877 252.608 186.521 251.338 187.808C250.069 189.096 249.434 190.705 249.434 192.636C249.434 194.567 250.069 196.167 251.338 197.437C252.626 198.706 254.307 199.341 256.381 199.341C258.043 199.341 259.393 198.956 260.43 198.188C261.485 197.401 262.156 196.355 262.442 195.05H256.166V192.287H265.553ZM93.3182 213.222H96.2148V231.996H93.3182V230.065C92.2275 231.585 90.663 232.345 88.6247 232.345C86.7831 232.345 85.2096 231.665 83.9044 230.306C82.5991 228.93 81.9465 227.258 81.9465 225.291C81.9465 223.306 82.5991 221.635 83.9044 220.276C85.2096 218.917 86.7831 218.237 88.6247 218.237C90.663 218.237 92.2275 218.988 93.3182 220.49V213.222ZM86.05 228.375C86.8546 229.18 87.8648 229.582 89.0806 229.582C90.2965 229.582 91.3067 229.18 92.1113 228.375C92.9159 227.553 93.3182 226.525 93.3182 225.291C93.3182 224.057 92.9159 223.038 92.1113 222.234C91.3067 221.411 90.2965 221 89.0806 221C87.8648 221 86.8546 221.411 86.05 222.234C85.2454 223.038 84.8431 224.057 84.8431 225.291C84.8431 226.525 85.2454 227.553 86.05 228.375ZM108.629 218.586H111.526V231.996H108.629V230.28C107.753 231.656 106.367 232.345 104.472 232.345C102.934 232.345 101.692 231.853 100.744 230.87C99.7966 229.886 99.3227 228.536 99.3227 226.82V218.586H102.219V226.525C102.219 227.526 102.487 228.295 103.024 228.831C103.56 229.368 104.293 229.636 105.223 229.636C106.242 229.636 107.065 229.323 107.691 228.697C108.316 228.054 108.629 227.079 108.629 225.774V218.586ZM128.055 232.345C126.249 232.345 124.711 231.934 123.442 231.111C122.19 230.289 121.314 229.162 120.813 227.732L123.468 226.176C124.219 228.286 125.775 229.341 128.135 229.341C129.297 229.341 130.165 229.117 130.737 228.67C131.327 228.206 131.622 227.607 131.622 226.873C131.622 226.105 131.309 225.524 130.683 225.13C130.057 224.719 128.949 224.272 127.357 223.789C126.463 223.521 125.739 223.271 125.185 223.038C124.631 222.806 124.041 222.484 123.415 222.073C122.807 221.644 122.351 221.116 122.047 220.49C121.743 219.865 121.591 219.131 121.591 218.291C121.591 216.628 122.181 215.314 123.361 214.349C124.541 213.365 125.963 212.873 127.626 212.873C129.128 212.873 130.442 213.24 131.568 213.973C132.695 214.706 133.562 215.716 134.17 217.004L131.568 218.506C130.781 216.753 129.467 215.877 127.626 215.877C126.732 215.877 126.016 216.092 125.48 216.521C124.944 216.932 124.675 217.495 124.675 218.211C124.675 218.908 124.944 219.462 125.48 219.873C126.034 220.267 127.027 220.687 128.457 221.134C129.172 221.366 129.691 221.545 130.013 221.67C130.352 221.778 130.817 221.956 131.407 222.207C132.015 222.457 132.471 222.707 132.775 222.958C133.079 223.208 133.401 223.521 133.741 223.896C134.098 224.272 134.348 224.701 134.492 225.184C134.635 225.667 134.706 226.212 134.706 226.82C134.706 228.518 134.089 229.868 132.855 230.87C131.64 231.853 130.039 232.345 128.055 232.345ZM137.232 213.222H140.317V231.996H137.232V213.222ZM155.333 213.222H158.417V231.996H156.003L147.153 219.257V231.996H144.068V213.222H146.482L155.333 225.962V213.222ZM165.251 229.046H173.565V231.996H162.167V213.222H173.431V216.172H165.251V221.054H172.761V223.977H165.251V229.046ZM187.438 222.26C188.261 222.69 188.905 223.28 189.369 224.031C189.834 224.782 190.067 225.649 190.067 226.632C190.067 228.17 189.521 229.448 188.431 230.467C187.34 231.487 186.008 231.996 184.435 231.996H176.389V213.222H183.844C185.382 213.222 186.678 213.723 187.733 214.724C188.806 215.707 189.343 216.941 189.343 218.425C189.343 220.052 188.708 221.331 187.438 222.26ZM183.844 216.119H179.473V221.054H183.844C184.524 221.054 185.096 220.821 185.561 220.356C186.026 219.873 186.258 219.283 186.258 218.586C186.258 217.889 186.026 217.308 185.561 216.843C185.096 216.36 184.524 216.119 183.844 216.119ZM184.435 229.1C185.15 229.1 185.749 228.849 186.231 228.349C186.732 227.83 186.982 227.204 186.982 226.471C186.982 225.738 186.732 225.121 186.231 224.621C185.749 224.102 185.15 223.843 184.435 223.843H179.473V229.1H184.435Z" fill="#1F3C7E"/>
</svg>
