<svg width="120" height="80" viewBox="0 0 120 80" fill="none" xmlns="http://www.w3.org/2000/svg">
<path d="M120 0H0V80H120V0Z" fill="#003399"/>
<path d="M49.2745 20.5034L46.667 18.6071L44.0596 20.5034L45.0522 17.4368L42.4448 15.5257H45.6596L46.667 12.459L47.6596 15.5257H50.8893L48.2967 17.4219L49.2745 20.5034Z" fill="#FFCC00"/>
<path d="M62.6075 16.9331L60.0001 15.0368L57.3926 16.9331L58.3852 13.8664L55.7778 11.9553H58.9926L60.0001 8.88867L60.9926 11.9553H64.2223L61.6297 13.8368L62.6075 16.9331Z" fill="#FFCC00"/>
<path d="M75.939 20.5034L73.3316 18.6071L70.7242 20.5034L71.7168 17.4368L69.1094 15.5257H72.3242L73.3316 12.459L74.3242 15.5257H77.5538L74.9612 17.4219L75.939 20.5034Z" fill="#FFCC00"/>
<path d="M85.7041 30.2671L83.0967 28.3708L80.4893 30.2671L81.4819 27.2004L78.8745 25.2893H82.0893L83.0967 22.2227L84.0893 25.2893H87.319L84.7115 27.1708L85.7041 30.2671Z" fill="#FFCC00"/>
<path d="M89.2744 43.5991L86.667 41.7028L84.0596 43.5991L85.0522 40.5325L82.4448 38.6214H85.6596L86.667 35.5547L87.6596 38.6214H90.8893L88.2967 40.5028L89.2744 43.5991Z" fill="#FFCC00"/>
<path d="M85.7041 56.9331L83.0967 55.0368L80.4893 56.9331L81.4819 53.8665L78.8745 51.9553H82.0893L83.0967 48.8887L84.0893 51.9553H87.319L84.7115 53.8368L85.7041 56.9331Z" fill="#FFCC00"/>
<path d="M75.939 66.6968L73.3316 64.7857L70.7242 66.6968L71.7168 63.6153L69.1094 61.719H72.3242L73.3316 58.6523L74.3242 61.719H77.5538L74.9612 63.6005L75.939 66.6968Z" fill="#FFCC00"/>
<path d="M62.6075 70.2671L60.0001 68.3708L57.3926 70.2671L58.3852 67.2004L55.7778 65.2893H58.9926L60.0001 62.2227L60.9926 65.2893H64.2223L61.6297 67.1708L62.6075 70.2671Z" fill="#FFCC00"/>
<path d="M49.2745 66.6968L46.667 64.7857L44.0596 66.6968L45.0522 63.6153L42.4448 61.719H45.6596L46.667 58.6523L47.6596 61.719H50.8893L48.2967 63.6005L49.2745 66.6968Z" fill="#FFCC00"/>
<path d="M39.5093 56.9331L36.9019 55.0368L34.2945 56.9331L35.2871 53.8665L32.6797 51.9553H35.8945L36.9019 48.8887L37.9093 51.9553H41.1241L38.5315 53.8368L39.5093 56.9331Z" fill="#FFCC00"/>
<path d="M39.5093 30.2671L36.9019 28.3708L34.2945 30.2671L35.2871 27.2004L32.6797 25.2893H35.8945L36.9019 22.2227L37.9093 25.2893H41.1241L38.5315 27.1708L39.5093 30.2671Z" fill="#FFCC00"/>
<path d="M35.939 43.5991L33.3316 41.7028L30.7242 43.5991L31.7168 40.5325L29.1094 38.6214H32.3242L33.3316 35.5547L34.3242 38.6214H37.5538L34.9612 40.5028L35.939 43.5991Z" fill="#FFCC00"/>
</svg>
