<svg width="104" height="100" viewBox="0 0 104 100" fill="none" xmlns="http://www.w3.org/2000/svg">
<g clip-path="url(#clip0_4028_46445)">
<path d="M22.0212 15.4295C21.3575 16.2138 20.5882 16.5155 19.5172 16.3043C18.2954 16.0479 17.0887 16.5306 15.8669 16.5608C15.158 16.5759 14.4943 16.5608 13.7703 16.3194C13.0312 16.0781 12.1714 16.0781 11.4926 16.8775C10.7234 17.7675 9.80324 18.6122 8.47586 18.7027C8.02335 18.7328 7.81217 19.0647 7.85742 19.487C7.93284 20.196 7.52558 20.3921 6.95239 20.377C6.59038 20.377 6.37921 20.4373 6.1077 20.7541C4.16188 23.077 3.1211 25.7619 2.44233 28.6882C1.92948 30.8753 3.1211 31.9765 4.6144 33.0474C6.59038 34.4653 8.61162 35.8379 10.5423 37.301C11.2211 37.829 11.6284 38.5078 11.5228 39.5636C11.2815 42.0525 11.0703 44.5715 11.5831 47.0603C11.8848 48.5838 12.9558 49.7452 13.6496 51.0877C14.4792 52.6866 14.7809 54.4061 14.8714 56.186C14.9619 58.1922 14.9468 60.1983 15.2334 62.1894C15.2636 62.3855 15.2787 62.6117 15.2033 62.7927C14.3133 65.176 14.6301 67.6346 14.7809 70.0631C14.977 73.2307 14.6452 76.3833 14.5848 79.5358C14.5396 81.4364 14.4491 83.3369 14.0569 85.2073C14.0116 85.4034 14.0871 85.6297 13.906 85.7805C12.9708 86.5498 13.2273 87.5151 13.4686 88.4654C13.5289 88.7369 13.6647 89.0235 13.6044 89.2649C13.1217 91.6179 14.1323 93.5487 15.2938 95.4492C15.7463 96.2034 15.9273 97.0029 15.3993 97.8325C15.0977 98.3152 15.3843 98.5565 15.8669 98.5113C17.9636 98.3001 20.0603 98.0286 22.172 97.8174C23.0619 97.7269 23.9519 97.7118 24.8418 97.6364C26.4105 97.4856 27.9642 97.3196 29.5329 97.1537C29.6837 97.8476 29.3971 98.2548 28.6882 98.3604C25.8524 98.7677 23.0318 99.2654 20.1658 99.2202C19.291 99.2051 18.4764 99.356 17.6921 99.7934C16.9379 100.216 14.4641 99.7331 13.8457 99.1297C13.6949 98.9939 13.4988 98.8884 13.544 98.6319C13.7703 97.0934 12.8803 95.9621 12.1262 94.8006C11.6435 94.0615 11.372 93.2621 11.4323 92.4174C11.5228 91.1202 11.4775 89.8531 11.1155 88.6012C10.9044 87.8772 11.1306 87.3341 11.7038 86.942C12.2619 86.5649 12.3373 86.052 12.3977 85.4637C12.9708 80.3805 12.82 75.2972 12.82 70.1989C12.82 67.9967 12.8049 65.8397 13.3479 63.6525C13.5591 62.7927 13.2273 61.7218 13.1971 60.7564C13.1368 58.4335 12.9859 56.1257 12.4278 53.848C12.2167 52.9732 11.7943 52.2039 11.3116 51.4799C10.6329 50.4391 10.1049 49.3379 9.66749 48.1765C9.03396 46.4569 9.36581 44.7374 9.42614 43.0178C9.4714 41.8413 9.6524 40.6949 9.32056 39.5184C9.19989 39.096 9.0038 38.8396 8.67195 38.5681C6.7563 37.0145 4.67473 35.7474 2.63842 34.3899C0.918858 33.2586 -0.0314239 31.4938 -0.00125618 29.3368C-0.00125618 28.8088 0.0289115 28.3262 0.632265 28.0848C0.783104 28.0245 0.933942 27.7831 0.96411 27.6172C1.20545 26.139 2.33674 25.0379 2.60825 23.5144C2.744 22.7904 3.15127 21.6893 4.32781 21.5384C4.76524 21.4781 5.06691 21.0105 5.18758 20.7692C5.59485 19.9697 6.30379 19.3965 6.86189 18.8083C7.58592 18.0541 8.6267 17.511 9.51665 16.8926C10.1954 16.425 10.9345 16.0932 11.3267 15.3691C11.4625 15.0976 11.5681 14.9619 11.8396 14.8412C13.3329 14.2228 14.7658 13.8608 16.2893 14.9166C16.8625 15.3088 17.7675 15.158 18.4915 14.9468C19.3966 14.6904 20.2714 14.5697 21.2066 14.7507C21.8251 14.8714 23.967 13.7401 24.4949 13.3479C24.6457 13.2122 24.7815 13.2122 24.9323 13.3479C24.5703 13.8155 22.5491 15.2032 22.0212 15.4295Z" fill="white"/>
<path d="M49.6103 21.0107C49.731 21.4783 49.746 20.7543 49.8818 21.1465C50.1684 21.9309 50.4399 22.685 50.5606 23.5448C50.7416 24.842 51.179 26.1091 51.8879 27.2555C52.6271 28.4622 51.9935 31.5694 50.8924 32.399C50.6662 32.565 50.3645 32.5046 50.093 32.4745C49.927 32.3689 49.6254 32.4594 49.565 32.1728C49.6857 31.5845 49.4293 30.9962 49.8818 30.3778C50.1231 30.046 49.7762 29.3219 49.7008 28.7789C49.1427 28.3867 49.2784 27.5119 48.6147 27.1951C48.3583 26.9689 48.6902 26.6068 48.4337 26.3806C47.9963 24.5705 47.5136 22.7906 46.8047 21.0862" fill="white"/>
<path d="M46.8497 21.207C46.548 20.4679 46.2011 19.7439 45.7938 19.0349C45.3111 18.1902 45.2055 17.059 45.4318 16.0936C45.643 15.1886 45.296 14.2081 45.9748 13.3483C46.4122 12.7902 45.3111 11.1461 44.5871 10.8746C42.2038 9.98463 40.8765 8.08407 39.4133 6.21368C38.1463 4.5997 36.8038 3.00082 34.9184 2.00528C34.7826 1.92986 33.8474 2.11087 33.6815 2.20137C32.8217 2.60864 31.9318 2.80473 30.9664 2.81981C29.7144 2.81981 29.6993 2.86506 29.9105 4.11702C29.9709 4.47903 29.9709 4.85613 30.1519 5.20306C30.5139 5.85166 30.4083 6.39468 29.7898 6.87736C29.3072 7.25446 28.9452 7.78239 29.1111 8.44608C29.277 9.03435 28.7038 9.21536 28.5379 9.62262C28.025 10.8142 27.2859 11.855 26.1999 12.6243C25.9736 12.8355 23.4999 14.8567 23.1982 14.8718C23.0926 14.7813 22.8513 14.902 22.9418 14.7964C23.1982 13.0919 24.782 12.383 26.0189 11.3573C26.6373 10.8595 26.9088 9.96955 26.9993 9.13994C27.0597 8.49133 27.3161 7.99357 27.9044 7.73714C28.3267 7.54105 28.191 7.23938 28.1005 6.98295C27.9195 6.48518 27.7083 5.98742 27.4971 5.50473C26.8334 3.96618 27.3613 2.94048 29.0206 2.60864C29.2167 2.56339 29.5485 2.47288 29.5485 2.38238C29.639 1.44718 30.4385 1.67344 30.8759 1.73377C32.0373 1.88461 32.9876 1.00975 34.1189 1.20584C34.4206 1.25109 34.5262 0.979583 34.6921 0.828745C35.7027 -0.151705 36.7888 -0.196956 37.8597 0.768409C39.6396 2.3673 41.4044 3.98127 42.762 6.0025C43.6519 7.32988 44.8737 8.38575 46.3972 9.20027C48.0262 10.0601 48.6899 11.2215 47.9206 13.4388C47.4379 14.8115 47.4229 16.1992 48.162 17.5567C48.6296 18.4165 49.6402 20.302 49.8815 21.2523" fill="white"/>
<path d="M32.3095 88.1186C32.4302 87.4247 32.5659 86.7309 32.6263 86.0068C31.9173 86.1426 31.1782 86.0823 30.424 86.0823C30.4089 86.0823 30.3939 86.0823 30.3788 86.0823C30.2732 86.6705 30.2279 87.2588 30.3184 87.8772C30.3637 88.1789 30.1827 88.4655 30.1525 88.7521C30.0017 89.9739 29.9112 91.1957 30.5447 92.327C30.7559 92.7191 30.8313 93.1113 30.6352 93.4884C30.0318 94.6499 29.8207 95.9169 29.5039 97.1538C31.1631 97.1387 31.4346 96.8974 31.7816 95.2683C31.9626 94.4236 32.0832 93.5186 32.5056 92.7795C32.943 92.0102 32.8525 91.3918 32.5508 90.6828C32.1737 89.8532 32.1436 89.0085 32.3095 88.1186Z" fill="white"/>
<path d="M44.9807 41.4053C43.8645 41.5109 43.4723 42.7779 42.3863 42.9589C41.8282 43.0494 41.5869 43.4567 41.6472 44.0751C41.7075 44.6332 41.7226 45.3271 41.0589 45.5382C40.4254 45.7494 40.0634 46.1869 39.7617 46.6846C40.2142 46.941 40.7573 47.1221 41.1796 46.8807C41.1947 46.8807 41.1947 46.8656 41.2098 46.8656C41.7528 45.9606 42.4919 45.1612 43.412 44.4522C43.5327 44.3466 43.7137 44.1656 43.6835 44.045C43.5176 42.9438 44.1662 42.4159 45.0712 42.0237C45.207 41.9634 45.3578 41.7824 45.388 41.6466C45.4634 41.2695 45.1467 41.4505 44.9807 41.4053Z" fill="white"/>
<path d="M43.1258 42.8083C43.714 41.8882 48.9481 36.4127 49.3705 35.4172C49.5062 35.1155 49.4761 34.6932 49.295 34.3312C48.4654 32.5965 49.0839 31.3596 51.0448 30.877C50.9844 31.7216 51.0599 32.5362 51.3917 33.3507C51.5576 33.7731 51.5124 34.2256 51.271 34.7082C50.8638 35.5228 50.6224 36.4127 50.2755 37.2423C49.9587 37.9814 44.3928 42.9139 43.5783 43.125C43.3218 43.1854 43.0956 43.1703 43.1258 42.8083Z" fill="white"/>
<path d="M31.4076 71.1596C31.0898 71.1596 30.782 71.1113 30.4843 71.0148C30.1907 70.9142 29.9593 70.7855 29.7904 70.6286L30.0137 70.1579C30.1746 70.3027 30.3797 70.4214 30.6292 70.5139C30.8826 70.6024 31.1421 70.6467 31.4076 70.6467C31.7576 70.6467 32.0191 70.5883 32.1921 70.4717C32.3651 70.351 32.4516 70.1921 32.4516 69.995C32.4516 69.8501 32.4033 69.7335 32.3067 69.645C32.2142 69.5524 32.0975 69.482 31.9567 69.4338C31.82 69.3855 31.6248 69.3312 31.3714 69.2708C31.0536 69.1944 30.7961 69.118 30.599 69.0415C30.4059 68.9651 30.2389 68.8484 30.0981 68.6915C29.9614 68.5306 29.893 68.3154 29.893 68.0458C29.893 67.8206 29.9513 67.6174 30.068 67.4364C30.1887 67.2553 30.3697 67.1105 30.6111 67.0019C30.8524 66.8933 31.1521 66.839 31.5102 66.839C31.7596 66.839 32.005 66.8711 32.2464 66.9355C32.4878 66.9999 32.6949 67.0924 32.8679 67.2131L32.6688 67.6959C32.4918 67.5832 32.3027 67.4987 32.1016 67.4424C31.9004 67.3821 31.7033 67.3519 31.5102 67.3519C31.1682 67.3519 30.9108 67.4142 30.7378 67.539C30.5688 67.6637 30.4843 67.8246 30.4843 68.0217C30.4843 68.1665 30.5326 68.2852 30.6292 68.3777C30.7257 68.4662 30.8444 68.5366 30.9852 68.5889C31.13 68.6372 31.3251 68.6895 31.5705 68.7458C31.8883 68.8223 32.1438 68.8987 32.3369 68.9751C32.53 69.0516 32.6949 69.1682 32.8317 69.3251C32.9725 69.482 33.0429 69.6932 33.0429 69.9588C33.0429 70.18 32.9826 70.3832 32.8619 70.5682C32.7412 70.7493 32.5582 70.8941 32.3128 71.0027C32.0674 71.1073 31.7656 71.1596 31.4076 71.1596ZM36.6112 67.9131L35.0604 71.4312C34.9236 71.757 34.7627 71.9863 34.5776 72.1191C34.3966 72.2518 34.1774 72.3182 33.9199 72.3182C33.763 72.3182 33.6101 72.2921 33.4613 72.2398C33.3165 72.1915 33.1958 72.1191 33.0992 72.0225L33.3466 71.588C33.5116 71.7449 33.7027 71.8234 33.9199 71.8234C34.0607 71.8234 34.1774 71.7852 34.2699 71.7087C34.3664 71.6363 34.4529 71.5096 34.5294 71.3286L34.632 71.1053L33.2199 67.9131H33.8233L34.9397 70.4717L36.044 67.9131H36.6112ZM38.0279 71.1475C37.7664 71.1475 37.5149 71.1133 37.2736 71.0449C37.0322 70.9725 36.8431 70.882 36.7063 70.7734L36.9477 70.3148C37.0885 70.4154 37.2595 70.4958 37.4606 70.5562C37.6618 70.6165 37.8649 70.6467 38.0701 70.6467C38.577 70.6467 38.8304 70.5019 38.8304 70.2122C38.8304 70.1157 38.7963 70.0392 38.7279 69.9829C38.6595 69.9266 38.573 69.8863 38.4684 69.8622C38.3678 69.834 38.223 69.8039 38.0339 69.7717C37.7764 69.7315 37.5652 69.6852 37.4003 69.6329C37.2394 69.5806 37.1006 69.4921 36.9839 69.3674C36.8673 69.2427 36.8089 69.0677 36.8089 68.8424C36.8089 68.5527 36.9296 68.3214 37.171 68.1484C37.4124 67.9714 37.7362 67.8829 38.1425 67.8829C38.3557 67.8829 38.569 67.9091 38.7822 67.9614C38.9954 68.0137 39.1704 68.0841 39.3072 68.1726L39.0598 68.6312C38.7983 68.4622 38.4905 68.3777 38.1365 68.3777C37.8911 68.3777 37.704 68.418 37.5753 68.4984C37.4466 68.5789 37.3822 68.6855 37.3822 68.8183C37.3822 68.9228 37.4184 69.0053 37.4908 69.0657C37.5632 69.126 37.6517 69.1703 37.7563 69.1984C37.8649 69.2266 38.0158 69.2588 38.2089 69.295C38.4664 69.3392 38.6736 69.3875 38.8304 69.4398C38.9914 69.4881 39.1281 69.5726 39.2408 69.6932C39.3534 69.8139 39.4097 69.9829 39.4097 70.2001C39.4097 70.4898 39.285 70.7211 39.0356 70.8941C38.7902 71.0631 38.4543 71.1475 38.0279 71.1475ZM41.932 70.9243C41.8475 70.9967 41.7429 71.053 41.6182 71.0932C41.4935 71.1294 41.3648 71.1475 41.232 71.1475C40.9102 71.1475 40.6607 71.061 40.4837 70.8881C40.3067 70.7151 40.2182 70.4677 40.2182 70.1458V68.3898H39.6751V67.9131H40.2182V67.2131H40.7975V67.9131H41.7148V68.3898H40.7975V70.1217C40.7975 70.2947 40.8398 70.4274 40.9242 70.52C41.0127 70.6125 41.1375 70.6587 41.2984 70.6587C41.4754 70.6587 41.6262 70.6085 41.751 70.5079L41.932 70.9243ZM45.4168 69.5303C45.4168 69.5746 45.4127 69.6329 45.4047 69.7053H42.8099C42.8461 69.9869 42.9688 70.2142 43.178 70.3872C43.3912 70.5562 43.6547 70.6406 43.9685 70.6406C44.3507 70.6406 44.6584 70.5119 44.8918 70.2544L45.2116 70.6286C45.0668 70.7975 44.8857 70.9263 44.6685 71.0148C44.4553 71.1033 44.2159 71.1475 43.9504 71.1475C43.6125 71.1475 43.3128 71.0791 43.0513 70.9424C42.7898 70.8016 42.5866 70.6064 42.4418 70.357C42.301 70.1076 42.2306 69.826 42.2306 69.5122C42.2306 69.2024 42.299 68.9228 42.4358 68.6734C42.5766 68.424 42.7677 68.2309 43.009 68.0941C43.2544 67.9533 43.53 67.8829 43.8358 67.8829C44.1415 67.8829 44.413 67.9533 44.6504 68.0941C44.8918 68.2309 45.0788 68.424 45.2116 68.6734C45.3484 68.9228 45.4168 69.2085 45.4168 69.5303ZM43.8358 68.3717C43.5582 68.3717 43.3248 68.4562 43.1358 68.6252C42.9507 68.7941 42.8421 69.0154 42.8099 69.2889H44.8616C44.8294 69.0194 44.7188 68.8001 44.5297 68.6312C44.3447 68.4582 44.1133 68.3717 43.8358 68.3717ZM42.7254 66.664H43.4616L44.2823 67.4484H43.7392L42.7254 66.664ZM50.222 67.8829C50.6243 67.8829 50.9421 67.9996 51.1754 68.2329C51.4128 68.4662 51.5315 68.8122 51.5315 69.2708V71.1113H50.9522V69.3372C50.9522 69.0274 50.8797 68.7941 50.7349 68.6372C50.5941 68.4803 50.391 68.4019 50.1254 68.4019C49.8318 68.4019 49.5984 68.4944 49.4255 68.6795C49.2525 68.8605 49.166 69.122 49.166 69.4639V71.1113H48.5867V69.3372C48.5867 69.0274 48.5143 68.7941 48.3694 68.6372C48.2286 68.4803 48.0255 68.4019 47.76 68.4019C47.4663 68.4019 47.233 68.4944 47.06 68.6795C46.887 68.8605 46.8005 69.122 46.8005 69.4639V71.1113H46.2212V67.9131H46.7763V68.3898C46.893 68.2249 47.0459 68.1002 47.235 68.0157C47.424 67.9272 47.6393 67.8829 47.8806 67.8829C48.1301 67.8829 48.3513 67.9332 48.5444 68.0338C48.7375 68.1344 48.8864 68.2812 48.991 68.4743C49.1117 68.2892 49.2786 68.1444 49.4918 68.0398C49.7091 67.9352 49.9525 67.8829 50.222 67.8829ZM55.5055 69.5303C55.5055 69.5746 55.5015 69.6329 55.4935 69.7053H52.8987C52.9349 69.9869 53.0576 70.2142 53.2668 70.3872C53.48 70.5562 53.7435 70.6406 54.0573 70.6406C54.4395 70.6406 54.7472 70.5119 54.9806 70.2544L55.3004 70.6286C55.1556 70.7975 54.9745 70.9263 54.7573 71.0148C54.5441 71.1033 54.3047 71.1475 54.0392 71.1475C53.7013 71.1475 53.4016 71.0791 53.1401 70.9424C52.8786 70.8016 52.6754 70.6064 52.5306 70.357C52.3898 70.1076 52.3194 69.826 52.3194 69.5122C52.3194 69.2024 52.3878 68.9228 52.5246 68.6734C52.6654 68.424 52.8564 68.2309 53.0978 68.0941C53.3432 67.9533 53.6188 67.8829 53.9245 67.8829C54.2303 67.8829 54.5018 67.9533 54.7392 68.0941C54.9806 68.2309 55.1676 68.424 55.3004 68.6734C55.4372 68.9228 55.5055 69.2085 55.5055 69.5303ZM53.9245 68.3717C53.647 68.3717 53.4136 68.4562 53.2245 68.6252C53.0395 68.7941 52.9309 69.0154 52.8987 69.2889H54.9504C54.9182 69.0194 54.8076 68.8001 54.6185 68.6312C54.4334 68.4582 54.2021 68.3717 53.9245 68.3717ZM60.9477 66.6338V71.1113H60.3926V70.6044C60.2638 70.7814 60.1009 70.9162 59.9038 71.0087C59.7067 71.1013 59.4894 71.1475 59.2521 71.1475C58.9423 71.1475 58.6647 71.0791 58.4193 70.9424C58.1739 70.8056 57.9808 70.6145 57.84 70.3691C57.7032 70.1197 57.6348 69.834 57.6348 69.5122C57.6348 69.1904 57.7032 68.9068 57.84 68.6614C57.9808 68.416 58.1739 68.2249 58.4193 68.0881C58.6647 67.9513 58.9423 67.8829 59.2521 67.8829C59.4814 67.8829 59.6926 67.9272 59.8857 68.0157C60.0788 68.1002 60.2397 68.2269 60.3684 68.3958V66.6338H60.9477ZM59.3003 70.6406C59.5015 70.6406 59.6845 70.5944 59.8495 70.5019C60.0144 70.4053 60.1431 70.2725 60.2357 70.1036C60.3282 69.9306 60.3745 69.7335 60.3745 69.5122C60.3745 69.2909 60.3282 69.0958 60.2357 68.9269C60.1431 68.7539 60.0144 68.6211 59.8495 68.5286C59.6845 68.4361 59.5015 68.3898 59.3003 68.3898C59.0952 68.3898 58.9101 68.4361 58.7452 68.5286C58.5843 68.6211 58.4555 68.7539 58.359 68.9269C58.2664 69.0958 58.2202 69.2909 58.2202 69.5122C58.2202 69.7335 58.2664 69.9306 58.359 70.1036C58.4555 70.2725 58.5843 70.4053 58.7452 70.5019C58.9101 70.5944 59.0952 70.6406 59.3003 70.6406ZM62.1887 66.5976C62.3013 66.5976 62.3938 66.6378 62.4662 66.7183C62.5427 66.7947 62.5809 66.8913 62.5809 67.0079C62.5809 67.0683 62.5749 67.1286 62.5628 67.189C62.5507 67.2453 62.5246 67.3278 62.4843 67.4364L62.1947 68.2812H61.8145L62.0378 67.3821C61.9614 67.3539 61.899 67.3076 61.8507 67.2433C61.8065 67.1749 61.7844 67.0964 61.7844 67.0079C61.7844 66.8872 61.8226 66.7887 61.899 66.7122C61.9754 66.6358 62.072 66.5976 62.1887 66.5976ZM63.4955 66.8872H64.0989V71.1113H63.4955V66.8872ZM66.9868 67.8829C67.3931 67.8829 67.715 68.0016 67.9523 68.2389C68.1937 68.4723 68.3144 68.8162 68.3144 69.2708V71.1113H67.7351V69.3372C67.7351 69.0274 67.6607 68.7941 67.5118 68.6372C67.363 68.4803 67.1497 68.4019 66.8722 68.4019C66.5584 68.4019 66.311 68.4944 66.1299 68.6795C65.9489 68.8605 65.8584 69.122 65.8584 69.4639V71.1113H65.2791V67.9131H65.8342V68.3958C65.9509 68.2309 66.1078 68.1042 66.3049 68.0157C66.5061 67.9272 66.7334 67.8829 66.9868 67.8829ZM70.5572 67.0743C70.2112 67.0743 70.0382 67.2614 70.0382 67.6355V67.9131H70.9675V68.3898H70.0503V71.1113H69.471V68.3898H68.9279V67.9131H69.471V67.6295C69.471 67.3117 69.5635 67.0602 69.7485 66.8752C69.9336 66.6901 70.1931 66.5976 70.527 66.5976C70.6557 66.5976 70.7764 66.6137 70.8891 66.6459C71.0017 66.678 71.0982 66.7243 71.1787 66.7847L71.0037 67.2252C70.8709 67.1246 70.7221 67.0743 70.5572 67.0743ZM72.8365 71.1475C72.5187 71.1475 72.2331 71.0771 71.9796 70.9363C71.7262 70.7955 71.5271 70.6024 71.3822 70.357C71.2414 70.1076 71.171 69.826 71.171 69.5122C71.171 69.1984 71.2414 68.9188 71.3822 68.6734C71.5271 68.424 71.7262 68.2309 71.9796 68.0941C72.2331 67.9533 72.5187 67.8829 72.8365 67.8829C73.1543 67.8829 73.4379 67.9533 73.6874 68.0941C73.9408 68.2309 74.1379 68.424 74.2787 68.6734C74.4236 68.9188 74.496 69.1984 74.496 69.5122C74.496 69.826 74.4236 70.1076 74.2787 70.357C74.1379 70.6024 73.9408 70.7955 73.6874 70.9363C73.4379 71.0771 73.1543 71.1475 72.8365 71.1475ZM72.8365 70.6406C73.0417 70.6406 73.2247 70.5944 73.3856 70.5019C73.5506 70.4053 73.6793 70.2725 73.7719 70.1036C73.8644 69.9306 73.9106 69.7335 73.9106 69.5122C73.9106 69.2909 73.8644 69.0958 73.7719 68.9269C73.6793 68.7539 73.5506 68.6211 73.3856 68.5286C73.2247 68.4361 73.0417 68.3898 72.8365 68.3898C72.6313 68.3898 72.4463 68.4361 72.2814 68.5286C72.1204 68.6211 71.9917 68.7539 71.8952 68.9269C71.8026 69.0958 71.7564 69.2909 71.7564 69.5122C71.7564 69.7335 71.8026 69.9306 71.8952 70.1036C71.9917 70.2725 72.1204 70.4053 72.2814 70.5019C72.4463 70.5944 72.6313 70.6406 72.8365 70.6406ZM75.8523 68.4502C75.9529 68.2651 76.1017 68.1243 76.2989 68.0277C76.496 67.9312 76.7353 67.8829 77.0169 67.8829V68.4441C76.9848 68.4401 76.9405 68.4381 76.8842 68.4381C76.5704 68.4381 76.323 68.5326 76.142 68.7217C75.9649 68.9068 75.8764 69.1723 75.8764 69.5182V71.1113H75.2971V67.9131H75.8523V68.4502ZM81.7318 67.8829C82.1341 67.8829 82.4519 67.9996 82.6852 68.2329C82.9225 68.4662 83.0412 68.8122 83.0412 69.2708V71.1113H82.4619V69.3372C82.4619 69.0274 82.3895 68.7941 82.2447 68.6372C82.1039 68.4803 81.9007 68.4019 81.6352 68.4019C81.3415 68.4019 81.1082 68.4944 80.9352 68.6795C80.7622 68.8605 80.6757 69.122 80.6757 69.4639V71.1113H80.0964V69.3372C80.0964 69.0274 80.024 68.7941 79.8792 68.6372C79.7384 68.4803 79.5352 68.4019 79.2697 68.4019C78.976 68.4019 78.7427 68.4944 78.5697 68.6795C78.3967 68.8605 78.3102 69.122 78.3102 69.4639V71.1113H77.7309V67.9131H78.2861V68.3898C78.4028 68.2249 78.5556 68.1002 78.7447 68.0157C78.9338 67.9272 79.149 67.8829 79.3904 67.8829C79.6398 67.8829 79.8611 67.9332 80.0542 68.0338C80.2473 68.1344 80.3961 68.2812 80.5007 68.4743C80.6214 68.2892 80.7884 68.1444 81.0016 68.0398C81.2188 67.9352 81.4622 67.8829 81.7318 67.8829ZM85.2718 67.8829C85.7143 67.8829 86.0522 67.9915 86.2856 68.2088C86.5229 68.426 86.6416 68.7499 86.6416 69.1803V71.1113H86.0925V70.6889C85.9959 70.8378 85.8571 70.9524 85.6761 71.0329C85.4991 71.1093 85.2879 71.1475 85.0425 71.1475C84.6844 71.1475 84.3968 71.061 84.1796 70.8881C83.9663 70.7151 83.8597 70.4878 83.8597 70.2062C83.8597 69.9246 83.9623 69.6993 84.1675 69.5303C84.3727 69.3573 84.6985 69.2708 85.1451 69.2708H86.0623V69.1562C86.0623 68.9068 85.9899 68.7157 85.8451 68.5829C85.7002 68.4502 85.487 68.3838 85.2054 68.3838C85.0163 68.3838 84.8313 68.416 84.6502 68.4803C84.4692 68.5407 84.3163 68.6231 84.1916 68.7277L83.9503 68.2933C84.1152 68.1605 84.3123 68.0599 84.5416 67.9915C84.7709 67.9191 85.0143 67.8829 85.2718 67.8829ZM85.139 70.701C85.3603 70.701 85.5514 70.6527 85.7123 70.5562C85.8732 70.4556 85.9899 70.3148 86.0623 70.1338V69.6872H85.1692C84.6784 69.6872 84.433 69.8521 84.433 70.182C84.433 70.3429 84.4954 70.4697 84.6201 70.5622C84.7448 70.6547 84.9178 70.701 85.139 70.701ZM89.5119 70.9243C89.4274 70.9967 89.3228 71.053 89.1981 71.0932C89.0734 71.1294 88.9447 71.1475 88.8119 71.1475C88.4901 71.1475 88.2407 71.061 88.0636 70.8881C87.8866 70.7151 87.7981 70.4677 87.7981 70.1458V68.3898H87.255V67.9131H87.7981V67.2131H88.3774V67.9131H89.2947V68.3898H88.3774V70.1217C88.3774 70.2947 88.4197 70.4274 88.5042 70.52C88.5927 70.6125 88.7174 70.6587 88.8783 70.6587C89.0553 70.6587 89.2062 70.6085 89.3309 70.5079L89.5119 70.9243ZM90.2123 67.9131H90.7916V71.1113H90.2123V67.9131ZM90.5019 67.2976C90.3893 67.2976 90.2947 67.2614 90.2183 67.189C90.1459 67.1165 90.1097 67.028 90.1097 66.9234C90.1097 66.8189 90.1459 66.7303 90.2183 66.6579C90.2947 66.5815 90.3893 66.5433 90.5019 66.5433C90.6146 66.5433 90.7071 66.5795 90.7795 66.6519C90.8559 66.7203 90.8942 66.8068 90.8942 66.9114C90.8942 67.02 90.8559 67.1125 90.7795 67.189C90.7071 67.2614 90.6146 67.2976 90.5019 67.2976ZM93.2675 71.1475C92.9497 71.1475 92.664 71.0771 92.4106 70.9363C92.1571 70.7955 91.958 70.6024 91.8132 70.357C91.6724 70.1076 91.602 69.826 91.602 69.5122C91.602 69.1984 91.6724 68.9188 91.8132 68.6734C91.958 68.424 92.1571 68.2309 92.4106 68.0941C92.664 67.9533 92.9497 67.8829 93.2675 67.8829C93.5853 67.8829 93.8689 67.9533 94.1183 68.0941C94.3718 68.2309 94.5689 68.424 94.7097 68.6734C94.8545 68.9188 94.9269 69.1984 94.9269 69.5122C94.9269 69.826 94.8545 70.1076 94.7097 70.357C94.5689 70.6024 94.3718 70.7955 94.1183 70.9363C93.8689 71.0771 93.5853 71.1475 93.2675 71.1475ZM93.2675 70.6406C93.4726 70.6406 93.6557 70.5944 93.8166 70.5019C93.9815 70.4053 94.1103 70.2725 94.2028 70.1036C94.2953 69.9306 94.3416 69.7335 94.3416 69.5122C94.3416 69.2909 94.2953 69.0958 94.2028 68.9269C94.1103 68.7539 93.9815 68.6211 93.8166 68.5286C93.6557 68.4361 93.4726 68.3898 93.2675 68.3898C93.0623 68.3898 92.8773 68.4361 92.7123 68.5286C92.5514 68.6211 92.4227 68.7539 92.3261 68.9269C92.2336 69.0958 92.1873 69.2909 92.1873 69.5122C92.1873 69.7335 92.2336 69.9306 92.3261 70.1036C92.4227 70.2725 92.5514 70.4053 92.7123 70.5019C92.8773 70.5944 93.0623 70.6406 93.2675 70.6406ZM97.4358 67.8829C97.8422 67.8829 98.164 68.0016 98.4013 68.2389C98.6427 68.4723 98.7634 68.8162 98.7634 69.2708V71.1113H98.1841V69.3372C98.1841 69.0274 98.1097 68.7941 97.9608 68.6372C97.812 68.4803 97.5988 68.4019 97.3212 68.4019C97.0074 68.4019 96.76 68.4944 96.579 68.6795C96.3979 68.8605 96.3074 69.122 96.3074 69.4639V71.1113H95.7281V67.9131H96.2833V68.3958C96.3999 68.2309 96.5568 68.1042 96.754 68.0157C96.9551 67.9272 97.1824 67.8829 97.4358 67.8829ZM33.8093 73.8872V78.1113H33.3145L30.78 74.9614V78.1113H30.1766V73.8872H30.6714L33.2059 77.0372V73.8872H33.8093ZM36.1538 74.8829C36.5963 74.8829 36.9343 74.9915 37.1676 75.2088C37.4049 75.426 37.5236 75.7499 37.5236 76.1803V78.1113H36.9745V77.6889C36.8779 77.8378 36.7391 77.9524 36.5581 78.0329C36.3811 78.1093 36.1699 78.1475 35.9245 78.1475C35.5665 78.1475 35.2788 78.061 35.0616 77.8881C34.8484 77.7151 34.7418 77.4878 34.7418 77.2062C34.7418 76.9246 34.8443 76.6993 35.0495 76.5303C35.2547 76.3573 35.5805 76.2708 36.0271 76.2708H36.9443V76.1562C36.9443 75.9068 36.8719 75.7157 36.7271 75.5829C36.5823 75.4502 36.369 75.3838 36.0874 75.3838C35.8984 75.3838 35.7133 75.416 35.5323 75.4803C35.3512 75.5407 35.1984 75.6231 35.0736 75.7277L34.8323 75.2933C34.9972 75.1605 35.1943 75.0599 35.4236 74.9915C35.653 74.9191 35.8963 74.8829 36.1538 74.8829ZM36.0211 77.701C36.2423 77.701 36.4334 77.6527 36.5943 77.5562C36.7552 77.4556 36.8719 77.3148 36.9443 77.1338V76.6872H36.0512C35.5604 76.6872 35.315 76.8521 35.315 77.182C35.315 77.3429 35.3774 77.4697 35.5021 77.5622C35.6268 77.6547 35.7998 77.701 36.0211 77.701ZM40.3939 77.9243C40.3094 77.9967 40.2048 78.053 40.0801 78.0932C39.9554 78.1294 39.8267 78.1475 39.6939 78.1475C39.3721 78.1475 39.1227 78.061 38.9457 77.8881C38.7687 77.7151 38.6802 77.4677 38.6802 77.1458V75.3898H38.1371V74.9131H38.6802V74.2131H39.2595V74.9131H40.1767V75.3898H39.2595V77.1217C39.2595 77.2947 39.3017 77.4274 39.3862 77.52C39.4747 77.6125 39.5994 77.6587 39.7603 77.6587C39.9373 77.6587 40.0882 77.6085 40.2129 77.5079L40.3939 77.9243ZM41.0943 74.9131H41.6736V78.1113H41.0943V74.9131ZM41.3839 74.2976C41.2713 74.2976 41.1768 74.2614 41.1003 74.189C41.0279 74.1165 40.9917 74.028 40.9917 73.9234C40.9917 73.8189 41.0279 73.7303 41.1003 73.6579C41.1768 73.5815 41.2713 73.5433 41.3839 73.5433C41.4966 73.5433 41.5891 73.5795 41.6615 73.6519C41.738 73.7203 41.7762 73.8068 41.7762 73.9114C41.7762 74.02 41.738 74.1125 41.6615 74.189C41.5891 74.2614 41.4966 74.2976 41.3839 74.2976ZM44.1495 78.1475C43.8317 78.1475 43.5461 78.0771 43.2926 77.9363C43.0392 77.7955 42.84 77.6024 42.6952 77.357C42.5544 77.1076 42.484 76.826 42.484 76.5122C42.484 76.1984 42.5544 75.9188 42.6952 75.6734C42.84 75.424 43.0392 75.2309 43.2926 75.0941C43.5461 74.9533 43.8317 74.8829 44.1495 74.8829C44.4673 74.8829 44.7509 74.9533 45.0003 75.0941C45.2538 75.2309 45.4509 75.424 45.5917 75.6734C45.7365 75.9188 45.809 76.1984 45.809 76.5122C45.809 76.826 45.7365 77.1076 45.5917 77.357C45.4509 77.6024 45.2538 77.7955 45.0003 77.9363C44.7509 78.0771 44.4673 78.1475 44.1495 78.1475ZM44.1495 77.6406C44.3547 77.6406 44.5377 77.5944 44.6986 77.5019C44.8636 77.4053 44.9923 77.2725 45.0848 77.1036C45.1774 76.9306 45.2236 76.7335 45.2236 76.5122C45.2236 76.2909 45.1774 76.0958 45.0848 75.9269C44.9923 75.7539 44.8636 75.6211 44.6986 75.5286C44.5377 75.4361 44.3547 75.3898 44.1495 75.3898C43.9443 75.3898 43.7593 75.4361 43.5943 75.5286C43.4334 75.6211 43.3047 75.7539 43.2081 75.9269C43.1156 76.0958 43.0693 76.2909 43.0693 76.5122C43.0693 76.7335 43.1156 76.9306 43.2081 77.1036C43.3047 77.2725 43.4334 77.4053 43.5943 77.5019C43.7593 77.5944 43.9443 77.6406 44.1495 77.6406ZM48.3179 74.8829C48.7242 74.8829 49.046 75.0016 49.2834 75.2389C49.5247 75.4723 49.6454 75.8162 49.6454 76.2708V78.1113H49.0661V76.3372C49.0661 76.0274 48.9917 75.7941 48.8429 75.6372C48.694 75.4803 48.4808 75.4019 48.2032 75.4019C47.8894 75.4019 47.642 75.4944 47.461 75.6795C47.2799 75.8605 47.1894 76.122 47.1894 76.4639V78.1113H46.6101V74.9131H47.1653V75.3958C47.282 75.2309 47.4388 75.1042 47.636 75.0157C47.8371 74.9272 48.0644 74.8829 48.3179 74.8829ZM51.8822 74.8829C52.3247 74.8829 52.6626 74.9915 52.8959 75.2088C53.1333 75.426 53.252 75.7499 53.252 76.1803V78.1113H52.7028V77.6889C52.6063 77.8378 52.4675 77.9524 52.2865 78.0329C52.1095 78.1093 51.8983 78.1475 51.6529 78.1475C51.2948 78.1475 51.0072 78.061 50.7899 77.8881C50.5767 77.7151 50.4701 77.4878 50.4701 77.2062C50.4701 76.9246 50.5727 76.6993 50.7779 76.5303C50.983 76.3573 51.3089 76.2708 51.7554 76.2708H52.6727V76.1562C52.6727 75.9068 52.6003 75.7157 52.4554 75.5829C52.3106 75.4502 52.0974 75.3838 51.8158 75.3838C51.6267 75.3838 51.4417 75.416 51.2606 75.4803C51.0796 75.5407 50.9267 75.6231 50.802 75.7277L50.5606 75.2933C50.7256 75.1605 50.9227 75.0599 51.152 74.9915C51.3813 74.9191 51.6247 74.8829 51.8822 74.8829ZM51.7494 77.701C51.9707 77.701 52.1618 77.6527 52.3227 77.5562C52.4836 77.4556 52.6003 77.3148 52.6727 77.1338V76.6872H51.7796C51.2888 76.6872 51.0434 76.8521 51.0434 77.182C51.0434 77.3429 51.1057 77.4697 51.2305 77.5622C51.3552 77.6547 51.5281 77.701 51.7494 77.701ZM54.324 73.6338H54.9033V78.1113H54.324V73.6338ZM60.6472 73.6338V78.1113H60.092V77.6044C59.9633 77.7814 59.8004 77.9162 59.6032 78.0087C59.4061 78.1013 59.1889 78.1475 58.9515 78.1475C58.6418 78.1475 58.3642 78.0791 58.1188 77.9424C57.8734 77.8056 57.6803 77.6145 57.5395 77.3691C57.4027 77.1197 57.3343 76.834 57.3343 76.5122C57.3343 76.1904 57.4027 75.9068 57.5395 75.6614C57.6803 75.416 57.8734 75.2249 58.1188 75.0881C58.3642 74.9513 58.6418 74.8829 58.9515 74.8829C59.1808 74.8829 59.392 74.9272 59.5851 75.0157C59.7782 75.1002 59.9392 75.2269 60.0679 75.3958V73.6338H60.6472ZM58.9998 77.6406C59.2009 77.6406 59.384 77.5944 59.5489 77.5019C59.7139 77.4053 59.8426 77.2725 59.9351 77.1036C60.0277 76.9306 60.0739 76.7335 60.0739 76.5122C60.0739 76.2909 60.0277 76.0958 59.9351 75.9269C59.8426 75.7539 59.7139 75.6211 59.5489 75.5286C59.384 75.4361 59.2009 75.3898 58.9998 75.3898C58.7946 75.3898 58.6096 75.4361 58.4446 75.5286C58.2837 75.6211 58.155 75.7539 58.0584 75.9269C57.9659 76.0958 57.9196 76.2909 57.9196 76.5122C57.9196 76.7335 57.9659 76.9306 58.0584 77.1036C58.155 77.2725 58.2837 77.4053 58.4446 77.5019C58.6096 77.5944 58.7946 77.6406 58.9998 77.6406ZM64.6338 76.5303C64.6338 76.5746 64.6297 76.6329 64.6217 76.7053H62.0269C62.0631 76.9869 62.1858 77.2142 62.395 77.3872C62.6082 77.5562 62.8717 77.6406 63.1855 77.6406C63.5677 77.6406 63.8754 77.5119 64.1088 77.2544L64.4286 77.6286C64.2838 77.7975 64.1027 77.9263 63.8855 78.0148C63.6723 78.1033 63.4329 78.1475 63.1674 78.1475C62.8295 78.1475 62.5298 78.0791 62.2683 77.9424C62.0068 77.8016 61.8036 77.6064 61.6588 77.357C61.518 77.1076 61.4476 76.826 61.4476 76.5122C61.4476 76.2024 61.516 75.9228 61.6528 75.6734C61.7936 75.424 61.9847 75.2309 62.226 75.0941C62.4714 74.9533 62.747 74.8829 63.0528 74.8829C63.3585 74.8829 63.63 74.9533 63.8674 75.0941C64.1088 75.2309 64.2958 75.424 64.4286 75.6734C64.5654 75.9228 64.6338 76.2085 64.6338 76.5303ZM63.0528 75.3717C62.7752 75.3717 62.5418 75.4562 62.3528 75.6252C62.1677 75.7941 62.0591 76.0154 62.0269 76.2889H64.0786C64.0464 76.0194 63.9358 75.8001 63.7467 75.6312C63.5617 75.4582 63.3303 75.3717 63.0528 75.3717ZM67.0588 73.6338H67.6381V78.1113H67.0588V73.6338ZM68.889 73.5976C69.0016 73.5976 69.0941 73.6378 69.1666 73.7183C69.243 73.7947 69.2812 73.8913 69.2812 74.0079C69.2812 74.0683 69.2752 74.1286 69.2631 74.189C69.251 74.2453 69.2249 74.3278 69.1847 74.4364L68.895 75.2812H68.5148L68.7381 74.3821C68.6617 74.3539 68.5993 74.3076 68.551 74.2433C68.5068 74.1749 68.4847 74.0964 68.4847 74.0079C68.4847 73.8872 68.5229 73.7887 68.5993 73.7122C68.6758 73.6358 68.7723 73.5976 68.889 73.5976ZM73.2613 77.5863V78.1113H70.1958V73.8872H73.1768V74.4122H70.7992V75.7096H72.9173V76.2226H70.7992V77.5863H73.2613ZM75.8616 74.8829C76.268 74.8829 76.5898 75.0016 76.8271 75.2389C77.0685 75.4723 77.1892 75.8162 77.1892 76.2708V78.1113H76.6099V76.3372C76.6099 76.0274 76.5355 75.7941 76.3866 75.6372C76.2378 75.4803 76.0246 75.4019 75.747 75.4019C75.4332 75.4019 75.1858 75.4944 75.0048 75.6795C74.8237 75.8605 74.7332 76.122 74.7332 76.4639V78.1113H74.1539V74.9131H74.7091V75.3958C74.8257 75.2309 74.9826 75.1042 75.1798 75.0157C75.3809 74.9272 75.6082 74.8829 75.8616 74.8829ZM81.1695 76.5303C81.1695 76.5746 81.1654 76.6329 81.1574 76.7053H78.5626C78.5988 76.9869 78.7215 77.2142 78.9307 77.3872C79.1439 77.5562 79.4074 77.6406 79.7212 77.6406C80.1034 77.6406 80.4111 77.5119 80.6445 77.2544L80.9643 77.6286C80.8195 77.7975 80.6384 77.9263 80.4212 78.0148C80.208 78.1033 79.9686 78.1475 79.7031 78.1475C79.3652 78.1475 79.0655 78.0791 78.804 77.9424C78.5425 77.8016 78.3393 77.6064 78.1945 77.357C78.0537 77.1076 77.9833 76.826 77.9833 76.5122C77.9833 76.2024 78.0517 75.9228 78.1885 75.6734C78.3293 75.424 78.5204 75.2309 78.7617 75.0941C79.0071 74.9533 79.2827 74.8829 79.5885 74.8829C79.8942 74.8829 80.1657 74.9533 80.4031 75.0941C80.6445 75.2309 80.8315 75.424 80.9643 75.6734C81.1011 75.9228 81.1695 76.2085 81.1695 76.5303ZM79.5885 75.3717C79.3109 75.3717 79.0775 75.4562 78.8885 75.6252C78.7034 75.7941 78.5948 76.0154 78.5626 76.2889H80.6143C80.5821 76.0194 80.4715 75.8001 80.2824 75.6312C80.0974 75.4582 79.866 75.3717 79.5885 75.3717ZM82.5291 75.4502C82.6296 75.2651 82.7785 75.1243 82.9756 75.0277C83.1727 74.9312 83.4121 74.8829 83.6937 74.8829V75.4441C83.6615 75.4401 83.6173 75.4381 83.5609 75.4381C83.2471 75.4381 82.9997 75.5326 82.8187 75.7217C82.6417 75.9068 82.5532 76.1723 82.5532 76.5182V78.1113H81.9739V74.9131H82.5291V75.4502ZM87.4377 74.9131V77.6769C87.4377 78.236 87.2989 78.6484 87.0213 78.9139C86.7437 79.1834 86.3293 79.3182 85.7782 79.3182C85.4765 79.3182 85.1888 79.276 84.9153 79.1915C84.6417 79.111 84.4205 78.9944 84.2515 78.8415L84.5291 78.3949C84.6779 78.5237 84.861 78.6243 85.0782 78.6967C85.2995 78.7731 85.5268 78.8113 85.7601 78.8113C86.1342 78.8113 86.4098 78.7228 86.5868 78.5458C86.7678 78.3688 86.8584 78.0993 86.8584 77.7372V77.4837C86.7216 77.6487 86.5526 77.7734 86.3515 77.8579C86.1543 77.9383 85.9391 77.9786 85.7058 77.9786C85.4 77.9786 85.1225 77.9142 84.873 77.7855C84.6276 77.6527 84.4345 77.4697 84.2937 77.2363C84.1529 76.999 84.0825 76.7294 84.0825 76.4277C84.0825 76.126 84.1529 75.8585 84.2937 75.6252C84.4345 75.3878 84.6276 75.2048 84.873 75.076C85.1225 74.9473 85.4 74.8829 85.7058 74.8829C85.9472 74.8829 86.1704 74.9272 86.3756 75.0157C86.5848 75.1042 86.7558 75.2349 86.8885 75.4079V74.9131H87.4377ZM85.7722 77.4717C85.9814 77.4717 86.1684 77.4274 86.3334 77.3389C86.5023 77.2504 86.6331 77.1277 86.7256 76.9708C86.8222 76.8099 86.8704 76.6289 86.8704 76.4277C86.8704 76.118 86.7678 75.8685 86.5627 75.6795C86.3575 75.4864 86.094 75.3898 85.7722 75.3898C85.4463 75.3898 85.1808 75.4864 84.9756 75.6795C84.7705 75.8685 84.6679 76.118 84.6679 76.4277C84.6679 76.6289 84.7141 76.8099 84.8067 76.9708C84.9032 77.1277 85.034 77.2504 85.1989 77.3389C85.3679 77.4274 85.559 77.4717 85.7722 77.4717ZM88.5446 74.9131H89.1239V78.1113H88.5446V74.9131ZM88.8342 74.2976C88.7216 74.2976 88.627 74.2614 88.5506 74.189C88.4782 74.1165 88.442 74.028 88.442 73.9234C88.442 73.8189 88.4782 73.7303 88.5506 73.6579C88.627 73.5815 88.7216 73.5433 88.8342 73.5433C88.9469 73.5433 89.0394 73.5795 89.1118 73.6519C89.1882 73.7203 89.2264 73.8068 89.2264 73.9114C89.2264 74.02 89.1882 74.1125 89.1118 74.189C89.0394 74.2614 88.9469 74.2976 88.8342 74.2976ZM93.1204 76.5303C93.1204 76.5746 93.1164 76.6329 93.1084 76.7053H90.5136C90.5498 76.9869 90.6725 77.2142 90.8817 77.3872C91.0949 77.5562 91.3584 77.6406 91.6722 77.6406C92.0544 77.6406 92.3621 77.5119 92.5954 77.2544L92.9153 77.6286C92.7704 77.7975 92.5894 77.9263 92.3722 78.0148C92.159 78.1033 91.9196 78.1475 91.6541 78.1475C91.3161 78.1475 91.0164 78.0791 90.7549 77.9424C90.4935 77.8016 90.2903 77.6064 90.1455 77.357C90.0047 77.1076 89.9343 76.826 89.9343 76.5122C89.9343 76.2024 90.0027 75.9228 90.1394 75.6734C90.2802 75.424 90.4713 75.2309 90.7127 75.0941C90.9581 74.9533 91.2337 74.8829 91.5394 74.8829C91.8452 74.8829 92.1167 74.9533 92.3541 75.0941C92.5954 75.2309 92.7825 75.424 92.9153 75.6734C93.052 75.9228 93.1204 76.2085 93.1204 76.5303ZM91.5394 75.3717C91.2618 75.3717 91.0285 75.4562 90.8394 75.6252C90.6544 75.7941 90.5458 76.0154 90.5136 76.2889H92.5653C92.5331 76.0194 92.4225 75.8001 92.2334 75.6312C92.0483 75.4582 91.817 75.3717 91.5394 75.3717ZM33.1093 80.6338V85.1113H32.5541V84.6044C32.4254 84.7814 32.2625 84.9162 32.0654 85.0087C31.8682 85.1013 31.651 85.1475 31.4136 85.1475C31.1039 85.1475 30.8263 85.0791 30.5809 84.9424C30.3355 84.8056 30.1424 84.6145 30.0016 84.3691C29.8648 84.1197 29.7964 83.834 29.7964 83.5122C29.7964 83.1904 29.8648 82.9068 30.0016 82.6614C30.1424 82.416 30.3355 82.2249 30.5809 82.0881C30.8263 81.9513 31.1039 81.8829 31.4136 81.8829C31.6429 81.8829 31.8541 81.9272 32.0472 82.0157C32.2404 82.1002 32.4013 82.2269 32.53 82.3958V80.6338H33.1093ZM31.4619 84.6406C31.6631 84.6406 31.8461 84.5944 32.011 84.5019C32.176 84.4053 32.3047 84.2725 32.3972 84.1036C32.4898 83.9306 32.536 83.7335 32.536 83.5122C32.536 83.2909 32.4898 83.0958 32.3972 82.9269C32.3047 82.7539 32.176 82.6211 32.011 82.5286C31.8461 82.4361 31.6631 82.3898 31.4619 82.3898C31.2567 82.3898 31.0717 82.4361 30.9067 82.5286C30.7458 82.6211 30.6171 82.7539 30.5205 82.9269C30.428 83.0958 30.3818 83.2909 30.3818 83.5122C30.3818 83.7335 30.428 83.9306 30.5205 84.1036C30.6171 84.2725 30.7458 84.4053 30.9067 84.5019C31.0717 84.5944 31.2567 84.6406 31.4619 84.6406ZM37.1864 81.9131V85.1113H36.6373V84.6286C36.5206 84.7935 36.3657 84.9222 36.1726 85.0148C35.9835 85.1033 35.7764 85.1475 35.5511 85.1475C35.1246 85.1475 34.7887 85.0309 34.5433 84.7975C34.2979 84.5602 34.1752 84.2122 34.1752 83.7536V81.9131H34.7545V83.6872C34.7545 83.997 34.829 84.2323 34.9778 84.3932C35.1267 84.5501 35.3399 84.6286 35.6175 84.6286C35.9232 84.6286 36.1646 84.536 36.3416 84.351C36.5186 84.1659 36.6071 83.9044 36.6071 83.5665V81.9131H37.1864ZM42.8365 82.9208C43.0819 82.9892 43.275 83.1139 43.4158 83.295C43.5566 83.472 43.627 83.6973 43.627 83.9708C43.627 84.3369 43.4882 84.6185 43.2106 84.8156C42.9371 85.0128 42.5368 85.1113 42.0098 85.1113H39.9943V80.8872H41.8891C42.3718 80.8872 42.744 80.9838 43.0055 81.1769C43.271 81.37 43.4037 81.6375 43.4037 81.9795C43.4037 82.2007 43.3514 82.3918 43.2468 82.5527C43.1463 82.7137 43.0095 82.8364 42.8365 82.9208ZM40.5977 81.376V82.7277H41.8348C42.1445 82.7277 42.3819 82.6714 42.5468 82.5588C42.7158 82.4421 42.8003 82.2731 42.8003 82.0519C42.8003 81.8306 42.7158 81.6637 42.5468 81.551C42.3819 81.4344 42.1445 81.376 41.8348 81.376H40.5977ZM41.9856 84.6225C42.3276 84.6225 42.5851 84.5662 42.758 84.4536C42.931 84.3409 43.0175 84.1639 43.0175 83.9225C43.0175 83.4519 42.6736 83.2165 41.9856 83.2165H40.5977V84.6225H41.9856ZM47.3673 83.5303C47.3673 83.5746 47.3633 83.6329 47.3553 83.7053H44.7605C44.7967 83.9869 44.9194 84.2142 45.1286 84.3872C45.3418 84.5562 45.6053 84.6406 45.9191 84.6406C46.3013 84.6406 46.609 84.5119 46.8424 84.2544L47.1622 84.6286C47.0173 84.7975 46.8363 84.9263 46.6191 85.0148C46.4059 85.1033 46.1665 85.1475 45.901 85.1475C45.5631 85.1475 45.2633 85.0791 45.0019 84.9424C44.7404 84.8016 44.5372 84.6064 44.3924 84.357C44.2516 84.1076 44.1812 83.826 44.1812 83.5122C44.1812 83.2024 44.2496 82.9228 44.3863 82.6734C44.5271 82.424 44.7182 82.2309 44.9596 82.0941C45.205 81.9533 45.4806 81.8829 45.7863 81.8829C46.0921 81.8829 46.3636 81.9533 46.601 82.0941C46.8424 82.2309 47.0294 82.424 47.1622 82.6734C47.299 82.9228 47.3673 83.2085 47.3673 83.5303ZM45.7863 82.3717C45.5087 82.3717 45.2754 82.4562 45.0863 82.6252C44.9013 82.7941 44.7927 83.0154 44.7605 83.2889H46.8122C46.78 83.0194 46.6694 82.8001 46.4803 82.6312C46.2952 82.4582 46.0639 82.3717 45.7863 82.3717ZM46.1484 80.664H46.8846L45.8708 81.4484H45.3277L46.1484 80.664ZM49.8795 81.8829C50.2858 81.8829 50.6077 82.0016 50.845 82.2389C51.0864 82.4723 51.2071 82.8162 51.2071 83.2708V85.1113H50.6278V83.3372C50.6278 83.0274 50.5533 82.7941 50.4045 82.6372C50.2556 82.4803 50.0424 82.4019 49.7648 82.4019C49.4511 82.4019 49.2036 82.4944 49.0226 82.6795C48.8416 82.8605 48.7511 83.122 48.7511 83.4639V85.1113H48.1718V81.9131H48.7269V82.3958C48.8436 82.2309 49.0005 82.1042 49.1976 82.0157C49.3988 81.9272 49.6261 81.8829 49.8795 81.8829ZM52.2792 81.9131H52.8585V85.1113H52.2792V81.9131ZM52.5688 81.2976C52.4562 81.2976 52.3616 81.2614 52.2852 81.189C52.2128 81.1165 52.1766 81.028 52.1766 80.9234C52.1766 80.8189 52.2128 80.7303 52.2852 80.6579C52.3616 80.5815 52.4562 80.5433 52.5688 80.5433C52.6815 80.5433 52.774 80.5795 52.8464 80.6519C52.9228 80.7203 52.9611 80.8068 52.9611 80.9114C52.9611 81.02 52.9228 81.1125 52.8464 81.189C52.774 81.2614 52.6815 81.2976 52.5688 81.2976ZM55.6723 81.8829C56.0786 81.8829 56.4004 82.0016 56.6378 82.2389C56.8792 82.4723 56.9999 82.8162 56.9999 83.2708V85.1113H56.4206V83.3372C56.4206 83.0274 56.3461 82.7941 56.1973 82.6372C56.0484 82.4803 55.8352 82.4019 55.5576 82.4019C55.2439 82.4019 54.9964 82.4944 54.8154 82.6795C54.6344 82.8605 54.5439 83.122 54.5439 83.4639V85.1113H53.9646V81.9131H54.5197V82.3958C54.6364 82.2309 54.7933 82.1042 54.9904 82.0157C55.1916 81.9272 55.4189 81.8829 55.6723 81.8829Z" fill="white"/>
<path d="M36.1216 61.8285C34.9381 61.8285 33.7893 61.6823 32.6754 61.3899C31.5614 61.0975 30.6563 60.7076 29.9601 60.2203L31.3177 57.1708C31.9722 57.6025 32.731 57.9506 33.5944 58.2152C34.4577 58.4797 35.3071 58.612 36.1425 58.612C37.7299 58.612 38.5236 58.2152 38.5236 57.4215C38.5236 57.0038 38.2938 56.6974 37.8343 56.5025C37.3887 56.2936 36.6647 56.0778 35.6621 55.855C34.5621 55.6183 33.6431 55.3676 32.9051 55.1031C32.1671 54.8246 31.5336 54.386 31.0044 53.7872C30.4753 53.1885 30.2107 52.3809 30.2107 51.3644C30.2107 50.4732 30.4544 49.6726 30.9418 48.9624C31.4291 48.2384 32.1532 47.6675 33.114 47.2497C34.0887 46.832 35.2792 46.6231 36.6856 46.6231C37.6463 46.6231 38.5932 46.7345 39.5261 46.9573C40.4591 47.1662 41.2806 47.4795 41.9907 47.8972L40.7167 50.9675C39.3242 50.2156 37.9736 49.8397 36.6647 49.8397C35.8431 49.8397 35.2444 49.965 34.8684 50.2156C34.4925 50.4523 34.3045 50.7656 34.3045 51.1555C34.3045 51.5454 34.5273 51.8378 34.9729 52.0328C35.4184 52.2277 36.1356 52.4296 37.1242 52.6385C38.2381 52.8752 39.1571 53.1328 39.8812 53.4113C40.6192 53.6758 41.2528 54.1075 41.7819 54.7062C42.3249 55.2911 42.5965 56.0917 42.5965 57.1082C42.5965 57.9854 42.3528 58.7791 41.8654 59.4893C41.3781 60.1994 40.647 60.7703 39.6723 61.2019C38.6976 61.6197 37.5141 61.8285 36.1216 61.8285ZM44.5068 46.9156H48.6423V61.5361H44.5068V46.9156ZM65.4949 46.9156V61.5361H62.0904L55.6365 53.7455V61.5361H51.5845V46.9156H54.989L61.443 54.7062V46.9156H65.4949ZM80.1503 58.3405V61.5361H68.412V46.9156H79.8788V50.1112H72.5058V52.5758H79.0015V55.667H72.5058V58.3405H80.1503ZM93.6821 53.9125C94.5176 54.205 95.1721 54.6645 95.6455 55.2911C96.1189 55.9037 96.3556 56.6487 96.3556 57.5259C96.3556 58.807 95.8404 59.7956 94.81 60.4918C93.7796 61.188 92.2897 61.5361 90.3403 61.5361H82.4452V46.9156H89.9226C91.7884 46.9156 93.2087 47.2637 94.1834 47.9599C95.1581 48.6422 95.6455 49.5681 95.6455 50.7378C95.6455 51.434 95.4714 52.0606 95.1233 52.6176C94.7891 53.1606 94.3087 53.5923 93.6821 53.9125ZM86.5389 49.9023V52.722H89.3795C90.772 52.722 91.4682 52.2486 91.4682 51.3017C91.4682 50.3688 90.772 49.9023 89.3795 49.9023H86.5389ZM90.0061 58.5494C91.4542 58.5494 92.1783 58.055 92.1783 57.0664C92.1783 56.0778 91.4542 55.5835 90.0061 55.5835H86.5389V58.5494H90.0061Z" fill="white"/>
<path d="M21.1772 33.7721C20.9358 33.8928 20.6794 33.9984 20.4079 34.0738V32.128L22.037 30.4989C22.1124 30.4235 22.1124 30.3028 22.037 30.2274C22.0068 30.1972 21.9464 30.1671 21.9012 30.1671C21.8559 30.1671 21.8107 30.1822 21.7654 30.2274L20.4079 31.585V29.3073L22.037 27.6782C22.1124 27.6028 22.1124 27.4821 22.037 27.4067C22.0068 27.3766 21.9464 27.3464 21.9012 27.3464C21.8559 27.3464 21.8107 27.3615 21.7654 27.4067L20.4079 28.7643V26.0944C20.4079 26.0039 20.3777 25.9134 20.3174 25.8682C20.2571 25.8078 20.1816 25.7777 20.0911 25.7777C19.9101 25.7777 19.7593 25.9285 19.7593 26.1095V28.7794L18.4017 27.4218C18.3716 27.3916 18.3112 27.3615 18.266 27.3615C18.2207 27.3615 18.1755 27.3766 18.1302 27.4218C18.0548 27.4972 18.0548 27.6179 18.1302 27.6933L19.7593 29.3224V31.6L18.4017 30.2425C18.3716 30.2123 18.3112 30.1822 18.266 30.1822C18.2207 30.1822 18.1755 30.1972 18.1302 30.2425C18.0548 30.3179 18.0548 30.4386 18.1302 30.514L19.7593 32.1431V34.0889C19.4878 34.0134 19.2314 33.9079 18.99 33.7872C15.0079 31.766 16.833 25.1743 20.0911 23.3643C23.3342 25.1743 25.1442 31.7509 21.1772 33.7721Z" fill="white"/>
<path d="M34.8733 23.1523L34.2549 18.3104C34.2096 17.9635 33.908 17.707 33.561 17.707H26.351C26.004 17.707 25.7023 17.9635 25.6571 18.3104L25.0387 23.1523C25.0236 23.2126 25.0236 23.2881 25.0387 23.3484C25.0688 23.5143 25.1141 23.6651 25.2046 23.8009C25.2498 23.8914 25.3253 23.9668 25.3856 24.0422C25.4308 24.0875 25.4761 24.1327 25.5213 24.178C25.5817 24.2232 25.642 24.2534 25.7023 24.2685C25.7174 24.2685 25.7476 24.2836 25.7627 24.2836H29.5638L29.2169 25.792C29.2169 25.8221 29.7901 25.8372 29.9409 25.8372C30.0917 25.8372 30.6649 25.8221 30.6649 25.792L30.318 24.2836H34.104C34.1191 24.2836 34.1493 24.2685 34.1644 24.2685C34.3303 24.2232 34.451 24.1026 34.5566 23.9668C34.6471 23.8462 34.7225 23.7255 34.7828 23.5897C34.813 23.5143 34.8432 23.4238 34.8432 23.3333C34.8733 23.2881 34.8733 23.2277 34.8733 23.1523ZM34.4359 23.3182C34.4208 23.3786 34.3756 23.4238 34.3303 23.454C34.2851 23.4841 34.2398 23.4992 34.1945 23.4992H25.6873C25.642 23.4992 25.5968 23.4841 25.5515 23.454C25.5063 23.4238 25.461 23.3786 25.4459 23.3182C25.4308 23.2881 25.4308 23.2428 25.4308 23.2126L26.0493 18.3707C26.0644 18.235 26.185 18.1294 26.3208 18.1294H33.5309C33.6666 18.1294 33.7873 18.235 33.8024 18.3707L34.4208 23.2126C34.451 23.2579 34.451 23.2881 34.4359 23.3182Z" fill="white"/>
<path d="M28.4324 20.8283L28.3118 23.2115C28.3118 23.2568 28.2665 23.302 28.2213 23.302H25.9587C25.9134 23.302 25.8682 23.287 25.838 23.2719C25.7928 23.2417 25.7626 23.1964 25.7475 23.1512C25.7324 23.121 25.7324 23.0909 25.7324 23.0456L26.019 20.8283C26.019 20.783 26.0643 20.7529 26.1095 20.7529H28.3419C28.3872 20.7378 28.4324 20.768 28.4324 20.8283Z" fill="white"/>
<path d="M28.5524 18.4313L28.4619 20.3771C28.4619 20.4224 28.4167 20.4676 28.3714 20.4676H26.1843C26.1239 20.4676 26.0938 20.4224 26.0938 20.3621L26.3351 18.5671C26.3502 18.4313 26.4708 18.3408 26.5915 18.3408H28.477C28.5072 18.3408 28.5524 18.3861 28.5524 18.4313Z" fill="white"/>
<path d="M31.1643 20.4676H28.8112C28.766 20.4676 28.7207 20.4224 28.7207 20.3771L28.8112 18.4313C28.8112 18.3861 28.8565 18.3408 28.9017 18.3408H31.0738C31.119 18.3408 31.1643 18.371 31.1643 18.4313L31.2548 20.3771C31.2548 20.4224 31.2095 20.4676 31.1643 20.4676Z" fill="white"/>
<path d="M31.2985 23.2879H28.6589C28.6136 23.2879 28.5684 23.2426 28.5684 23.1974L28.689 20.8141C28.689 20.7689 28.7343 20.7236 28.7795 20.7236H31.1779C31.2231 20.7236 31.2684 20.7538 31.2684 20.8141L31.389 23.1974C31.389 23.2577 31.3589 23.2879 31.2985 23.2879Z" fill="white"/>
<path d="M34.1807 23.137C34.1656 23.1823 34.1204 23.2276 34.0902 23.2577C34.06 23.2879 34.0148 23.2879 33.9695 23.2879H31.7522C31.7069 23.2879 31.6617 23.2577 31.6617 23.1974L31.541 20.8141C31.541 20.7689 31.5712 20.7236 31.6315 20.7236H33.8187C33.8639 20.7236 33.8941 20.7538 33.9092 20.7991L34.1958 23.0164C34.1958 23.0767 34.1958 23.1069 34.1807 23.137Z" fill="white"/>
<path d="M33.7585 20.4676H31.6166C31.5713 20.4676 31.5261 20.4375 31.5261 20.3771L31.4355 18.4313C31.4355 18.3861 31.4657 18.3408 31.5261 18.3408H33.3663C33.502 18.3408 33.6076 18.4313 33.6227 18.5671L33.864 20.3621C33.849 20.4224 33.8037 20.4676 33.7585 20.4676Z" fill="white"/>
<path d="M29.9106 39.7453C29.3978 40.6654 28.4023 41.2537 27.3464 41.2537C26.2905 41.2537 25.3101 40.6654 24.7821 39.7453C24.4955 39.2324 24.405 38.7347 24.4352 38.2369C24.4805 37.6034 24.7218 36.985 25.0235 36.3665C25.0235 36.3514 27.0145 32.0827 27.0145 32.0827C27.0749 31.9469 27.2106 31.8715 27.3464 31.8564C27.4821 31.8564 27.6028 31.9319 27.6782 32.0827C27.6782 32.0827 29.6542 36.3514 29.6693 36.3665C29.9559 37 30.2123 37.6185 30.2576 38.2369C30.2877 38.7347 30.1972 39.2324 29.9106 39.7453Z" fill="white"/>
<path d="M40.0017 28.1306L36.9547 28.9753L37.6637 21.7803L32.2637 32.6406L35.3106 31.7959L34.6017 38.9759L40.0017 28.1306Z" fill="white"/>
</g>
<defs>
<clipPath id="clip0_4028_46445">
<rect width="104" height="99.7797" fill="white"/>
</clipPath>
</defs>
</svg>
