<svg width="100" height="124" viewBox="0 0 100 124" fill="none" xmlns="http://www.w3.org/2000/svg">
<g clip-path="url(#clip0_3089_122140)">
<path d="M15.726 9.36879C12.5688 13.0126 12.4497 16.1824 12.4497 16.1824C12.4497 16.1824 14.6836 15.3826 17.3344 12.4794C19.2406 10.0798 20.9979 7.59132 22.6361 4.98438C22.6063 5.014 19.598 5.54724 15.726 9.36879Z" fill="#2B6BB7" stroke="#2B6BB7" stroke-width="0.89088" stroke-miterlimit="10"/>
<path d="M16.2623 18.1677L16.2326 18.2269C14.4455 20.3303 12.2712 22.2559 10.5735 23.7963C9.79907 24.5073 9.08424 25.2776 8.39919 26.0774C8.39919 26.0774 7.17802 19.7082 8.5779 15.4126C9.38208 12.4206 11.1692 9.78398 13.6711 7.94727C12.986 9.28036 12.4797 10.6727 12.1818 12.1243C11.7946 13.9018 11.4372 15.9755 11.1096 17.6048C10.9309 18.5528 10.6926 19.4712 10.4245 20.3599C10.4245 20.3599 11.05 18.7898 12.9562 17.2493C14.3263 16.1236 16.0538 15.146 17.4537 14.1684C18.4068 13.4574 19.3004 12.6872 20.1046 11.7984C20.1046 11.8281 19.628 14.2276 16.2623 18.1677Z" fill="#2B6BB7" stroke="#2B6BB7" stroke-width="0.89088" stroke-miterlimit="10"/>
<path d="M12.7479 27.2339C11.3183 29.8409 9.7099 32.3589 7.86325 34.6993C7.1782 35.8546 6.73143 37.0989 6.52294 38.4023C6.52294 38.4023 6.31445 38.6097 6.19531 38.2246C5.92725 37.3655 5.4507 35.5584 4.855 33.4847C4.11039 30.937 3.24663 27.7968 3.33599 25.1898C3.5147 21.3979 4.88479 17.7245 7.23777 14.7324C7.23777 14.7324 6.9995 15.8878 6.37402 18.9687C6.16553 22.1682 6.96971 24.1234 7.08885 26.0193C7.1782 27.5894 7.11863 29.1891 6.88036 30.7592C7.50583 29.2188 8.39937 27.7968 9.47162 26.5229C10.7226 25.1602 12.0629 23.8567 13.433 22.6421C14.5946 21.6053 15.2498 20.9239 15.2498 20.9239C15.2498 20.9239 14.3563 24.4492 12.7479 27.2339Z" fill="#2B6BB7" stroke="#2B6BB7" stroke-width="0.89088" stroke-miterlimit="10"/>
<path d="M3.75286 42.726C0.327631 38.3712 0.268062 34.3423 0 32.5648C0.0595693 30.817 0.297846 29.0987 0.744616 27.4102C1.1616 28.8618 1.66794 30.2541 2.26363 31.6465C3.15717 33.7202 4.40812 35.6754 5.21231 38.1638C5.89736 40.0302 6.46326 41.9558 6.85046 43.911C6.7909 41.8669 7.14831 39.8228 7.89293 37.8972C9.23324 34.4311 11.9734 30.6688 11.9734 30.6688C12.2415 32.0612 12.2117 33.4832 11.8841 34.8459C11.5862 37.0677 11.0501 39.2599 10.2757 41.3633C10.0076 42.1335 8.99496 44.1776 8.19077 46.3105C8.07163 47.0808 8.1312 47.851 8.39927 48.5916L7.9525 48.6212C7.92271 48.6212 6.9696 46.903 3.75286 42.726Z" fill="#2B6BB7" stroke="#2B6BB7" stroke-width="0.89088" stroke-miterlimit="10"/>
<path d="M3.39511 50.5473C3.84188 51.6138 4.49714 52.5618 5.30133 53.3912C7.11819 55.2872 9.50096 56.6499 11.02 57.9534C12.7177 59.3754 13.7304 60.2937 13.7304 60.2937L14.1474 60.2641C14.1474 60.2641 13.4027 58.8421 13.3432 56.4722C13.6112 53.2135 13.9389 48.7106 13.5517 45.2742C13.1347 41.5711 11.8837 39.5566 11.8837 39.5566C11.8837 39.5566 10.4243 44.7113 10.4243 48.8291C10.3647 52.9173 11.1987 54.3392 11.6157 55.6723C11.7348 55.9982 11.7944 56.3537 11.8242 56.6796C10.8413 54.6947 9.67967 52.7988 8.33936 51.0213C6.79056 48.9476 4.64607 47.259 3.21641 45.0964C2.32287 43.8226 1.57825 42.4302 0.952774 41.0082C0.952774 41.0082 0.595358 45.4815 3.39511 50.5473Z" fill="#2B6BB7" stroke="#2B6BB7" stroke-width="0.89088" stroke-miterlimit="10"/>
<path d="M20.1643 69.4186C18.0793 69.1816 15.3987 68.5891 13.7308 67.8189C11.0204 66.545 10.0077 65.3897 9.56093 65.0046C5.42087 60.8571 3.93164 54.0435 3.93164 54.0435C3.93164 54.0435 4.22949 54.1028 5.00389 54.9915C5.59958 55.9987 6.58247 57.1837 8.01213 58.4279C9.829 60.0276 13.0755 62.131 15.1307 63.7603C16.4412 64.7676 17.6326 65.8637 18.7346 67.0783C19.0622 67.4041 19.4196 67.73 19.7771 67.9966C18.0198 66.0118 16.7092 63.6715 15.9646 61.1534C15.3392 58.9315 15.22 56.058 15.1604 54.1028C15.0711 51.9402 14.9222 50.8145 14.9222 50.8145C14.9222 50.8145 18.0496 55.0804 19.7771 59.4352C20.7302 61.8051 20.9089 64.4417 21.3556 66.3673C21.862 69.0039 22.6066 69.9815 22.6066 69.9815L21.9513 70.0111C21.9513 70.0111 21.5344 69.7445 20.1643 69.4186Z" fill="#2B6BB7" stroke="#2B6BB7" stroke-width="0.89088" stroke-miterlimit="10"/>
<path d="M30.9757 75.4025C29.278 75.7876 27.5505 76.0838 25.7932 76.2912C22.5765 76.5874 21.4446 75.9357 20.3128 75.5802C13.8198 73.6546 10.8115 67.8482 10.8115 67.8482C10.8115 67.8482 12.3603 68.8851 16.5897 70.1589C19.3299 71.0477 22.1595 71.6994 24.989 72.1438C26.4187 72.4993 27.8483 72.914 29.2482 73.4176C29.2482 73.4176 26.091 72.1734 24.4231 69.3591C23.2615 67.3742 22.4871 65.0043 21.9808 63.0491C21.4744 61.1827 21.1766 59.6719 21.1766 59.6719C22.8743 61.1531 24.4529 62.7528 25.9421 64.4414C29.4567 68.0852 30.0822 70.3663 31.8097 72.8251C32.8819 74.1878 34.0733 74.3952 34.0733 74.3952L33.8946 74.6915C33.8946 74.7211 32.6437 75.047 30.9757 75.4025Z" fill="#2B6BB7" stroke="#2B6BB7" stroke-width="0.89088" stroke-miterlimit="10"/>
<path d="M44.1109 77.8904C40.1495 79.5493 35.7712 81.4453 29.8142 81.5638C22.7553 81.6527 18.4365 77.8311 18.4365 77.8311C18.4365 77.8311 19.479 78.3643 24.0658 78.4532C28.2952 78.4532 33.2693 75.6093 41.1026 75.2834C44.4385 75.1649 50.4252 76.8239 50.4252 76.8239C50.4252 76.8239 55.5184 75.4315 60.552 75.6389C64.3942 75.9351 70.7979 77.8904 74.5508 78.6902C78.7206 79.2827 81.6395 78.0977 81.6395 78.0977C81.6395 78.0977 77.4994 81.7119 70.4703 81.8304C65.5856 81.7712 61.3264 80.4381 56.2928 78.2755C55.7269 77.9496 52.8378 77.5052 52.8378 77.5052C55.2801 78.6013 57.6033 79.9641 59.8074 81.5342C61.0285 82.4229 62.1306 83.4894 63.0837 84.6744C62.7858 84.8817 62.488 85.0595 62.1901 85.2076C61.8625 85.3853 61.5349 85.5335 61.1775 85.652C60.0754 83.9337 58.7053 82.4525 57.0672 81.2379C55.0418 79.8456 52.808 78.7198 50.4848 77.8904C50.4848 77.8904 46.4639 79.1346 43.3067 81.3564C41.5494 82.571 40.0899 84.1411 38.9879 85.9482C38.6603 85.8593 38.3624 85.7112 38.0646 85.5631C37.7072 85.3853 37.3795 85.178 37.0519 84.941C37.0519 84.941 38.6305 82.7191 42.0557 80.5862C44.7363 78.8087 48.2807 77.3867 48.2807 77.3867C48.2807 77.3867 46.8808 77.0609 44.1109 77.8904Z" fill="#2B6BB7" stroke="#2B6BB7" stroke-width="0.89088" stroke-miterlimit="10"/>
<path d="M68.1176 73.0627C69.5175 71.3149 70.3217 68.7968 73.2108 65.6566C75.951 62.5461 78.7805 59.9688 78.7805 59.9688C78.7805 59.9688 78.572 61.2426 78.0955 62.9904C77.5594 64.9753 76.6956 67.5526 75.3851 69.6559C73.4789 72.9146 70.7387 73.6849 70.7387 73.6849C70.7387 73.6849 72.1981 73.2109 74.6405 72.6184C77.1722 72.0259 80.7165 71.2853 83.4269 70.4854C85.3927 69.8929 87.2989 69.0931 89.1158 68.1155C89.1158 68.1155 86.3458 73.9811 78.6316 76.2622C75.2659 77.062 71.9003 76.4696 69.0707 75.7289C67.2241 75.3438 65.9136 75.1365 65.9136 75.1365L65.8242 74.7217C65.8242 74.7217 66.7475 74.781 68.1176 73.0627Z" fill="#2B6BB7" stroke="#2B6BB7" stroke-width="0.89088" stroke-miterlimit="10"/>
<path d="M80.9545 59.2278C79.1079 63.4048 78.9292 65.8933 78.2441 68.0559C78.0356 68.8557 77.6782 69.5963 77.2314 70.2777L77.6187 70.3962C78.3335 70.0703 79.0781 69.8629 79.8525 69.7148C82.5033 69.1816 85.9286 68.9742 89.6219 65.9821C94.5959 61.6273 95.9958 54.3397 95.9958 54.3397C95.6979 54.5767 95.4001 54.8434 95.1916 55.1396C94.2981 56.4727 93.2258 57.6577 92.0046 58.6945C89.8899 60.5016 86.3158 62.9012 83.7841 64.9453C82.831 65.7155 81.8779 66.8116 81.2524 67.4041C80.9247 67.7596 80.5375 68.0855 80.1206 68.3521C80.1206 68.3521 83.2182 64.9749 83.9926 61.2422C84.6478 58.6649 84.5883 56.7986 84.7074 54.8434C84.8563 52.74 84.9755 51.1699 84.9755 51.1699C83.4564 53.7176 82.1161 56.4431 80.9545 59.2278Z" fill="#2B6BB7" stroke="#2B6BB7" stroke-width="0.89088" stroke-miterlimit="10"/>
<path d="M85.6904 60.5304C86.2861 59.3454 86.6138 58.0419 86.584 56.7088C86.5542 54.0723 85.8096 50.5766 86.1372 47.4364C86.6435 42.1929 87.9838 39.7637 87.9838 39.7637C87.9838 39.7637 89.4433 44.5332 89.4433 49.0065C89.4433 54.2796 87.9838 57.0347 87.9838 57.0347C88.8476 55.4054 89.8007 53.8353 90.8432 52.3244C92.3324 50.1915 94.4173 48.3251 95.9661 46.2514C97.0979 44.7109 98.0808 43.052 98.9148 41.3041C98.9148 41.3041 99.3913 46.6069 95.7874 52.0578C94.3577 54.2204 91.3793 56.2645 89.1752 57.9827C88.103 58.8122 87.0605 59.7305 86.1074 60.6785L85.6904 60.5304Z" fill="#2B6BB7" stroke="#2B6BB7" stroke-width="0.89088" stroke-miterlimit="10"/>
<path d="M91.5573 45.986C90.7829 43.5864 88.9959 40.4462 88.3704 37.3949C87.4173 32.8031 87.9832 30.9664 87.9832 30.9664C87.9832 30.9664 90.7234 34.7287 92.1232 38.5206C93.1657 41.3349 93.0168 44.4455 93.0168 44.4455C93.3444 42.7569 93.7614 41.0979 94.3273 39.4982C95.4591 36.1507 97.3951 32.0625 98.3482 29.6037C98.6163 28.9223 98.7652 28.1817 98.795 27.4707C98.795 27.4707 98.9439 28.0632 99.212 29.1C99.5992 30.3739 99.7779 31.6774 99.8077 33.0105C99.7481 34.7583 99.4205 36.4765 98.8546 38.1059C98.0206 40.7424 95.5485 43.8234 93.7912 46.2526C92.6296 47.8523 91.9445 48.978 91.9445 48.978H91.6169C91.8552 48.0004 91.8552 46.9636 91.5573 45.986Z" fill="#2B6BB7" stroke="#2B6BB7" stroke-width="0.89088" stroke-miterlimit="10"/>
<path d="M86.584 26.4031C88.9965 30.9949 90.8432 32.7724 92.3324 35.2608C92.8983 36.2384 93.3153 37.2753 93.5238 38.3714L93.762 38.1344C93.762 38.1344 94.1492 36.7717 94.6854 34.8461C95.4896 32.0021 96.5916 27.8547 96.4129 24.2998C96.2937 22.6112 95.8768 20.9522 95.1619 19.4118C94.0301 16.4789 92.6004 15.0273 92.6004 15.0273C92.9579 16.6863 93.1961 18.3749 93.3451 20.0635C93.1961 22.5223 92.7792 24.5664 92.66 26.729C92.6302 28.0917 92.7196 29.4841 92.9579 30.8468C92.3324 29.3359 91.4686 27.914 90.3666 26.6994C89.2348 25.4255 87.8349 24.2405 86.6733 23.2333C85.5117 22.2261 84.6182 21.3373 84.6182 21.3373C85.0947 23.0852 85.75 24.8034 86.584 26.4031Z" fill="#2B6BB7" stroke="#2B6BB7" stroke-width="0.89088" stroke-miterlimit="10"/>
<path d="M83.933 18.671C85.6307 20.6854 87.5072 22.5221 89.5325 24.1811C90.2474 24.8328 90.8728 25.5438 91.409 26.3141H91.5579C91.5579 26.3141 91.6174 25.3068 91.7366 23.8849C91.9451 21.663 92.3025 18.9968 91.3792 15.6196C90.8133 13.6644 89.8304 11.8573 88.5198 10.2872C87.8944 9.54663 87.1498 8.86527 86.3456 8.33203C86.3456 8.33203 86.4945 8.62828 86.8519 9.60588C87.2987 10.7909 87.6859 12.0055 87.9837 13.2793C88.3114 14.7605 88.5496 16.301 88.8177 17.6637C89.1453 19.3819 89.5027 20.715 89.5027 20.715C89.5027 20.715 89.0857 19.5301 87.3582 17.9896C85.9584 16.7454 83.7543 15.4715 82.2055 14.3162C81.3418 13.6941 80.5674 12.9534 79.8525 12.1536C79.8227 12.1536 80.0908 14.3458 83.933 18.671Z" fill="#2B6BB7" stroke="#2B6BB7" stroke-width="0.89088" stroke-miterlimit="10"/>
<path d="M83.9926 14.1686C81.1928 11.2061 80.0908 9.13243 78.7505 7.20684C77.9463 6.05149 77.3208 5.28125 77.3208 5.28125C77.3208 5.28125 81.4311 6.58472 83.7245 9.1028C87.8646 13.6946 87.5965 16.5385 87.5965 16.5385C87.5965 16.5385 85.2733 15.5609 83.9926 14.1686Z" fill="#2B6BB7" stroke="#2B6BB7" stroke-width="0.89088" stroke-miterlimit="10"/>
<path d="M52.9571 1.69649C47.3874 5.28105 41.5496 17.5159 38.452 32.0912C34.431 51.0212 36.3075 66.8999 42.7409 68.233C49.1744 69.5661 57.3652 55.7907 61.4159 36.8311C64.5135 22.2558 64.1561 8.7471 60.5224 3.23696C59.5693 1.81499 58.4375 0.955879 57.1269 0.689259C55.7866 0.422639 54.4165 0.748508 52.9571 1.69649ZM42.9792 67.1665C37.3499 66.0111 35.7713 50.0436 39.554 32.3282C41.073 25.2183 43.2473 18.5824 45.8385 13.1908C48.3107 8.00649 51.0806 4.27382 53.5826 2.64447C54.7739 1.87424 55.876 1.60762 56.8887 1.81499C57.9013 2.02236 58.7949 2.73334 59.5693 3.8887C61.2074 6.37715 62.1903 10.8801 62.369 16.6272C62.5477 22.6113 61.8329 29.5435 60.3139 36.6533C56.5312 54.3391 48.6085 68.3218 42.9792 67.1665Z" fill="#2B6BB7" stroke="#2B6BB7" stroke-width="0.89088" stroke-miterlimit="10"/>
<path d="M53.9399 0.601338C55.1909 0.216221 56.5312 0.216221 57.7524 0.601338C59.0033 1.01608 60.1947 1.96406 61.118 3.91927C64.1263 10.1404 63.3519 19.8276 63.3519 19.8276H62.3988C62.3988 19.8276 62.4286 10.0515 60.1649 5.48937C58.08 0.719836 54.5952 2.31955 54.5952 2.31955L53.9399 0.601338Z" fill="#2B6BB7" stroke="#2B6BB7" stroke-width="0.89088" stroke-miterlimit="10"/>
<path d="M53.6421 3.38564C54.5468 3.38564 55.2802 2.65616 55.2802 1.7563C55.2802 0.856435 54.5468 0.126953 53.6421 0.126953C52.7373 0.126953 52.0039 0.856435 52.0039 1.7563C52.0039 2.65616 52.7373 3.38564 53.6421 3.38564Z" fill="#2B6BB7" stroke="#2B6BB7" stroke-width="0.89088" stroke-miterlimit="10"/>
<path d="M38.7196 15.0583C37.7963 15.4731 37.1113 16.3026 36.6347 17.5172C34.937 22.0793 36.9028 31.885 41.579 41.9277C44.4383 48.0599 47.8933 53.4516 51.3483 57.1546C54.9225 61.0058 58.1392 62.5463 60.3731 61.5391C62.6069 60.5318 63.4707 57.0954 62.8452 51.9111C62.2495 46.9046 60.3433 40.802 57.484 34.6697C54.6246 28.5374 51.1696 23.1458 47.7146 19.4427C44.1702 15.5916 40.9535 14.0511 38.7196 15.0583ZM56.5011 35.1437C62.6963 48.4451 63.292 59.021 59.9263 60.5318C56.5606 62.0427 48.8464 54.7551 42.6512 41.4537C39.1962 34.018 37.2006 26.5526 37.2006 21.5757C37.1708 20.3315 37.3495 19.0872 37.7367 17.8726C38.0942 16.9543 38.5707 16.3322 39.226 16.0359C42.5619 14.5251 50.3059 21.8423 56.5011 35.1437Z" fill="#2B6BB7" stroke="#2B6BB7" stroke-width="0.89088" stroke-miterlimit="10"/>
<path d="M38.8692 14.6721C40.1201 14.1981 41.8774 14.7906 41.8774 14.7906C43.039 15.2646 44.1411 15.8867 45.0942 16.7162C48.2513 19.3231 50.7532 23.2335 50.7532 23.2335L49.8895 23.7668C49.8895 23.7668 47.5663 20.1822 44.9155 18.0196C43.9326 17.2198 42.8305 16.6273 41.6094 16.2422C41.6094 16.2422 40.418 15.8867 39.4947 16.2422C38.7798 16.5088 38.2437 17.5456 38.2437 17.5456C37.5289 18.9972 37.5884 21.4857 37.5884 21.4857L35.8907 21.6042C35.8907 21.6042 35.8609 18.464 36.9332 16.6569C36.963 16.6273 37.648 15.1164 38.8692 14.6721Z" fill="#2B6BB7" stroke="#2B6BB7" stroke-width="0.89088" stroke-miterlimit="10"/>
<path d="M36.8735 23.885C37.6631 23.885 38.3032 23.2483 38.3032 22.463C38.3032 21.6777 37.6631 21.041 36.8735 21.041C36.0839 21.041 35.4438 21.6777 35.4438 22.463C35.4438 23.2483 36.0839 23.885 36.8735 23.885Z" fill="#2B6BB7" stroke="#2B6BB7" stroke-width="0.89088" stroke-miterlimit="10"/>
<path d="M48.2511 29.0997C41.1028 30.1662 34.5204 32.0622 29.6953 34.4321C24.6914 36.8909 22.1598 39.646 22.547 42.1641C22.6959 43.2009 23.3511 44.1489 24.4532 44.9488C28.6528 48.0001 39.3455 48.8888 51.0211 47.1114C58.1694 46.0449 64.7518 44.1489 69.5769 41.779C74.5807 39.3201 77.1124 36.5651 76.7252 34.047C76.338 31.5289 73.0915 29.6626 67.5515 28.7738C62.2797 27.9147 55.3994 28.0332 48.2511 29.0997ZM23.6192 41.6901C23.6192 37.8685 33.2992 32.4769 48.4298 30.1958C63.9774 27.8555 75.0573 30.4032 75.653 34.2247C76.2486 38.0463 66.4197 43.7046 50.8721 46.0449C39.6136 47.7335 29.04 46.9336 25.1084 44.0601C24.2447 43.4379 23.7681 42.7566 23.649 42.016C23.6192 41.9271 23.6192 41.8086 23.6192 41.6901Z" fill="#2B6BB7" stroke="#2B6BB7" stroke-width="0.89088" stroke-miterlimit="10"/>
<path d="M39.6433 46.7257C39.6433 46.7257 31.3036 46.785 27.0741 44.9779C25.3466 44.2373 24.1552 43.3485 23.8276 42.3413C23.5 41.3341 24.0659 40.0898 24.0659 40.0898L22.6362 41.0082C23.3808 43.4078 25.1381 45.3334 27.4613 46.311C32.0482 48.2069 39.7326 48.1181 39.7326 48.1181L39.6433 46.7257Z" fill="#2B6BB7" stroke="#2B6BB7" stroke-width="0.89088" stroke-miterlimit="10"/>
<path d="M40.4472 48.7111C41.1875 48.7111 41.7876 48.1143 41.7876 47.378C41.7876 46.6418 41.1875 46.0449 40.4472 46.0449C39.707 46.0449 39.1069 46.6418 39.1069 47.378C39.1069 48.1143 39.707 48.7111 40.4472 48.7111Z" fill="#2B6BB7" stroke="#2B6BB7" stroke-width="0.89088" stroke-miterlimit="10"/>
<path d="M32.1078 28.0037C31.1249 29.6627 32.1078 32.2992 34.9075 35.4098C37.5881 38.4019 41.6388 41.5421 46.315 44.2675C50.9912 46.993 55.7568 48.9778 59.6883 49.8369C63.7986 50.7553 66.6281 50.3405 67.611 48.6519C68.5939 46.9633 67.611 44.3564 64.8113 41.2458C62.1307 38.2538 58.08 35.1136 53.4038 32.3881C48.7276 29.6627 43.962 27.6778 40.0305 26.8187C35.9202 25.9004 33.1204 26.3151 32.1078 28.0037ZM52.957 33.188C63.1136 39.0832 68.3259 45.7191 66.8366 48.2076C65.3474 50.696 56.9481 49.3925 46.8214 43.4677C37.8264 38.2241 32.6737 32.4177 32.6737 29.4553C32.6737 29.0998 32.763 28.7739 32.9119 28.4777C34.4012 25.9892 42.8004 27.2927 52.957 33.188Z" fill="#2B6BB7" stroke="#2B6BB7" stroke-width="0.89088" stroke-miterlimit="10"/>
<path d="M55.2803 47.6738C55.2803 47.6738 60.2245 49.1551 63.5008 49.1551C64.5433 49.1847 65.5262 48.8292 66.3006 48.1478C66.4197 48.0293 66.4793 47.8516 66.4495 47.7035L68.177 47.7627C68.177 47.7627 67.8791 50.34 64.1561 50.34C61.2074 50.4585 54.9824 48.2663 54.9824 48.2663L55.2803 47.6738Z" fill="#2B6BB7" stroke="#2B6BB7" stroke-width="0.89088" stroke-miterlimit="10"/>
<path d="M67.313 48.4143C68.119 48.4143 68.7724 47.7776 68.7724 46.9923C68.7724 46.207 68.119 45.5703 67.313 45.5703C66.5069 45.5703 65.8535 46.207 65.8535 46.9923C65.8535 47.7776 66.5069 48.4143 67.313 48.4143Z" fill="#2B6BB7" stroke="#2B6BB7" stroke-width="0.89088" stroke-miterlimit="10"/>
<path d="M54.0888 44.4456C55.0923 44.4456 55.9057 43.6498 55.9057 42.6681C55.9057 41.6864 55.0923 40.8906 54.0888 40.8906C53.0854 40.8906 52.272 41.6864 52.272 42.6681C52.272 43.6498 53.0854 44.4456 54.0888 44.4456Z" fill="#2B6BB7" stroke="#2B6BB7" stroke-width="0.89088" stroke-miterlimit="10"/>
<path d="M43.337 122.92L34.1038 99.8125H29.3382L20.105 122.92H25.1684L27.0448 117.883H36.3674L38.2438 122.92H43.337ZM34.6994 113.736H28.6234L31.721 105.441L34.8186 113.736H34.6994Z" fill="#2B6BB7" stroke="#2B6BB7" stroke-width="0.89088" stroke-miterlimit="10"/>
<path d="M67.7599 122.92V119.068H54.6547V112.847H66.2707V108.996H54.6547V103.664H67.1642V99.8125H49.8892V122.92H67.7599Z" fill="#2B6BB7" stroke="#2B6BB7" stroke-width="0.89088" stroke-miterlimit="10"/>
<path d="M96.3536 123.068L87.1204 99.9609H82.3548L73.1216 123.068H78.185L80.0614 118.032H89.384L91.2604 123.068H96.3536ZM87.716 113.884H81.64L84.7376 105.59L87.8352 113.884H87.716Z" fill="#2B6BB7" stroke="#2B6BB7" stroke-width="0.89088" stroke-miterlimit="10"/>
<path d="M9.38232 99.8125L9.68017 122.92H14.1479V99.8125H9.38232Z" fill="#2B6BB7" stroke="#2B6BB7" stroke-width="0.89088" stroke-miterlimit="10"/>
</g>
<defs>
<clipPath id="clip0_3089_122140">
<rect width="99.7785" height="122.941" fill="white" transform="translate(0 0.126953)"/>
</clipPath>
</defs>
</svg>
