<svg width="286" height="274" viewBox="0 0 286 274" fill="none" xmlns="http://www.w3.org/2000/svg">
<g clip-path="url(#clip0_3915_123288)">
<path d="M60.4746 42.3726C58.6521 44.5265 56.5396 45.3549 53.5987 44.7751C50.2436 44.0709 46.9299 45.3964 43.5748 45.4792C41.628 45.5206 39.8055 45.4792 37.8173 44.8165C35.7877 44.1537 33.4267 44.1537 31.5627 46.3491C29.4503 48.7929 26.9236 51.1125 23.2785 51.361C22.0359 51.4438 21.456 52.3551 21.5803 53.5149C21.7874 55.4617 20.669 56.0001 19.095 55.9587C18.1009 55.9587 17.521 56.1244 16.7755 56.9942C11.4321 63.3731 8.5741 70.746 6.71016 78.7817C5.30184 84.7877 8.5741 87.8114 12.6748 90.7523C18.1009 94.6459 23.6513 98.4152 28.9532 102.433C30.8172 103.883 31.9355 105.747 31.6456 108.646C30.9828 115.481 30.403 122.398 31.8113 129.232C32.6397 133.416 35.5806 136.605 37.4859 140.292C39.7641 144.682 40.5925 149.404 40.841 154.292C41.0896 159.801 41.0481 165.31 41.8351 170.778C41.918 171.316 41.9594 171.937 41.7523 172.434C39.3085 178.979 40.1783 185.731 40.5925 192.399C41.131 201.098 40.2197 209.755 40.054 218.412C39.9298 223.631 39.6812 228.85 38.6043 233.986C38.48 234.525 38.6871 235.146 38.1901 235.56C35.622 237.673 36.3261 240.323 36.9889 242.933C37.1546 243.679 37.5274 244.466 37.3617 245.128C36.0362 251.59 38.8114 256.892 42.0008 262.111C43.2435 264.182 43.7405 266.377 42.2908 268.655C41.4623 269.981 42.2493 270.644 43.5748 270.519C49.3323 269.939 55.0898 269.194 60.8888 268.614C63.3326 268.365 65.7765 268.324 68.2203 268.117C72.5281 267.703 76.7944 267.247 81.1022 266.791C81.5164 268.697 80.7294 269.815 78.7826 270.105C70.9955 271.223 63.2498 272.59 55.3798 272.466C52.9774 272.425 50.7406 272.839 48.5868 274.04C46.5157 275.2 39.7227 273.874 38.0244 272.218C37.6102 271.845 37.0717 271.555 37.196 270.851C37.8173 266.626 35.3735 263.519 33.3024 260.33C31.9769 258.3 31.2314 256.105 31.3971 253.785C31.6456 250.223 31.5213 246.744 30.5272 243.306C29.9473 241.318 30.5686 239.826 32.1426 238.749C33.6752 237.714 33.8823 236.306 34.048 234.69C35.622 220.731 35.2078 206.772 35.2078 192.772C35.2078 186.725 35.1664 180.801 36.6575 174.795C37.2374 172.434 36.3261 169.494 36.2433 166.843C36.0776 160.464 35.6634 154.126 34.1308 147.872C33.5509 145.469 32.3912 143.357 31.0657 141.369C29.2017 138.511 27.752 135.487 26.5508 132.298C24.8111 127.576 25.7224 122.854 25.8881 118.132C26.0123 114.901 26.5094 111.753 25.5981 108.522C25.2668 107.362 24.7283 106.658 23.817 105.912C18.5566 101.646 12.8405 98.1667 7.24863 94.4388C2.52664 91.3322 -0.0828812 86.486 -3.92712e-05 80.5628C-3.92712e-05 79.113 0.0828026 77.7876 1.73964 77.1248C2.15385 76.9591 2.56806 76.2964 2.6509 75.8408C3.31364 71.7815 6.42021 68.7578 7.16579 64.5743C7.53858 62.5861 8.65694 59.5623 11.8878 59.1481C13.089 58.9824 13.9174 57.6984 14.2488 57.0357C15.3671 54.8403 17.3139 53.2663 18.8465 51.6509C20.8347 49.5799 23.6928 48.0887 26.1366 46.3905C28.0005 45.1064 30.0302 44.1952 31.1071 42.207C31.4799 41.4614 31.7698 41.0886 32.5154 40.7572C36.6161 39.059 40.5511 38.0649 44.7346 40.9643C46.3086 42.0413 48.7939 41.6271 50.7821 41.0472C53.2673 40.343 55.6697 40.0116 58.2378 40.5087C59.9361 40.8401 65.8179 37.7335 67.2676 36.6565C67.6818 36.2838 68.0546 36.2838 68.4688 36.6565C67.4747 37.9406 61.9243 41.7513 60.4746 42.3726Z" fill="#227A44"/>
<path d="M136.234 57.6992C136.565 58.9833 136.606 56.9951 136.979 58.072C137.766 60.2259 138.512 62.2969 138.843 64.6579C139.34 68.2201 140.541 71.6995 142.488 74.8475C144.518 78.1612 142.778 86.6939 139.754 88.972C139.133 89.4277 138.305 89.262 137.559 89.1792C137.103 88.8892 136.275 89.1377 136.109 88.3507C136.441 86.7353 135.737 85.1199 136.979 83.4216C137.642 82.5104 136.689 80.5222 136.482 79.031C134.95 77.9541 135.322 75.5517 133.5 74.6818C132.796 74.0605 133.707 73.0664 133.003 72.4451C131.802 67.4746 130.476 62.5869 128.529 57.9063" fill="#EB0000"/>
<path d="M128.653 58.2392C127.825 56.2096 126.872 54.2213 125.754 52.2746C124.428 49.955 124.138 46.8484 124.76 44.1975C125.34 41.7122 124.387 39.0199 126.251 36.6589C127.452 35.1263 124.428 30.6114 122.44 29.8658C115.896 27.422 112.25 22.2029 108.233 17.0667C104.753 12.6347 101.067 8.24408 95.8892 5.5103C95.5164 5.30319 92.9483 5.80024 92.4927 6.04877C90.1317 7.16714 87.6879 7.70561 85.0369 7.74703C81.599 7.74703 81.5576 7.87129 82.1375 11.3092C82.3031 12.3033 82.3031 13.3389 82.8002 14.2915C83.7943 16.0726 83.5043 17.5638 81.8061 18.8893C80.4806 19.9248 79.4865 21.3745 79.9421 23.197C80.3978 24.8125 78.8238 25.3095 78.3681 26.4279C76.9598 29.7001 74.9302 32.5582 71.9479 34.6707C71.3266 35.2505 64.5335 40.801 63.7051 40.8424C63.4152 40.5939 62.7524 40.9252 63.001 40.6353C63.7051 35.9547 68.0543 34.0079 71.4508 31.1913C73.1491 29.8244 73.8947 27.3806 74.1432 25.1024C74.3089 23.3213 75.013 21.9544 76.6285 21.2503C77.7882 20.7118 77.4155 19.8834 77.1669 19.1792C76.6699 17.8123 76.09 16.4454 75.5101 15.12C73.6876 10.895 75.1373 8.0784 79.6936 7.16714C80.2321 7.04287 81.1433 6.79435 81.1433 6.54582C81.3919 3.97772 83.5872 4.59904 84.7884 4.76472C87.9778 5.17893 90.5873 2.77651 93.6939 3.31499C94.5223 3.43925 94.8123 2.69367 95.2679 2.27946C98.0431 -0.412901 101.025 -0.537164 103.966 2.11378C108.854 6.5044 113.7 10.9364 117.428 16.4869C119.872 20.1319 123.227 23.0314 127.411 25.2681C131.884 27.6291 133.707 30.8185 131.594 36.9074C130.269 40.6767 130.227 44.4874 132.257 48.2153C133.541 50.5763 136.316 55.7539 136.979 58.3634" fill="#FFBE00"/>
<path d="M88.7238 241.981C89.0552 240.075 89.428 238.17 89.5937 236.182C87.6469 236.554 85.6173 236.389 83.5462 236.389C83.5048 236.389 83.4634 236.389 83.4219 236.389C83.132 238.004 83.0077 239.62 83.2563 241.318C83.3805 242.146 82.8835 242.933 82.8006 243.72C82.3864 247.075 82.1379 250.43 83.8776 253.537C84.4575 254.614 84.6646 255.691 84.1261 256.726C82.4693 259.916 81.8894 263.395 81.0195 266.792C85.5758 266.75 86.3214 266.088 87.2741 261.614C87.7711 259.295 88.1025 256.809 89.2623 254.78C90.4635 252.667 90.215 250.969 89.3866 249.022C88.351 246.744 88.2682 244.424 88.7238 241.981Z" fill="#EB0000"/>
<path d="M123.517 113.701C120.452 113.991 119.375 117.47 116.393 117.967C114.86 118.216 114.197 119.334 114.363 121.032C114.529 122.565 114.57 124.47 112.748 125.05C111.008 125.63 110.014 126.831 109.186 128.198C110.428 128.902 111.919 129.399 113.079 128.737C113.121 128.737 113.121 128.695 113.162 128.695C114.653 126.21 116.683 124.015 119.209 122.068C119.541 121.778 120.038 121.281 119.955 120.95C119.499 117.926 121.28 116.476 123.766 115.399C124.139 115.234 124.553 114.736 124.636 114.364C124.843 113.328 123.973 113.825 123.517 113.701Z" fill="#EB0000"/>
<path d="M118.422 117.553C120.038 115.026 134.411 99.9906 135.571 97.2568C135.944 96.4284 135.861 95.2686 135.364 94.2745C133.085 89.5111 134.784 86.1145 140.168 84.7891C140.003 87.1086 140.21 89.3454 141.121 91.5821C141.577 92.7419 141.453 93.9845 140.79 95.31C139.671 97.5467 139.009 99.9906 138.056 102.269C137.186 104.298 121.902 117.843 119.665 118.423C118.961 118.589 118.34 118.547 118.422 117.553Z" fill="#EB0000"/>
<path d="M86.2439 194.935C89.3095 194.935 90.7346 193.411 90.7346 191.638C90.7346 187.379 83.7086 189.152 83.7086 186.318C83.7086 185.308 84.5537 184.479 86.5256 184.479C87.553 184.479 88.6964 184.777 89.7072 185.424L90.254 184.098C89.2929 183.435 87.8844 183.071 86.5256 183.071C83.4766 183.071 82.0846 184.595 82.0846 186.385C82.0846 190.693 89.1107 188.904 89.1107 191.737C89.1107 192.748 88.249 193.527 86.2439 193.527C84.7525 193.527 83.2777 192.963 82.4161 192.185L81.8029 193.477C82.7309 194.339 84.4708 194.935 86.2439 194.935ZM98.9757 186.02L95.9433 193.046L92.8777 186.02H91.2206L95.0981 194.786L94.8164 195.399C94.3856 196.41 93.905 196.758 93.1428 196.758C92.5462 196.758 91.9994 196.526 91.5686 196.112L90.8892 197.305C91.436 197.835 92.2977 198.117 93.1428 198.117C94.485 198.117 95.4958 197.537 96.2747 195.681L100.533 186.02H98.9757ZM104.423 194.902C106.76 194.902 108.218 193.891 108.218 192.301C108.218 188.887 102.65 190.577 102.65 188.506C102.65 187.81 103.33 187.296 104.722 187.296C105.583 187.296 106.462 187.478 107.257 187.992L107.936 186.733C107.174 186.236 105.882 185.937 104.738 185.937C102.485 185.937 101.076 186.998 101.076 188.572C101.076 192.069 106.627 190.362 106.627 192.334C106.627 193.079 106.014 193.527 104.539 193.527C103.396 193.527 102.203 193.146 101.457 192.615L100.794 193.875C101.524 194.455 102.965 194.902 104.423 194.902ZM114.647 193.146C114.316 193.411 113.868 193.56 113.404 193.56C112.526 193.56 112.029 193.03 112.029 192.085V187.329H114.548V186.02H112.029V184.098H110.438V186.02H108.947V187.329H110.438V192.151C110.438 193.924 111.449 194.902 113.222 194.902C113.935 194.902 114.664 194.703 115.144 194.289L114.647 193.146ZM121.598 184.744L119.345 182.59H117.323L120.107 184.744H121.598ZM124.714 190.461C124.714 187.76 122.908 185.937 120.372 185.937C117.837 185.937 115.964 187.81 115.964 190.411C115.964 193.03 117.853 194.902 120.687 194.902C122.145 194.902 123.355 194.405 124.15 193.477L123.272 192.45C122.626 193.162 121.764 193.51 120.737 193.51C118.997 193.51 117.754 192.483 117.555 190.942H124.681C124.697 190.793 124.714 190.594 124.714 190.461ZM120.372 187.28C121.913 187.28 123.024 188.324 123.189 189.798H117.555C117.721 188.307 118.848 187.28 120.372 187.28ZM137.909 185.937C136.418 185.937 135.192 186.567 134.529 187.561C133.949 186.468 132.822 185.937 131.48 185.937C130.154 185.937 129.077 186.434 128.447 187.329V186.02H126.923V194.803H128.514V190.279C128.514 188.373 129.557 187.362 131.148 187.362C132.59 187.362 133.418 188.208 133.418 189.931V194.803H135.009V190.279C135.009 188.373 136.053 187.362 137.644 187.362C139.086 187.362 139.914 188.208 139.914 189.931V194.803H141.505V189.749C141.505 187.164 140.047 185.937 137.909 185.937ZM152.418 190.461C152.418 187.76 150.612 185.937 148.077 185.937C145.541 185.937 143.669 187.81 143.669 190.411C143.669 193.03 145.558 194.902 148.391 194.902C149.85 194.902 151.059 194.405 151.855 193.477L150.976 192.45C150.33 193.162 149.468 193.51 148.441 193.51C146.701 193.51 145.458 192.483 145.259 190.942H152.385C152.401 190.793 152.418 190.594 152.418 190.461ZM148.077 187.28C149.618 187.28 150.728 188.324 150.894 189.798H145.259C145.425 188.307 146.552 187.28 148.077 187.28ZM165.772 182.507V187.346C165.043 186.401 163.949 185.937 162.706 185.937C160.138 185.937 158.265 187.727 158.265 190.411C158.265 193.096 160.138 194.902 162.706 194.902C163.999 194.902 165.126 194.405 165.838 193.411V194.803H167.363V182.507H165.772ZM162.839 193.51C161.149 193.51 159.873 192.284 159.873 190.411C159.873 188.539 161.149 187.329 162.839 187.329C164.512 187.329 165.788 188.539 165.788 190.411C165.788 192.284 164.512 193.51 162.839 193.51ZM170.77 182.408C170.141 182.408 169.66 182.872 169.66 183.535C169.66 184.032 169.942 184.413 170.356 184.562L169.743 187.031H170.787L171.582 184.711C171.798 184.098 171.847 183.849 171.847 183.535C171.847 182.888 171.4 182.408 170.77 182.408ZM174.359 194.803H176.016V183.203H174.359V194.803ZM183.946 185.937C182.554 185.937 181.427 186.451 180.781 187.346V186.02H179.257V194.803H180.847V190.279C180.847 188.373 181.941 187.362 183.631 187.362C185.139 187.362 186.001 188.208 186.001 189.931V194.803H187.592V189.749C187.592 187.164 186.084 185.937 183.946 185.937ZM193.751 183.717C194.214 183.717 194.645 183.883 194.977 184.131L195.457 182.921C195.01 182.573 194.347 182.408 193.668 182.408C191.795 182.408 190.768 183.535 190.768 185.241V186.02H189.276V187.329H190.768V194.803H192.359V187.329H194.877V186.02H192.325V185.258C192.325 184.247 192.806 183.717 193.751 183.717ZM200.01 194.902C202.645 194.902 204.567 193.03 204.567 190.411C204.567 187.793 202.645 185.937 200.01 185.937C197.375 185.937 195.436 187.793 195.436 190.411C195.436 193.03 197.375 194.902 200.01 194.902ZM200.01 193.51C198.32 193.51 197.044 192.284 197.044 190.411C197.044 188.539 198.32 187.329 200.01 187.329C201.7 187.329 202.959 188.539 202.959 190.411C202.959 192.284 201.7 193.51 200.01 193.51ZM208.291 187.495V186.02H206.767V194.803H208.358V190.428C208.358 188.506 209.418 187.462 211.125 187.462C211.241 187.462 211.357 187.462 211.489 187.478V185.937C209.948 185.937 208.855 186.468 208.291 187.495ZM224.437 185.937C222.945 185.937 221.719 186.567 221.056 187.561C220.476 186.468 219.349 185.937 218.007 185.937C216.681 185.937 215.604 186.434 214.975 187.329V186.02H213.45V194.803H215.041V190.279C215.041 188.373 216.085 187.362 217.676 187.362C219.117 187.362 219.946 188.208 219.946 189.931V194.803H221.537V190.279C221.537 188.373 222.581 187.362 224.171 187.362C225.613 187.362 226.442 188.208 226.442 189.931V194.803H228.032V189.749C228.032 187.164 226.574 185.937 224.437 185.937ZM234.158 185.937C232.749 185.937 231.44 186.335 230.529 187.064L231.191 188.257C231.871 187.677 232.931 187.313 233.975 187.313C235.55 187.313 236.328 188.092 236.328 189.434V189.749H233.81C231.191 189.749 230.28 190.909 230.28 192.317C230.28 193.842 231.539 194.902 233.528 194.902C234.903 194.902 235.881 194.438 236.411 193.643V194.803H237.919V189.5C237.919 187.097 236.56 185.937 234.158 185.937ZM233.793 193.676C232.583 193.676 231.854 193.129 231.854 192.251C231.854 191.505 232.302 190.892 233.876 190.892H236.328V192.118C235.931 193.129 234.986 193.676 233.793 193.676ZM245.304 193.146C244.973 193.411 244.525 193.56 244.061 193.56C243.183 193.56 242.686 193.03 242.686 192.085V187.329H245.205V186.02H242.686V184.098H241.095V186.02H239.604V187.329H241.095V192.151C241.095 193.924 242.106 194.902 243.879 194.902C244.592 194.902 245.321 194.703 245.801 194.289L245.304 193.146ZM248.52 184.33C249.15 184.33 249.597 183.866 249.597 183.269C249.597 182.706 249.133 182.259 248.52 182.259C247.907 182.259 247.443 182.723 247.443 183.303C247.443 183.883 247.907 184.33 248.52 184.33ZM247.724 194.803H249.315V186.02H247.724V194.803ZM256.114 194.902C258.749 194.902 260.671 193.03 260.671 190.411C260.671 187.793 258.749 185.937 256.114 185.937C253.479 185.937 251.541 187.793 251.541 190.411C251.541 193.03 253.479 194.902 256.114 194.902ZM256.114 193.51C254.424 193.51 253.148 192.284 253.148 190.411C253.148 188.539 254.424 187.329 256.114 187.329C257.804 187.329 259.064 188.539 259.064 190.411C259.064 192.284 257.804 193.51 256.114 193.51ZM267.561 185.937C266.169 185.937 265.042 186.451 264.396 187.346V186.02H262.871V194.803H264.462V190.279C264.462 188.373 265.556 187.362 267.246 187.362C268.754 187.362 269.615 188.208 269.615 189.931V194.803H271.206V189.749C271.206 187.164 269.698 185.937 267.561 185.937ZM91.182 203.203V211.853L84.2223 203.203H82.8635V214.803H84.5205V206.153L91.4803 214.803H92.8391V203.203H91.182ZM99.2772 205.937C97.8687 205.937 96.5596 206.335 95.6482 207.064L96.3111 208.257C96.9905 207.677 98.051 207.313 99.0949 207.313C100.669 207.313 101.448 208.092 101.448 209.434V209.749H98.9292C96.3111 209.749 95.3997 210.909 95.3997 212.317C95.3997 213.842 96.659 214.902 98.6475 214.902C100.023 214.902 101.001 214.438 101.531 213.643V214.803H103.039V209.5C103.039 207.097 101.68 205.937 99.2772 205.937ZM98.9127 213.676C97.703 213.676 96.9739 213.129 96.9739 212.251C96.9739 211.505 97.4213 210.892 98.9955 210.892H101.448V212.118C101.05 213.129 100.106 213.676 98.9127 213.676ZM110.424 213.146C110.092 213.411 109.645 213.56 109.181 213.56C108.303 213.56 107.805 213.03 107.805 212.085V207.329H110.324V206.02H107.805V204.098H106.215V206.02H104.723V207.329H106.215V212.151C106.215 213.924 107.226 214.902 108.999 214.902C109.711 214.902 110.44 214.703 110.921 214.289L110.424 213.146ZM113.639 204.33C114.269 204.33 114.717 203.866 114.717 203.269C114.717 202.706 114.253 202.259 113.639 202.259C113.026 202.259 112.562 202.723 112.562 203.303C112.562 203.883 113.026 204.33 113.639 204.33ZM112.844 214.803H114.435V206.02H112.844V214.803ZM121.234 214.902C123.869 214.902 125.791 213.03 125.791 210.411C125.791 207.793 123.869 205.937 121.234 205.937C118.599 205.937 116.66 207.793 116.66 210.411C116.66 213.03 118.599 214.902 121.234 214.902ZM121.234 213.51C119.544 213.51 118.268 212.284 118.268 210.411C118.268 208.539 119.544 207.329 121.234 207.329C122.924 207.329 124.183 208.539 124.183 210.411C124.183 212.284 122.924 213.51 121.234 213.51ZM132.68 205.937C131.288 205.937 130.162 206.451 129.515 207.346V206.02H127.991V214.803H129.582V210.279C129.582 208.373 130.675 207.362 132.365 207.362C133.873 207.362 134.735 208.208 134.735 209.931V214.803H136.326V209.749C136.326 207.164 134.818 205.937 132.68 205.937ZM142.468 205.937C141.06 205.937 139.75 206.335 138.839 207.064L139.502 208.257C140.181 207.677 141.242 207.313 142.286 207.313C143.86 207.313 144.639 208.092 144.639 209.434V209.749H142.12C139.502 209.749 138.591 210.909 138.591 212.317C138.591 213.842 139.85 214.902 141.838 214.902C143.214 214.902 144.191 214.438 144.722 213.643V214.803H146.23V209.5C146.23 207.097 144.871 205.937 142.468 205.937ZM142.104 213.676C140.894 213.676 140.165 213.129 140.165 212.251C140.165 211.505 140.612 210.892 142.186 210.892H144.639V212.118C144.241 213.129 143.297 213.676 142.104 213.676ZM149.174 214.803H150.764V202.507H149.174V214.803ZM164.946 202.507V207.346C164.217 206.401 163.124 205.937 161.881 205.937C159.312 205.937 157.44 207.727 157.44 210.411C157.44 213.096 159.312 214.902 161.881 214.902C163.173 214.902 164.3 214.405 165.013 213.411V214.803H166.537V202.507H164.946ZM162.013 213.51C160.323 213.51 159.047 212.284 159.047 210.411C159.047 208.539 160.323 207.329 162.013 207.329C163.687 207.329 164.963 208.539 164.963 210.411C164.963 212.284 163.687 213.51 162.013 213.51ZM177.485 210.461C177.485 207.76 175.678 205.937 173.143 205.937C170.608 205.937 168.735 207.81 168.735 210.411C168.735 213.03 170.624 214.902 173.458 214.902C174.916 214.902 176.126 214.405 176.921 213.477L176.043 212.45C175.397 213.162 174.535 213.51 173.508 213.51C171.768 213.51 170.525 212.483 170.326 210.942H177.451C177.468 210.793 177.485 210.594 177.485 210.461ZM173.143 207.28C174.684 207.28 175.794 208.324 175.96 209.798H170.326C170.492 208.307 171.619 207.28 173.143 207.28ZM184.144 214.803H185.735V202.507H184.144V214.803ZM189.17 202.408C188.54 202.408 188.059 202.872 188.059 203.535C188.059 204.032 188.341 204.413 188.755 204.562L188.142 207.031H189.186L189.982 204.711C190.197 204.098 190.247 203.849 190.247 203.535C190.247 202.888 189.799 202.408 189.17 202.408ZM194.415 213.361V209.616H200.232V208.208H194.415V204.645H200.944V203.203H192.758V214.803H201.176V213.361H194.415ZM208.317 205.937C206.925 205.937 205.798 206.451 205.152 207.346V206.02H203.627V214.803H205.218V210.279C205.218 208.373 206.312 207.362 208.002 207.362C209.51 207.362 210.372 208.208 210.372 209.931V214.803H211.962V209.749C211.962 207.164 210.455 205.937 208.317 205.937ZM222.892 210.461C222.892 207.76 221.086 205.937 218.551 205.937C216.016 205.937 214.143 207.81 214.143 210.411C214.143 213.03 216.032 214.902 218.866 214.902C220.324 214.902 221.534 214.405 222.329 213.477L221.451 212.45C220.805 213.162 219.943 213.51 218.915 213.51C217.176 213.51 215.933 212.483 215.734 210.942H222.859C222.876 210.793 222.892 210.594 222.892 210.461ZM218.551 207.28C220.092 207.28 221.202 208.324 221.368 209.798H215.734C215.9 208.307 217.026 207.28 218.551 207.28ZM226.626 207.495V206.02H225.101V214.803H226.692V210.428C226.692 208.506 227.753 207.462 229.46 207.462C229.576 207.462 229.692 207.462 229.824 207.478V205.937C228.283 205.937 227.189 206.468 226.626 207.495ZM238.597 206.02V207.379C237.852 206.418 236.658 205.937 235.349 205.937C232.814 205.937 230.892 207.644 230.892 210.179C230.892 212.715 232.814 214.438 235.349 214.438C236.609 214.438 237.752 213.991 238.514 213.079V213.775C238.514 215.764 237.57 216.725 235.499 216.725C234.206 216.725 232.93 216.278 232.118 215.582L231.356 216.808C232.317 217.669 233.941 218.117 235.548 218.117C238.531 218.117 240.105 216.708 240.105 213.61V206.02H238.597ZM235.532 213.046C233.759 213.046 232.499 211.87 232.499 210.179C232.499 208.473 233.759 207.329 235.532 207.329C237.288 207.329 238.548 208.473 238.548 210.179C238.548 211.87 237.288 213.046 235.532 213.046ZM243.94 204.33C244.57 204.33 245.017 203.866 245.017 203.269C245.017 202.706 244.553 202.259 243.94 202.259C243.327 202.259 242.863 202.723 242.863 203.303C242.863 203.883 243.327 204.33 243.94 204.33ZM243.145 214.803H244.736V206.02H243.145V214.803ZM255.71 210.461C255.71 207.76 253.904 205.937 251.369 205.937C248.834 205.937 246.961 207.81 246.961 210.411C246.961 213.03 248.85 214.902 251.684 214.902C253.142 214.902 254.352 214.405 255.147 213.477L254.269 212.45C253.622 213.162 252.761 213.51 251.733 213.51C249.993 213.51 248.751 212.483 248.552 210.942H255.677C255.694 210.793 255.71 210.594 255.71 210.461ZM251.369 207.28C252.91 207.28 254.02 208.324 254.186 209.798H248.552C248.718 208.307 249.844 207.28 251.369 207.28ZM89.3261 222.507V227.346C88.597 226.401 87.5033 225.937 86.2605 225.937C83.692 225.937 81.8195 227.727 81.8195 230.411C81.8195 233.096 83.692 234.902 86.2605 234.902C87.553 234.902 88.6798 234.405 89.3924 233.411V234.803H90.9169V222.507H89.3261ZM86.393 233.51C84.7028 233.51 83.4269 232.284 83.4269 230.411C83.4269 228.539 84.7028 227.329 86.393 227.329C88.0667 227.329 89.3426 228.539 89.3426 230.411C89.3426 232.284 88.0667 233.51 86.393 233.51ZM100.522 226.02V230.561C100.522 232.45 99.4614 233.477 97.8044 233.477C96.2964 233.477 95.4347 232.615 95.4347 230.892V226.02H93.8439V231.074C93.8439 233.659 95.3519 234.902 97.6221 234.902C98.8649 234.902 99.9586 234.388 100.605 233.477V234.803H102.113V226.02H100.522ZM117.628 228.788C118.54 228.34 119.186 227.462 119.186 226.202C119.186 224.33 117.694 223.203 115.027 223.203H109.823V234.803H115.358C118.291 234.803 119.799 233.659 119.799 231.671C119.799 230.13 118.937 229.152 117.628 228.788ZM114.877 224.545C116.568 224.545 117.529 225.175 117.529 226.401C117.529 227.628 116.568 228.257 114.877 228.257H111.48V224.545H114.877ZM115.292 233.461H111.48V229.6H115.292C117.131 229.6 118.125 230.196 118.125 231.538C118.125 232.881 117.131 233.461 115.292 233.461ZM128.744 222.59H126.723L124.469 224.744H125.961L128.744 222.59ZM130.07 230.461C130.07 227.76 128.264 225.937 125.729 225.937C123.193 225.937 121.321 227.81 121.321 230.411C121.321 233.03 123.21 234.902 126.043 234.902C127.502 234.902 128.711 234.405 129.507 233.477L128.628 232.45C127.982 233.162 127.121 233.51 126.093 233.51C124.353 233.51 123.11 232.483 122.912 230.942H130.037C130.054 230.793 130.07 230.594 130.07 230.461ZM125.729 227.28C127.27 227.28 128.38 228.324 128.546 229.798H122.912C123.077 228.307 124.204 227.28 125.729 227.28ZM136.969 225.937C135.577 225.937 134.45 226.451 133.804 227.346V226.02H132.279V234.803H133.87V230.279C133.87 228.373 134.964 227.362 136.654 227.362C138.162 227.362 139.023 228.208 139.023 229.931V234.803H140.614V229.749C140.614 227.164 139.106 225.937 136.969 225.937ZM144.354 224.33C144.983 224.33 145.431 223.866 145.431 223.269C145.431 222.706 144.967 222.259 144.354 222.259C143.741 222.259 143.277 222.723 143.277 223.303C143.277 223.883 143.741 224.33 144.354 224.33ZM143.558 234.803H145.149V226.02H143.558V234.803ZM152.876 225.937C151.484 225.937 150.357 226.451 149.711 227.346V226.02H148.186V234.803H149.777V230.279C149.777 228.373 150.871 227.362 152.561 227.362C154.069 227.362 154.931 228.208 154.931 229.931V234.803H156.522V229.749C156.522 227.164 155.014 225.937 152.876 225.937Z" fill="#1F3C7E"/>
<path d="M99.1883 170.865C111.118 170.865 116.968 164.901 116.968 157.903C116.968 143.105 94.1984 147.694 94.1984 141.557C94.1984 139.549 95.919 137.943 100.68 137.943C104.178 137.943 107.964 138.976 111.806 141.041L115.305 132.609C111.348 130.315 105.956 129.111 100.737 129.111C88.807 129.111 82.9567 134.961 82.9567 142.13C82.9567 157.043 105.784 152.397 105.784 158.763C105.784 160.714 103.949 162.033 99.2456 162.033C94.5999 162.033 89.5526 160.427 85.9965 158.075L82.2684 166.449C86.0539 169.087 92.5924 170.865 99.1883 170.865ZM122.214 170.062H133.571V129.914H122.214V170.062ZM168.722 129.914V151.307L150.999 129.914H141.65V170.062H152.777V148.669L170.5 170.062H179.849V129.914H168.722ZM199.101 161.287V153.946H216.939V145.457H199.101V138.689H219.347V129.914H187.859V170.062H220.093V161.287H199.101ZM257.252 149.128C260.694 147.35 262.644 144.253 262.644 140.41C262.644 134.215 257.482 129.914 246.928 129.914H226.395V170.062H248.075C258.858 170.062 264.594 165.99 264.594 159.05C264.594 154.175 261.783 150.734 257.252 149.128ZM245.437 138.116C249.223 138.116 251.173 139.435 251.173 141.958C251.173 144.539 249.223 145.859 245.437 145.859H237.637V138.116H245.437ZM247.158 161.861H237.637V153.716H247.158C251.058 153.716 253.123 155.035 253.123 157.788C253.123 160.541 251.058 161.861 247.158 161.861Z" fill="#1F3C7E"/>
<path d="M58.1547 92.7426C57.4919 93.0739 56.7878 93.3639 56.0422 93.571V88.2277L60.5157 83.7542C60.7228 83.5471 60.7228 83.2158 60.5157 83.0086C60.4328 82.9258 60.2671 82.843 60.1429 82.843C60.0186 82.843 59.8944 82.8844 59.7701 83.0086L56.0422 86.7365V80.482L60.5157 76.0085C60.7228 75.8014 60.7228 75.47 60.5157 75.2629C60.4328 75.1801 60.2671 75.0972 60.1429 75.0972C60.0186 75.0972 59.8944 75.1387 59.7701 75.2629L56.0422 78.9908V71.6593C56.0422 71.4108 55.9594 71.1623 55.7937 71.038C55.628 70.8723 55.4209 70.7895 55.1724 70.7895C54.6753 70.7895 54.2611 71.2037 54.2611 71.7007V79.0322L50.5332 75.3044C50.4504 75.2215 50.2847 75.1387 50.1604 75.1387C50.0362 75.1387 49.9119 75.1801 49.7876 75.3044C49.5805 75.5115 49.5805 75.8428 49.7876 76.0499L54.2611 80.5234V86.778L50.5332 83.0501C50.4504 82.9672 50.2847 82.8844 50.1604 82.8844C50.0362 82.8844 49.9119 82.9258 49.7876 83.0501C49.5805 83.2572 49.5805 83.5885 49.7876 83.7957L54.2611 88.2691V93.6124C53.5155 93.4053 52.8114 93.1154 52.1486 92.784C41.2135 87.2336 46.2254 69.1326 55.1724 64.1621C64.0779 69.1326 69.0484 87.1922 58.1547 92.7426Z" fill="#227A44"/>
<path d="M95.7651 63.5838L94.0668 50.2877C93.9426 49.335 93.1141 48.6309 92.1615 48.6309H72.3622C71.4095 48.6309 70.5811 49.335 70.4569 50.2877L68.7586 63.5838C68.7172 63.7495 68.7172 63.9566 68.7586 64.1223C68.8414 64.5779 68.9657 64.9921 69.2142 65.3649C69.3385 65.6135 69.5456 65.8206 69.7113 66.0277C69.8356 66.1519 69.9598 66.2762 70.0841 66.4005C70.2498 66.5247 70.4154 66.6076 70.5811 66.649C70.6225 66.649 70.7054 66.6904 70.7468 66.6904H81.1849L80.2322 70.8325C80.2322 70.9153 81.8062 70.9568 82.2204 70.9568C82.6346 70.9568 84.2086 70.9153 84.2086 70.8325L83.2559 66.6904H93.6526C93.694 66.6904 93.7769 66.649 93.8183 66.649C94.2739 66.5247 94.6053 66.1933 94.8952 65.8206C95.1438 65.4892 95.3509 65.1578 95.5166 64.785C95.5994 64.5779 95.6822 64.3294 95.6822 64.0809C95.7651 63.9566 95.7651 63.7909 95.7651 63.5838ZM94.5639 64.0395C94.5224 64.2051 94.3982 64.3294 94.2739 64.4122C94.1497 64.4951 94.0254 64.5365 93.9011 64.5365H70.5397C70.4154 64.5365 70.2912 64.4951 70.1669 64.4122C70.0427 64.3294 69.9184 64.2051 69.877 64.0395C69.8355 63.9566 69.8356 63.8324 69.8356 63.7495L71.5338 50.4534C71.5752 50.0806 71.9066 49.7906 72.2794 49.7906H92.0786C92.4514 49.7906 92.7828 50.0806 92.8242 50.4534L94.5224 63.7495C94.6053 63.8738 94.6053 63.9566 94.5639 64.0395Z" fill="#FFBE00"/>
<path d="M78.0784 57.204L77.747 63.7485C77.747 63.8728 77.6228 63.997 77.4985 63.997H71.2854C71.1611 63.997 71.0368 63.9556 70.954 63.9142C70.8297 63.8313 70.7469 63.7071 70.7055 63.5828C70.6641 63.5 70.6641 63.4171 70.6641 63.2929L71.4511 57.204C71.4511 57.0797 71.5753 56.9969 71.6996 56.9969H77.8299C77.9541 56.9555 78.0784 57.0383 78.0784 57.204Z" fill="#FFBE00"/>
<path d="M78.4098 50.6196L78.1613 55.9629C78.1613 56.0872 78.037 56.2114 77.9128 56.2114H71.9067C71.741 56.2114 71.6582 56.0872 71.6582 55.9215L72.3209 50.9924C72.3624 50.6196 72.6937 50.3711 73.0251 50.3711H78.2027C78.2856 50.3711 78.4098 50.4954 78.4098 50.6196Z" fill="#FFBE00"/>
<path d="M85.5754 56.2114H79.1138C78.9895 56.2114 78.8652 56.0872 78.8652 55.9629L79.1138 50.6196C79.1138 50.4954 79.238 50.3711 79.3623 50.3711H85.3269C85.4512 50.3711 85.5754 50.4539 85.5754 50.6196L85.824 55.9629C85.824 56.0872 85.6997 56.2114 85.5754 56.2114Z" fill="#FFBE00"/>
<path d="M85.9484 63.9576H78.6997C78.5754 63.9576 78.4512 63.8333 78.4512 63.7091L78.7825 57.1645C78.7825 57.0403 78.9068 56.916 79.0311 56.916H85.617C85.7413 56.916 85.8655 56.9989 85.8655 57.1645L86.1969 63.7091C86.1969 63.8747 86.1141 63.9576 85.9484 63.9576Z" fill="#FFBE00"/>
<path d="M93.8595 63.5434C93.8181 63.6676 93.6938 63.7919 93.611 63.8747C93.5281 63.9576 93.4039 63.9576 93.2796 63.9576H87.1907C87.0665 63.9576 86.9422 63.8747 86.9422 63.7091L86.6108 57.1645C86.6108 57.0403 86.6937 56.916 86.8594 56.916H92.8654C92.9897 56.916 93.0725 56.9989 93.1139 57.1231L93.9009 63.212C93.9009 63.3777 93.9009 63.4605 93.8595 63.5434Z" fill="#FFBE00"/>
<path d="M92.6996 56.2114H86.8179C86.6936 56.2114 86.5693 56.1286 86.5693 55.9629L86.3208 50.6196C86.3208 50.4954 86.4036 50.3711 86.5693 50.3711H91.6227C91.9955 50.3711 92.2854 50.6196 92.3268 50.9924L92.9896 55.9215C92.9482 56.0872 92.8239 56.2114 92.6996 56.2114Z" fill="#FFBE00"/>
<path d="M82.1379 109.146C80.7296 111.672 77.9958 113.288 75.0963 113.288C72.1968 113.288 69.5045 111.672 68.0547 109.146C67.2677 107.737 67.0192 106.37 67.1021 105.003C67.2263 103.264 67.8891 101.566 68.7175 99.8673C68.7175 99.8259 74.1851 88.1037 74.1851 88.1037C74.3507 87.7309 74.7235 87.5238 75.0963 87.4824C75.4691 87.4824 75.8005 87.6895 76.0076 88.1037C76.0076 88.1037 81.4337 99.8259 81.4751 99.8673C82.2621 101.607 82.9663 103.305 83.0906 105.003C83.1734 106.37 82.9249 107.737 82.1379 109.146Z" fill="#191919"/>
<path d="M109.848 77.2507L101.481 79.5703L103.428 59.8125L88.5991 89.6356L96.9662 87.316L95.0194 107.032L109.848 77.2507Z" fill="#EB0000"/>
</g>
<defs>
<clipPath id="clip0_3915_123288">
<rect width="285.589" height="274" fill="white"/>
</clipPath>
</defs>
</svg>
