<svg width="64" height="65" viewBox="0 0 64 65" fill="none" xmlns="http://www.w3.org/2000/svg">
<g clip-path="url(#clip0_3231_107456)">
<path d="M61.8173 41.2943H60.8771V8.82028C60.8771 6.92116 59.332 5.37603 57.4329 5.37603H38.052V2.86753C38.052 1.65903 37.0688 0.675781 35.8603 0.675781H28.1578C26.9493 0.675781 25.966 1.65903 25.966 2.86753V5.37603H19.3396C18.8208 5.37603 18.4003 5.79653 18.4003 6.31541C18.4003 6.83428 18.8208 7.25478 19.3396 7.25478H57.433C58.2963 7.25478 58.9986 7.95703 58.9986 8.82041V41.2944H44.2044C43.6855 41.2944 43.265 41.7149 43.265 42.2338C43.265 42.7527 43.6855 43.1732 44.2044 43.1732H61.8173C61.99 43.1732 62.1304 43.3135 62.1304 43.4863V45.6817C62.1304 45.8544 61.99 45.9948 61.8173 45.9948H11.7099C11.191 45.9948 10.7705 46.4153 10.7705 46.9342C10.7705 47.453 11.191 47.8735 11.7099 47.8735H17.1686L14.0134 63.5515C13.9579 63.8275 14.029 64.114 14.2075 64.3319C14.3859 64.5499 14.6526 64.6762 14.9343 64.6762H20.5693C21.0165 64.6762 21.4019 64.3608 21.4901 63.9222L22.5199 58.8058H41.5565L42.5861 63.9222C42.6745 64.3608 43.0598 64.6762 43.507 64.6762H49.142C49.4236 64.6762 49.6905 64.5498 49.8688 64.3319C50.0473 64.114 50.1184 63.8277 50.0629 63.5515L46.9076 47.8735H61.8173C63.0258 47.8735 64.009 46.8903 64.009 45.6818V43.4864C64.009 42.2775 63.0258 41.2943 61.8173 41.2943ZM27.8446 2.86753C27.8446 2.69478 27.985 2.55441 28.1578 2.55441H35.8603C36.033 2.55441 36.1734 2.69478 36.1734 2.86753V5.37603H27.8446V2.86753ZM39.3563 47.8732L40.371 52.915H23.7053L24.72 47.8732H39.3563ZM19.8001 62.7972H16.0815L19.085 47.8733H22.8038L19.8001 62.7972ZM22.8979 56.9268L23.3271 54.7937H40.749L41.1783 56.9268H22.8979ZM47.9946 62.7972H44.2759L41.2724 47.8733H44.9911L47.9946 62.7972Z" fill="#135EAB"/>
<path d="M7.95229 45.9946H2.20054C2.02779 45.9946 1.88741 45.8542 1.88741 45.6815V43.4861C1.88741 43.3134 2.02779 43.173 2.20054 43.173H40.4468C40.9657 43.173 41.3862 42.7525 41.3862 42.2336C41.3862 41.7147 40.9657 41.2942 40.4468 41.2942H5.01916V8.82035C5.01916 7.9571 5.72141 7.25473 6.58466 7.25473H15.582C16.1009 7.25473 16.5214 6.83423 16.5214 6.31535C16.5214 5.79648 16.1009 5.37598 15.582 5.37598H6.58479C4.68566 5.37598 3.14054 6.9211 3.14054 8.82023V41.2942H2.20054C0.992039 41.2944 0.00878906 42.2776 0.00878906 43.4861V45.6815C0.00878906 46.89 0.992039 47.8732 2.20054 47.8732H7.95229C8.47116 47.8732 8.89167 47.4527 8.89167 46.9339C8.89167 46.415 8.47116 45.9946 7.95229 45.9946Z" fill="#135EAB"/>
<path d="M22.6721 16.6498C22.3007 16.2873 21.7058 16.2949 21.3438 16.6665L18.294 19.7938L17.0131 18.5483C16.641 18.1865 16.0466 18.1951 15.6848 18.567C15.3232 18.9388 15.3315 19.5336 15.7035 19.8952L17.6567 21.7947C17.8392 21.9722 18.0755 22.0606 18.3115 22.0606C18.5558 22.0606 18.8 21.9658 18.9841 21.7771L22.6888 17.9782C23.051 17.6066 23.0435 17.012 22.6721 16.6498Z" fill="#135EAB"/>
<path d="M26.1913 19.0512C26.1913 15.1862 23.047 12.042 19.1821 12.042C15.3171 12.042 12.1729 15.1864 12.1729 19.0512C12.1729 22.9162 15.3172 26.0605 19.1821 26.0605C23.0471 26.0605 26.1913 22.9162 26.1913 19.0512ZM19.1821 24.1819C16.3531 24.1819 14.0515 21.8802 14.0515 19.0512C14.0515 16.2222 16.3531 13.9206 19.1821 13.9206C22.0111 13.9206 24.3127 16.2222 24.3127 19.0512C24.3127 21.8802 22.0111 24.1819 19.1821 24.1819Z" fill="#135EAB"/>
<path d="M21.9497 30.5143C21.5827 30.1476 20.988 30.1476 20.6212 30.5143L19.1832 31.9523L17.7452 30.5143C17.3783 30.1476 16.7835 30.1476 16.4167 30.5143C16.0499 30.8812 16.0499 31.4759 16.4167 31.8428L17.8547 33.2808L16.4167 34.7188C16.0499 35.0857 16.0499 35.6804 16.4167 36.0473C16.6002 36.2307 16.8405 36.3224 17.0809 36.3224C17.3213 36.3224 17.5617 36.2307 17.7452 36.0473L19.1832 34.6093L20.6212 36.0473C20.8047 36.2307 21.045 36.3224 21.2854 36.3224C21.5258 36.3224 21.7662 36.2307 21.9497 36.0473C22.3164 35.6804 22.3164 35.0857 21.9497 34.7188L20.5117 33.2808L21.9497 31.8428C22.3165 31.4759 22.3165 30.8813 21.9497 30.5143Z" fill="#135EAB"/>
<path d="M50.5953 30.5143C50.2284 30.1476 49.6336 30.1476 49.2668 30.5143L47.8288 31.9523L46.3908 30.5143C46.0238 30.1476 45.4291 30.1476 45.0623 30.5143C44.6954 30.8812 44.6954 31.4759 45.0623 31.8428L46.5003 33.2808L45.0623 34.7188C44.6954 35.0857 44.6954 35.6804 45.0623 36.0473C45.2458 36.2307 45.4861 36.3224 45.7265 36.3224C45.9669 36.3224 46.2073 36.2307 46.3908 36.0473L47.8288 34.6093L49.2668 36.0473C49.4503 36.2307 49.6906 36.3224 49.931 36.3224C50.1714 36.3224 50.4118 36.2307 50.5953 36.0473C50.9621 35.6804 50.9621 35.0857 50.5953 34.7188L49.1573 33.2808L50.5953 31.8428C50.9621 31.4759 50.9621 30.8813 50.5953 30.5143Z" fill="#135EAB"/>
<path d="M31.3064 21.9877C31.4899 22.1711 31.7303 22.2628 31.9707 22.2628C32.211 22.2628 32.4514 22.1711 32.6349 21.9877L34.0729 20.5497L35.5109 21.9877C35.6944 22.1711 35.9347 22.2628 36.1752 22.2628C36.4155 22.2628 36.6559 22.1711 36.8394 21.9877C37.2062 21.6208 37.2062 21.0261 36.8394 20.6592L35.4014 19.2212L36.8394 17.7832C37.2062 17.4163 37.2062 16.8216 36.8394 16.4547C36.4725 16.0881 35.8778 16.0881 35.5109 16.4547L34.0729 17.8927L32.6349 16.4547C32.268 16.0881 31.6734 16.088 31.3064 16.4547C30.9397 16.8216 30.9397 17.4163 31.3064 17.7832L32.7444 19.2212L31.3064 20.6592C30.9395 21.0261 30.9395 21.6208 31.3064 21.9877Z" fill="#135EAB"/>
<path d="M30.0908 33.2813C30.0908 35.4762 31.8764 37.2616 34.0713 37.2616C36.2662 37.2616 38.0517 35.476 38.0517 33.2813C38.0517 31.0865 36.2661 29.3008 34.0713 29.3008C31.8766 29.3008 30.0908 31.0865 30.0908 33.2813ZM36.1729 33.2813C36.1729 34.4402 35.2301 35.383 34.0712 35.383C32.9123 35.383 31.9694 34.4402 31.9694 33.2813C31.9694 32.1224 32.9123 31.1795 34.0712 31.1795C35.2301 31.1795 36.1729 32.1224 36.1729 33.2813Z" fill="#135EAB"/>
<path d="M28.0621 26.1836C27.9696 26.6941 28.3085 27.1829 28.819 27.2754C28.9725 27.3031 30.5936 27.586 32.8486 27.586C35.9388 27.586 40.2195 27.0545 43.5423 24.6069C46.2516 22.6111 47.8597 19.6841 48.3222 15.907C48.3853 15.3921 48.0188 14.9235 47.504 14.8605C46.9905 14.7979 46.5206 15.1639 46.4575 15.6787C46.0607 18.9195 44.7071 21.4129 42.4342 23.0897C37.3457 26.8441 29.2346 25.4412 29.1532 25.4266C28.6436 25.335 28.1546 25.6732 28.0621 26.1836Z" fill="#135EAB"/>
</g>
<defs>
<clipPath id="clip0_3231_107456">
<rect width="64" height="64" fill="white" transform="translate(0.000976562 0.675781)"/>
</clipPath>
</defs>
</svg>
