<svg width="64" height="65" viewBox="0 0 64 65" fill="none" xmlns="http://www.w3.org/2000/svg">
<g clip-path="url(#clip0_3231_107471)">
<path d="M32.0068 17.8457C35.3369 17.8457 38.4834 18.9243 41.1055 20.9648C41.5142 21.2832 42.103 21.2095 42.4209 20.8008C42.7393 20.3921 42.6655 19.8032 42.2568 19.4854C39.3022 17.186 35.7578 15.9707 32.0068 15.9707C22.7954 15.9707 15.3018 23.4648 15.3018 32.6763C15.3018 40.7041 20.9937 47.4263 28.5532 49.022C28.5742 49.0269 28.5957 49.0317 28.6172 49.0356C30.8428 49.4961 33.1616 49.4981 35.3965 49.0356C35.418 49.0317 35.4395 49.0273 35.4605 49.022C43.02 47.4263 48.7124 40.7041 48.7124 32.6763C48.7124 29.0991 47.5967 25.687 45.4863 22.8086C45.1802 22.3911 44.5938 22.3008 44.1763 22.6069C43.7583 22.9131 43.668 23.5 43.9741 23.9175C45.8472 26.4717 46.8374 29.5005 46.8374 32.6763C46.8374 39.4092 42.3267 45.1079 36.1689 46.9111V37.8203C37.0557 37.3809 37.877 36.8003 38.6025 36.085C42.9326 31.8145 42.1519 24.5605 36.8711 21.3589C36.3647 21.0518 35.73 21.0415 35.2144 21.332C34.6992 21.6221 34.3794 22.1694 34.3794 22.7603V28.1689L31.9468 30.4941L29.6343 28.1816V22.7603C29.6343 22.1694 29.3145 21.6221 28.7993 21.332C28.2837 21.0415 27.6484 21.0522 27.1416 21.3594C21.9487 24.5083 20.9941 31.7798 25.4702 36.1255C26.1807 36.8154 26.9824 37.3784 27.8447 37.8086V40.9507C27.8447 41.4683 28.2647 41.8882 28.7822 41.8882C29.3003 41.8882 29.7197 41.4683 29.7197 40.9507V38.5059C31.231 38.8872 32.8096 38.8804 34.2939 38.5112V47.3301C33.8501 47.3989 33.3999 47.4478 32.9443 47.4761V42.2002C32.9443 41.6826 32.5244 41.2627 32.0068 41.2627C31.4893 41.2627 31.0693 41.6826 31.0693 42.2002V47.4761C30.6138 47.4473 30.1636 47.3989 29.7197 47.3301V45.3257C29.7197 44.8076 29.3003 44.3882 28.7822 44.3882C28.2647 44.3882 27.8447 44.8076 27.8447 45.3257V46.9111C21.687 45.1079 17.1763 39.4092 17.1763 32.6763C17.1763 24.4985 23.8291 17.8457 32.0068 17.8457ZM29.2319 36.3838C29.1719 36.3511 29.1079 36.3257 29.041 36.3062C26.4614 35.1982 24.6206 32.689 24.4951 29.7246C24.3843 27.1191 25.6265 24.6538 27.7593 23.1914V28.2944C27.7593 28.7227 27.9258 29.125 28.2285 29.4277L30.8096 32.0083C31.4204 32.6196 32.4253 32.6309 33.0493 32.0337L35.7593 29.4438C36.0737 29.1431 36.2539 28.7207 36.2539 28.2856V23.1909C38.3106 24.5962 39.5254 26.8857 39.5254 29.396C39.5254 32.5796 37.5693 35.2236 34.9043 36.3379C34.8745 36.3491 34.8452 36.3613 34.8169 36.3755C33.103 37.0664 31.0879 37.1216 29.2319 36.3838Z" fill="#135EAB"/>
<path d="M61.6162 25.6104L55.4692 24.8682C55.2979 24.8477 55.1543 24.729 55.0942 24.5586C54.7988 23.7183 54.4517 22.8833 54.063 22.0757C53.9883 21.9204 54.0049 21.7427 54.1069 21.6128L57.938 16.73C58.7827 15.6528 58.6899 14.1108 57.7222 13.1426L51.5332 6.95361C50.5649 5.98584 49.0229 5.89307 47.9458 6.73779L43.063 10.5693C42.9326 10.6709 42.7554 10.688 42.6001 10.6128C41.793 10.2241 40.9575 9.87695 40.1177 9.58154C39.9468 9.52148 39.8281 9.37793 39.8076 9.20654L39.0654 3.05957C38.9014 1.70068 37.7451 0.675781 36.3765 0.675781H27.6235C26.2549 0.675781 25.0986 1.70068 24.9346 3.05957L24.1924 9.20605C24.1719 9.37793 24.0532 9.52148 23.8828 9.58154C23.0425 9.87695 22.207 10.2241 21.4004 10.6128C21.2446 10.6875 21.0674 10.6709 20.9375 10.5688L16.0542 6.73779C14.9771 5.89258 13.4351 5.98584 12.4673 6.95361L10.9194 8.50146C10.5532 8.86768 10.5532 9.46143 10.9194 9.82715C11.2856 10.1934 11.8789 10.1934 12.2451 9.82715L13.793 8.27979C14.0908 7.98193 14.5649 7.95312 14.897 8.21338L19.7798 12.0444C20.4766 12.5908 21.4092 12.6899 22.2139 12.3022C22.959 11.9434 23.7295 11.623 24.5049 11.3506C25.3535 11.0518 25.9473 10.3164 26.0542 9.43115L26.7959 3.28418C26.8467 2.86621 27.2021 2.55078 27.6235 2.55078H36.3765C36.7974 2.55078 37.1533 2.86621 37.2041 3.28418L37.9458 9.43115C38.0527 10.3164 38.6465 11.0518 39.4951 11.3501C40.2705 11.623 41.041 11.9434 41.7861 12.3022C42.5908 12.6895 43.5234 12.5908 44.2202 12.0444L49.103 8.21338C49.4346 7.95312 49.9092 7.98193 50.207 8.27979L56.396 14.4688C56.6938 14.7666 56.7227 15.2412 56.4624 15.5728L52.6313 20.4556C52.085 21.1523 51.9863 22.085 52.3735 22.8896C52.7324 23.6348 53.0527 24.4058 53.3257 25.1807C53.624 26.0293 54.3599 26.623 55.2446 26.73L61.3911 27.4717C61.8096 27.5225 62.125 27.8779 62.125 28.2993V37.0522C62.125 37.4736 61.8096 37.8291 61.3916 37.8799L55.2446 38.6221C54.3599 38.7285 53.624 39.3223 53.3257 40.1709C53.0527 40.9463 52.7324 41.7168 52.3735 42.4619C51.9863 43.2666 52.085 44.1992 52.6313 44.896L56.4624 49.7793C56.7227 50.1108 56.6938 50.5854 56.396 50.8833L50.207 57.0723C49.9092 57.3701 49.4346 57.3984 49.103 57.1387L44.2202 53.3076C43.5234 52.7607 42.5908 52.6621 41.7861 53.0498C41.041 53.4087 40.2705 53.729 39.4951 54.0015C38.6465 54.3003 38.0527 55.0356 37.9458 55.9209L37.2041 62.0674C37.1533 62.4858 36.7979 62.8013 36.3765 62.8013H27.6235C27.2021 62.8013 26.8467 62.4858 26.7959 62.0674L26.0542 55.9209C25.9473 55.0356 25.3535 54.3003 24.5049 54.0015C23.7295 53.729 22.959 53.4087 22.2139 53.0498C21.4092 52.6621 20.4766 52.7607 19.7798 53.3076L14.897 57.1382C14.5654 57.3979 14.0908 57.3696 13.793 57.0718L7.604 50.8828C7.30615 50.585 7.27734 50.1104 7.5376 49.7788L11.3687 44.896C11.915 44.1992 12.0137 43.2666 11.6265 42.4619C11.2676 41.7168 10.9473 40.9458 10.6743 40.1709C10.376 39.3223 9.64014 38.7285 8.75537 38.6216L2.60889 37.8799C2.19043 37.8291 1.875 37.4736 1.875 37.0522V28.2993C1.875 27.8779 2.19043 27.5225 2.6084 27.4717L8.75537 26.7295C9.64014 26.623 10.376 26.0293 10.6743 25.1807C10.9473 24.4053 11.2676 23.6348 11.6265 22.8896C12.0137 22.085 11.915 21.1523 11.3687 20.4556L7.5376 15.5728C7.27734 15.2412 7.30615 14.7666 7.604 14.4688L9.15186 12.9209C9.51758 12.5547 9.51758 11.9609 9.15186 11.5952C8.78564 11.229 8.19189 11.229 7.82568 11.5952L6.27832 13.1431C5.31006 14.1108 5.21729 15.6528 6.0625 16.73L9.89355 21.6133C9.99561 21.7432 10.0122 21.9204 9.93701 22.0762C9.54834 22.8833 9.20117 23.7188 8.90576 24.5581C8.8457 24.729 8.70215 24.8477 8.53076 24.8682L2.38379 25.6104C1.0249 25.7744 0 26.9307 0 28.2993V37.0522C0 38.4209 1.0249 39.5771 2.38379 39.7412L8.53076 40.4834C8.70215 40.5039 8.8457 40.6226 8.90576 40.793C9.20117 41.6328 9.54834 42.4683 9.93701 43.2754C10.0122 43.4312 9.99512 43.6084 9.89355 43.7383L6.0625 48.6216C5.21729 49.6987 5.31006 51.2407 6.27832 52.2085L12.4673 58.3975C13.4351 59.3657 14.9771 59.4585 16.0542 58.6133L20.9375 54.7822C21.0674 54.6802 21.2446 54.6636 21.4004 54.7388C22.207 55.1274 23.0425 55.4741 23.8828 55.77C24.0532 55.8296 24.1719 55.9736 24.1924 56.145L24.9346 62.2915C25.0986 63.6509 26.2549 64.6758 27.6235 64.6758H36.3765C37.7451 64.6758 38.9014 63.6509 39.0654 62.292L39.8076 56.145C39.8281 55.9736 39.9468 55.8301 40.1172 55.77C40.9575 55.4746 41.793 55.1274 42.5996 54.7388C42.7554 54.6636 42.9326 54.6807 43.0625 54.7827L47.9458 58.6138C49.0225 59.4585 50.5649 59.3657 51.5327 58.3979L57.7217 52.209C58.6899 51.2407 58.7827 49.6987 57.9375 48.6216L54.1064 43.7388C54.0044 43.6089 53.9878 43.4312 54.063 43.2759C54.4517 42.4683 54.7983 41.6333 55.0942 40.7935C55.1538 40.623 55.2979 40.5044 55.4692 40.4834L61.6157 39.7412C62.9751 39.5771 64 38.4209 64 37.0522V28.2993C64 26.9307 62.9751 25.7744 61.6162 25.6104Z" fill="#135EAB"/>
</g>
<defs>
<clipPath id="clip0_3231_107471">
<rect width="64" height="64" fill="white" transform="translate(0 0.675781)"/>
</clipPath>
</defs>
</svg>
