<svg width="60" height="60" viewBox="0 0 60 60" fill="none" xmlns="http://www.w3.org/2000/svg">
<path d="M53.5714 0H6.42857C4.72361 0 3.08848 0.677295 1.88288 1.88289C0.677294 3.08848 0 4.72361 0 6.42858L0 53.5715C0 55.2764 0.677294 56.9116 1.88288 58.1172C3.08848 59.3227 4.72361 60 6.42857 60H53.5714C55.2764 60 56.9115 59.3227 58.1171 58.1172C59.3227 56.9116 60 55.2764 60 53.5715V6.42858C60 4.72361 59.3227 3.08848 58.1171 1.88289C56.9115 0.677295 55.2764 0 53.5714 0ZM51.3763 41.1656L49.3674 49.871C49.2654 50.3136 49.0164 50.7085 48.661 50.9914C48.3056 51.2743 47.8649 51.4284 47.4107 51.4286C25.9821 51.4286 8.57143 34.0567 8.57143 12.5893C8.58737 12.1394 8.7473 11.7064 9.02769 11.3542C9.30808 11.002 9.69412 10.749 10.129 10.6326L18.8344 8.62367C18.9829 8.59226 19.134 8.57478 19.2857 8.57143C19.6742 8.59104 20.0503 8.71428 20.3751 8.92836C20.6999 9.14244 20.9614 9.43955 21.1326 9.78885L25.1504 19.1639C25.2489 19.4166 25.3036 19.6843 25.3125 19.9554C25.2798 20.5501 25.0154 21.1083 24.5759 21.5103L19.5013 25.6621C22.5761 32.1789 27.8211 37.4239 34.3379 40.4987L38.4897 35.4241C38.8917 34.9847 39.4499 34.7202 40.0446 34.6875C40.3158 34.6962 40.5834 34.751 40.8362 34.8496L50.2112 38.8674C50.5606 39.0384 50.8579 39.2999 51.072 39.6247C51.2861 39.9495 51.4092 40.3258 51.4286 40.7143C51.4259 40.8661 51.4084 41.0173 51.3763 41.1656Z" fill="white"/>
</svg>
