<svg width="7" height="12" viewBox="0 0 7 12" fill="none" xmlns="http://www.w3.org/2000/svg">
<path d="M0.798162 0C1.08198 0 1.2771 0.150776 1.46335 0.337029C3.00659 1.88027 4.54982 3.4235 6.09306 4.96674C6.26157 5.13525 6.43896 5.30377 6.60747 5.48115C6.97111 5.85366 6.97111 6.28825 6.60747 6.66075C4.91346 8.35477 3.24605 10.0665 1.51657 11.7251C1.02876 12.1951 0.239404 12.0976 0.0265437 11.3525C-0.0444097 11.1131 0.0265437 10.9091 0.159581 10.714C0.221666 10.6253 0.301488 10.5543 0.381311 10.4745C1.81812 9.02882 3.25492 7.59202 4.7006 6.15521C4.84251 6.02217 4.84251 5.95122 4.7006 5.81818C3.23719 4.36364 1.77377 2.90022 0.319226 1.43681C-0.106494 1.01996 -0.106494 0.523282 0.310357 0.186253C0.452264 0.0620843 0.611909 0 0.798162 0Z" fill="white"/>
</svg>
