<svg width="14" height="22" viewBox="0 0 14 22" fill="none" xmlns="http://www.w3.org/2000/svg">
<path d="M12.258 7.83539C12.2723 6.79736 12.2794 5.75229 12.2616 5.51302C12.1045 3.14138 10.0342 1.12866 7.53901 0.931612C7.38195 0.917537 7.22488 0.9105 7.07496 0.9105C5.71494 0.896425 4.51555 1.31516 3.50892 2.15613C2.50943 2.98656 1.8562 4.2146 1.75625 5.43912C1.7384 5.6608 1.73483 6.76569 1.7384 7.8389C0.746048 8.03243 0 8.86286 0 9.86218V19.0215C0 20.1651 0.974503 21.0905 2.17746 21.0905H11.8225C13.0255 21.0905 14 20.1651 14 19.0215V9.86218C14 8.85934 13.2504 8.0254 12.258 7.83539ZM6.92504 3.04286C6.96073 3.04286 7 3.04286 7.0357 3.04286C8.0923 3.05341 9.01683 3.56715 9.57726 4.45739C9.88781 4.95354 10.002 6.41381 10.0306 7.79668H3.97297C4.01224 6.43844 4.11933 4.95002 4.40846 4.48554C4.96532 3.58826 5.88271 3.06397 6.92504 3.04286Z" fill="#221500"/>
</svg>
