<svg width="14" height="22" viewBox="0 0 14 22" fill="none" xmlns="http://www.w3.org/2000/svg">
<g clip-path="url(#clip0_3810_16126)">
<path d="M12.5087 8.79496C12.6367 8.67039 12.7301 8.57697 12.7751 8.52852C14.3806 6.77766 14.4118 4.0095 12.8443 2.22749C12.7474 2.11677 12.6436 2.00604 12.5398 1.90569C11.6194 0.999119 10.4948 0.497389 9.19723 0.417805C7.91003 0.33822 6.57439 0.756905 5.62284 1.54237C5.2872 1.81919 2.53633 4.50085 2.29758 4.72576L3.79931 6.20327C3.85121 6.15482 3.90311 6.10292 3.95156 6.05448C4.85813 5.17905 7.28028 2.83995 8.13149 2.62888C9.15917 2.37628 10.1661 2.61503 10.8962 3.28977C10.9239 3.314 10.9481 3.33822 10.9723 3.36244C11.6886 4.06832 11.9516 5.03718 11.692 6.02334C11.5536 6.55275 10.6436 7.58043 9.70588 8.53198H2.11073C0.944637 8.53198 0 9.44202 0 10.5666V19.5735C0 20.6981 0.944637 21.6081 2.11073 21.6081H11.4602C12.6263 21.6081 13.5709 20.6981 13.5709 19.5735V10.5597C13.5709 9.80188 13.1419 9.14444 12.5087 8.79496Z" fill="black"/>
<path fill-rule="evenodd" clip-rule="evenodd" d="M7.00061 17.0921C6.61306 17.0921 6.24974 16.9398 5.97639 16.6665C5.70303 16.3931 5.55078 16.0298 5.55078 15.6422C5.55078 15.2928 5.67881 14.9606 5.90026 14.7011C5.86912 14.5973 5.85528 14.4865 5.85528 14.3758C5.85528 13.7426 6.37085 13.2305 7.00061 13.2305C7.3051 13.2305 7.59576 13.3481 7.81029 13.5661C8.02829 13.7841 8.14593 14.0713 8.14593 14.3758C8.14593 14.4865 8.12863 14.5938 8.10095 14.7011C8.3224 14.9606 8.45043 15.2928 8.45043 15.6422C8.45043 16.0298 8.29818 16.3931 8.02482 16.6665C7.75147 16.9398 7.38815 17.0921 7.00061 17.0921Z" fill="white"/>
</g>
<defs>
<clipPath id="clip0_3810_16126">
<rect width="14" height="21.1938" fill="white" transform="translate(0 0.40332)"/>
</clipPath>
</defs>
</svg>
